<svg version="1.2" xmlns="http://www.w3.org/2000/svg" viewBox="0 0 1488 1109" width="1488" height="1109">
	<title>star_yellow_outline_and_flat-ai</title>
	<style>
		.s0 { fill: #ff455c } 
		.s1 { fill: #000064 } 
	</style>
	<g id="objects">
		<g id="&lt;Group&gt;">
			<path id="&lt;Path&gt;" class="s0" d="m988.7 436.1l-195.2 190.2 46.1 268.8c8.2 47.7-42 84.2-84.9 61.6l-241.3-126.9-241.3 126.9c-42.9 22.6-93.1-13.9-84.9-61.6l46.1-268.8-195.2-190.2c-34.7-33.9-15.6-92.8 32.4-99.8l269.8-39.2 120.7-244.5c21.4-43.5 83.4-43.5 104.9 0l120.6 244.5 269.8 39.2c48 7 67.2 65.9 32.4 99.8z"/>
			<path id="Forma 1" class="s1" d="m917 643c0-17.7 14.3-32 32-32h350.3c17.7 0 32 14.3 32 32 0 17.7-14.3 32-32 32h-350.3c-17.7 0-32-14.3-32-32z"/>
			<path id="Forma 1 copy" class="s1" d="m915 784c0-17.7 14.3-32 32-32h488c17.7 0 32 14.3 32 32 0 17.7-14.3 32-32 32h-488c-17.7 0-32-14.3-32-32z"/>
			<path id="Forma 1 copy 3" class="s1" d="m911 922c0-17.7 14.3-32 32-32h488c17.7 0 32 14.3 32 32 0 17.7-14.3 32-32 32h-488c-17.7 0-32-14.3-32-32z"/>
			<path id="Forma 1 copy 4" class="s1" d="m918 1061c0-17.7 14.3-32 32-32h488c17.7 0 32 14.3 32 32 0 17.7-14.3 32-32 32h-488c-17.7 0-32-14.3-32-32z"/>
		</g>
	</g>
</svg>