<svg version="1.2" xmlns="http://www.w3.org/2000/svg" viewBox="0 0 1000 1000" width="1000" height="1000">
	<title>29169202_7521644-ai</title>
	<style>
		.s0 { fill: #ffffff } 
		.s1 { fill: #e7d8ce } 
		.s2 { fill: #82264b } 
		.s3 { fill: #799fd7 } 
		.s4 { fill: #d3442d } 
		.s5 { fill: #ff9c00 } 
		.s6 { fill: #cc866d } 
		.s7 { fill: #66193c } 
		.s8 { fill: #e66446 } 
		.s9 { opacity: .6;mix-blend-mode: multiply;fill: none;stroke: #701118;stroke-linecap: round;stroke-miterlimit:10;stroke-width: 2 } 
		.s10 { fill: #ad624b } 
		.s11 { fill: none;stroke: #ad624b;stroke-linecap: round;stroke-miterlimit:10;stroke-width: 2 } 
		.s12 { fill: none;stroke: #c2daf4;stroke-linecap: round;stroke-miterlimit:10;stroke-width: 2 } 
		.s13 { opacity: .4;mix-blend-mode: multiply;fill: none;stroke: #0d5ca3;stroke-linecap: round;stroke-miterlimit:10;stroke-width: 2 } 
		.s14 { opacity: .5;mix-blend-mode: multiply;fill: #4d82c1 } 
		.s15 { opacity: .4;mix-blend-mode: multiply;fill: none;stroke: #d3442d;stroke-linecap: round;stroke-miterlimit:10;stroke-width: 2 } 
		.s16 { fill: none;stroke: #d3442d;stroke-linecap: round;stroke-miterlimit:10;stroke-width: 2 } 
		.s17 { fill: #ffbea2 } 
		.s18 { fill: #4d82c1 } 
		.s19 { fill: #a09c53 } 
		.s20 { opacity: .6;mix-blend-mode: multiply;fill: none;stroke: #a09c53;stroke-linecap: round;stroke-miterlimit:10;stroke-width: 2 } 
		.s21 { fill: #ed7854 } 
		.s22 { fill: none;stroke: #ed7854;stroke-linecap: round;stroke-miterlimit:10;stroke-width: 2 } 
		.s23 { fill: #54112f } 
		.s24 { fill: #ddc3b1 } 
		.s25 { opacity: .5;mix-blend-mode: multiply;fill: #ff9c00 } 
		.s26 { fill: #271e4b } 
		.s27 { fill: #c2daf4 } 
		.s28 { opacity: .6;mix-blend-mode: multiply;fill: none;stroke: #e66446;stroke-linecap: round;stroke-miterlimit:10;stroke-width: 2 } 
		.s29 { opacity: .4;fill: #799fd7 } 
		.s30 { fill: #3a72b5 } 
		.s31 { fill: none;stroke: #ffffff;stroke-miterlimit:10;stroke-width: 2 } 
		.s32 { mix-blend-mode: multiply;fill: #e7d8ce } 
		.s33 { fill: none;stroke: #ddc3b1;stroke-miterlimit:10;stroke-width: 2.1 } 
	</style>
	<g id="OBJECTS">
		<g id="&lt;Group&gt;">
			<g id="&lt;Group&gt;">
				<path id="&lt;Compound Path&gt;" fill-rule="evenodd" class="s0" d="m335.1 192.8h-105.8v-129.8h105.8zm-103.8-2h101.8v-125.8h-101.8z"/>
				<path id="&lt;Path&gt;" class="s1" d="m246.1 175.8h72.2v-95.8h-72.2z"/>
			</g>
			<g id="&lt;Group&gt;">
				<path id="&lt;Compound Path&gt;" fill-rule="evenodd" class="s0" d="m196.8 233.7h-86.5v-70.7h86.5zm-84.5-2h82.5v-66.8h-82.5z"/>
				<path id="&lt;Path&gt;" class="s1" d="m121.9 174.4v47.8h63.3v-47.8z"/>
			</g>
		</g>
		<g id="&lt;Group&gt;">
			<path id="&lt;Path&gt;" class="s2" d="m425.8 196.1c3.9 12.5 16.4 16.9 24.4 20.3 7.9 3.3 48.3-32.8 46.5-50.7-1.9-18-38.6-18.4-38.6-18.4l-29 18.4z"/>
			<g id="&lt;Group&gt;">
				<g id="&lt;Group&gt;">
					<g id="&lt;Group&gt;">
						<g id="&lt;Group&gt;">
							<path id="&lt;Compound Path&gt;" fill-rule="evenodd" class="s3" d="m585.4 396.3q-9.8 0-17.8-4.4c-8.6-4.7-21.9-15.8-49-60.2-13.9-23-25-44.1-25.5-45-5.6-10.6-1.5-23.6 9.1-29.2 10.6-5.5 23.6-1.4 29.2 9.1 0.1 0.3 10.7 20.3 23.6 41.6 18.8 31.1 28.5 41.5 32 44.6 3.1-0.7 11.6-3.6 27.7-15.5 12.5-9.2 22.5-18.7 22.6-18.8 8.6-8.2 22.3-7.8 30.5 0.8 8.2 8.7 7.9 22.3-0.7 30.6-0.6 0.5-14.6 13.8-31.7 25.7-10.6 7.5-20.4 13-29.1 16.3q-11.2 4.4-20.9 4.4zm3.1-42.3q0 0 0 0 0 0 0 0z"/>
						</g>
					</g>
					<g id="&lt;Group&gt;">
						<g id="&lt;Group&gt;">
							<g id="&lt;Group&gt;">
								<g id="&lt;Group&gt;">
									<path id="&lt;Path&gt;" class="s4" d="m588 327h124.2c3.2 0 5.8-2.6 5.8-5.7 0-3.2-2.6-5.8-5.8-5.8h-124.2c-3.2 0-5.8 2.6-5.8 5.8 0 3.1 2.6 5.7 5.8 5.7z"/>
								</g>
							</g>
							<g id="&lt;Group&gt;">
								<g id="&lt;Group&gt;">
									<path id="&lt;Path&gt;" class="s5" d="m619.2 327h94.1c2.2 0 4.2-1.3 5.2-3.3l25.7-56.2c1.7-3.7-1-8-5.2-8h-94.1c-2.2 0-4.2 1.3-5.2 3.3l-25.7 56.2c-1.7 3.7 1 8 5.2 8z"/>
								</g>
							</g>
							<g id="&lt;Group&gt;">
								<g id="&lt;Group&gt;">
									<path id="&lt;Path&gt;" class="s4" d="m676 293.2c0 4.6 3.6 8.2 8.1 8.2 4.5 0 8.2-3.6 8.2-8.2 0-4.5-3.7-8.1-8.2-8.1-4.5 0-8.1 3.6-8.1 8.1z"/>
								</g>
							</g>
						</g>
						<g id="&lt;Group&gt;">
							<g id="&lt;Group&gt;">
								<path id="&lt;Path&gt;" class="s6" d="m644.1 334.9c3.3 4.5 8.9 6.5 14.3 5.6 2.6-0.4 5.6-1.2 8.7-2.8 2.1-1 4.7-2.9 6.5-2.7 4.6 0.5 6.3-2.7 7.4-3 1.1 0.5 2.6 1 4.5 0.8 2.4-0.3 4.3-1.1 5.5-1.8q0 0 0 0c4.5 0 8.5 0.1 9.8-0.7 2.5-1.8 5-19.3 0.7-20-5.8-1-2.9 11.9-8.1 14.4 0 0 3.9-16.3-2.6-17.5-4.4-0.8-5.1 15.4-9.8 18.3 0 0 4.4-15.1-0.4-17.5-4.8-2.4-4.7 15.8-9.6 16.3-1 0.1 3.9-12.9-1.8-13.6-5.8-0.7-2.5 14.8-19.5 14.4-6.9-0.1-9.7 4.2-5.6 9.8z"/>
							</g>
						</g>
					</g>
				</g>
				<g id="&lt;Group&gt;">
					<g id="&lt;Group&gt;">
						<g id="&lt;Group&gt;">
							<g id="&lt;Group&gt;">
								<g id="&lt;Group&gt;">
									<g id="&lt;Group&gt;">
										<g id="&lt;Group&gt;">
											<path id="&lt;Path&gt;" class="s6" d="m351.3 854.2l-2.1 29.7 30.5 0.5 1.6-27.8z"/>
										</g>
									</g>
								</g>
							</g>
							<g id="&lt;Group&gt;">
								<g id="&lt;Group&gt;">
									<g id="&lt;Group&gt;">
										<path id="&lt;Path&gt;" class="s2" d="m473.8 514.2l-1.9 4.9-59.4 159.9c0 66-29.8 185.2-29.8 185.2l-35.8-1.7 9.8-186.3 0.2-2.6q0-0.3 0.1-0.7c9.2-36.7 28.3-128.4 41.3-172.6q0.5-1.9 1.1-3.6c2-7 3.6-12.5 4.6-15.7 0.6-2.2 1-3.4 1-3.4l10 5.4 2.9 1.5z"/>
									</g>
								</g>
							</g>
							<g id="&lt;Group&gt;">
								<g id="&lt;Group&gt;">
									<g id="&lt;Group&gt;">
										<g id="&lt;Group&gt;">
											<g id="&lt;Group&gt;">
												<g id="&lt;Group&gt;">
													<g id="&lt;Group&gt;">
														<path id="&lt;Path&gt;" class="s7" d="m386.6 918.2q0 0.4 0 0.7-0.1 1.6-0.2 2.8c-0.1 1.8-0.2 2.9-0.2 2.9h-59.1c0 0-0.3-2.3-0.1-5.7 0.4-6 2.4-15.6 10.6-21.9 11.1-8.6 6.8-6.8 9.1-10.8 0.3-0.4 2.3-7.1 2.5-7.6 1.9-4 3.7-6 14.3-6 14 0 15.3 6.8 16.8 10.4 0.6 1.5 1.5 4.7 2.3 8.4 0.4 1.5 0.7 3.1 1.1 4.7 0.8 4.1 1.7 8.3 2.2 11.7 0.6 3.7 0.7 7.4 0.7 10.4z"/>
													</g>
												</g>
											</g>
										</g>
									</g>
									<g id="&lt;Group&gt;">
										<g id="&lt;Group&gt;">
											<g id="&lt;Group&gt;">
												<g id="&lt;Group&gt;">
													<g id="&lt;Group&gt;">
														<g id="&lt;Group&gt;">
															<path id="&lt;Path&gt;" class="s8" d="m386.6 918.2q0 0.4 0 0.7-0.1 1.6-0.2 2.8-4.3-3-6.1-7.9c-3.7-10 2-22 2.2-22.5l0.1 0.1c0.4 1.5 0.7 3.1 1.1 4.7-1.4 4.1-2.9 10.9-0.8 16.7q1.2 3.2 3.7 5.4z"/>
														</g>
													</g>
												</g>
											</g>
										</g>
									</g>
									<g id="&lt;Group&gt;">
										<g id="&lt;Group&gt;">
											<g id="&lt;Group&gt;">
												<g id="&lt;Group&gt;">
													<g id="&lt;Group&gt;">
														<path id="&lt;Path&gt;" class="s8" d="m386.6 918.9c-0.1 3.4-0.4 5.7-0.4 5.7h-59.1c0 0-0.3-2.3-0.1-5.7z"/>
													</g>
												</g>
											</g>
										</g>
									</g>
								</g>
								<g id="&lt;Group&gt;">
									<g id="&lt;Group&gt;">
										<g id="&lt;Group&gt;">
											<g id="&lt;Group&gt;">
												<g id="&lt;Group&gt;">
													<path id="&lt;Path&gt;" class="s8" d="m365.4 891.1q-0.2 0-0.4-0.1c-7.5-1.9-13.6-0.3-13.7-0.3-0.9 0.3-1.8-0.3-2.1-1.2-0.2-0.9 0.3-1.8 1.2-2 0.3-0.1 7.1-1.9 15.5 0.2 0.9 0.3 1.4 1.2 1.2 2.1-0.2 0.8-0.9 1.3-1.7 1.3z"/>
												</g>
											</g>
										</g>
									</g>
								</g>
								<g id="&lt;Group&gt;">
									<g id="&lt;Group&gt;">
										<g id="&lt;Group&gt;">
											<g id="&lt;Group&gt;">
												<g id="&lt;Group&gt;">
													<path id="&lt;Path&gt;" class="s8" d="m366.4 884.2q-0.2 0-0.4 0c-7.5-2-13.7-0.3-13.7-0.3-0.9 0.3-1.8-0.3-2.1-1.2-0.2-0.9 0.3-1.8 1.2-2 0.3-0.1 7-1.9 15.4 0.2 0.9 0.3 1.5 1.2 1.2 2.1-0.2 0.7-0.8 1.2-1.6 1.2z"/>
												</g>
											</g>
										</g>
									</g>
								</g>
								<g id="&lt;Group&gt;">
									<g id="&lt;Group&gt;">
										<g id="&lt;Group&gt;">
											<g id="&lt;Group&gt;">
												<g id="&lt;Group&gt;">
													<path id="&lt;Path&gt;" class="s8" d="m362.9 896.4q-0.2 0-0.4-0.1c-7.5-1.9-13.7-0.3-13.7-0.2-0.9 0.2-1.8-0.3-2.1-1.2-0.2-0.9 0.3-1.8 1.2-2.1 0.3-0.1 7.1-1.9 15.4 0.3 0.9 0.2 1.5 1.1 1.2 2-0.2 0.8-0.8 1.3-1.6 1.3z"/>
												</g>
											</g>
										</g>
									</g>
								</g>
								<g id="&lt;Group&gt;">
									<g id="&lt;Group&gt;">
										<g id="&lt;Group&gt;">
											<g id="&lt;Group&gt;">
												<g id="&lt;Group&gt;">
													<path id="&lt;Path&gt;" class="s8" d="m359.9 902.5q-0.2 0-0.4-0.1c-7.5-1.9-13.6-0.3-13.7-0.3-0.9 0.3-1.8-0.2-2.1-1.1-0.2-0.9 0.3-1.9 1.2-2.1 0.3-0.1 7.1-1.9 15.5 0.3 0.9 0.2 1.4 1.1 1.2 2-0.2 0.8-0.9 1.3-1.7 1.3z"/>
												</g>
											</g>
										</g>
									</g>
								</g>
							</g>
						</g>
						<g id="&lt;Group&gt;">
							<g id="&lt;Group&gt;">
								<g id="&lt;Group&gt;">
									<g id="&lt;Group&gt;">
										<path id="&lt;Path&gt;" class="s6" d="m477 854.2l0.6 29.7 27.8 0.5 0.1-27.9z"/>
									</g>
								</g>
							</g>
						</g>
						<g id="&lt;Group&gt;">
							<g id="&lt;Group&gt;">
								<g id="&lt;Group&gt;">
									<g id="&lt;Group&gt;">
										<g id="&lt;Group&gt;">
											<g id="&lt;Group&gt;">
												<path id="&lt;Path&gt;" class="s7" d="m570.6 925.6l-99.3-1.1c-0.7-1.4-1.1-3.3-1.2-5.5-0.6-8.4 2.2-21.8 3.7-30.3q0.2-1.4 0.4-2.7c0.2-1.4 0.3-2.6 0.3-3.4 0.1-6.9 6.2-5.7 6.2-5.7 9.9 10 21.5-4.7 28 0.2 0 0 2.9 2.1 10.7 9.3 7.8 7.2 21.2 12 32.5 16.9 14.7 6.3 18.8 12.5 19.6 16.7 0.6 3.4-0.9 5.6-0.9 5.6z"/>
											</g>
										</g>
									</g>
								</g>
							</g>
							<g id="&lt;Group&gt;">
								<g id="&lt;Group&gt;">
									<g id="&lt;Group&gt;">
										<g id="&lt;Group&gt;">
											<g id="&lt;Group&gt;">
												<path id="&lt;Path&gt;" class="s8" d="m570.6 925.6l-99.3-1.1c-0.7-1.4-1.1-3.3-1.2-5.5l101.4 1c0.6 3.4-0.9 5.6-0.9 5.6z"/>
											</g>
										</g>
									</g>
								</g>
							</g>
							<g id="&lt;Group&gt;">
								<g id="&lt;Group&gt;">
									<g id="&lt;Group&gt;">
										<g id="&lt;Group&gt;">
											<g id="&lt;Group&gt;">
												<g id="&lt;Group&gt;">
													<path id="&lt;Path&gt;" class="s8" d="m481.4 924.6h-2.9c3-3.4 5.8-8.5 5.5-15.9-0.4-9.8-6.2-16.5-10.2-20q0.2-1.4 0.4-2.7c4.4 3.4 11.7 10.9 12.2 22.6 0.2 7.1-2.1 12.3-5 16z"/>
												</g>
											</g>
										</g>
									</g>
								</g>
							</g>
							<g id="&lt;Group&gt;">
								<g id="&lt;Group&gt;">
									<g id="&lt;Group&gt;">
										<g id="&lt;Group&gt;">
											<g id="&lt;Group&gt;">
												<path id="&lt;Path&gt;" class="s8" d="m517.6 892.2c-0.7 0-1.4-0.5-1.5-1.2-0.2-0.9 0.3-1.8 1.2-2l6.2-1.5c0.9-0.2 1.8 0.4 2 1.2 0.2 0.9-0.4 1.8-1.2 2l-6.3 1.5q-0.2 0-0.4 0z"/>
											</g>
										</g>
									</g>
								</g>
							</g>
							<g id="&lt;Group&gt;">
								<g id="&lt;Group&gt;">
									<g id="&lt;Group&gt;">
										<g id="&lt;Group&gt;">
											<g id="&lt;Group&gt;">
												<path id="&lt;Path&gt;" class="s8" d="m510.8 886.8c-0.7 0-1.3-0.5-1.5-1.3-0.2-0.8 0.3-1.7 1.2-1.9l6.2-1.5c0.9-0.2 1.8 0.3 2 1.2 0.2 0.9-0.4 1.8-1.2 2l-6.3 1.5q-0.2 0-0.4 0z"/>
											</g>
										</g>
									</g>
								</g>
							</g>
							<g id="&lt;Group&gt;">
								<g id="&lt;Group&gt;">
									<g id="&lt;Group&gt;">
										<g id="&lt;Group&gt;">
											<g id="&lt;Group&gt;">
												<path id="&lt;Path&gt;" class="s8" d="m523.8 895.9c-0.7 0-1.4-0.5-1.6-1.3-0.2-0.8 0.4-1.7 1.3-1.9l6.2-1.5c0.8-0.2 1.7 0.3 1.9 1.2 0.2 0.9-0.3 1.8-1.2 2l-6.2 1.5q-0.2 0-0.4 0z"/>
											</g>
										</g>
									</g>
								</g>
							</g>
							<g id="&lt;Group&gt;">
								<g id="&lt;Group&gt;">
									<g id="&lt;Group&gt;">
										<g id="&lt;Group&gt;">
											<g id="&lt;Group&gt;">
												<path id="&lt;Path&gt;" class="s8" d="m530 899.4c-0.8 0-1.4-0.5-1.6-1.2-0.2-0.9 0.3-1.8 1.2-2l6.2-1.5c0.9-0.2 1.8 0.4 2 1.3 0.2 0.8-0.3 1.7-1.2 1.9l-6.2 1.5q-0.2 0-0.4 0z"/>
											</g>
										</g>
									</g>
								</g>
							</g>
							<g id="&lt;Group&gt;">
								<g id="&lt;Group&gt;">
									<g id="&lt;Group&gt;">
										<g id="&lt;Group&gt;">
											<g id="&lt;Group&gt;">
												<path id="&lt;Path&gt;" class="s8" d="m536.7 902.7c-0.7 0-1.4-0.5-1.6-1.2-0.2-0.9 0.4-1.8 1.2-2l6.3-1.5c0.8-0.2 1.7 0.3 1.9 1.2 0.2 0.9-0.3 1.8-1.2 2l-6.2 1.5q-0.2 0-0.4 0z"/>
											</g>
										</g>
									</g>
								</g>
							</g>
							<g id="&lt;Group&gt;">
								<g id="&lt;Group&gt;">
									<g id="&lt;Group&gt;">
										<g id="&lt;Group&gt;">
											<g id="&lt;Group&gt;">
												<path id="&lt;Path&gt;" class="s8" d="m544 905.5c-0.7 0-1.4-0.5-1.6-1.2-0.2-0.9 0.4-1.8 1.2-2l6.3-1.5c0.8-0.2 1.7 0.4 1.9 1.2 0.2 0.9-0.3 1.8-1.2 2l-6.2 1.5q-0.2 0-0.4 0z"/>
											</g>
										</g>
									</g>
								</g>
							</g>
						</g>
						<g id="&lt;Group&gt;">
							<g id="&lt;Group&gt;">
								<g id="&lt;Group&gt;">
									<g id="&lt;Group&gt;">
										<path id="&lt;Path&gt;" class="s2" d="m545.1 501.4c-11.4 7.6-37.3 13.8-63.5 16.7-33.9 3.8-68.2 2.2-72.7-8.7q-0.7-1.8-1.4-3.8 0-0.1 0-0.1-0.4-1.5-0.8-3.1-0.7-2.7-1.2-5.7-0.3-1.7-0.5-3.5c-2.4-18-0.3-37.8-0.3-37.8l128.4-26.9c0 0 12.6 36.6 14.6 58.2q0.2 1.7 0.2 3.4c0.3 5.6-0.5 9.8-2.8 11.3z"/>
									</g>
								</g>
							</g>
						</g>
						<g id="&lt;Group&gt;">
							<g id="&lt;Group&gt;">
								<g id="&lt;Group&gt;">
									<g id="&lt;Group&gt;">
										<path id="&lt;Path&gt;" class="s2" d="m548.1 492.7q0 1.5 0 3 0 3.6-0.1 7.1 0 1.8 0 3.6 0 0.3 0 0.5 0 1.7-0.1 3.4c-0.8 72.7-3.4 139.1-8.6 186.8l-0.6 3.3-29.3 164.9-37.7-3.2c0 0 1.4-130.6 9.7-160.4l-0.1-182.7-0.1-26.3 50.8 5.3 3.2-1 1.9-0.6 3.1-1.1z"/>
									</g>
								</g>
							</g>
						</g>
					</g>
				</g>
				<path id="&lt;Path&gt;" class="s9" d="m473.8 474.2c0 0-3.2 28.4 2.1 31.8 5.4 3.5 14.6 0 14.6 0"/>
				<path id="&lt;Path&gt;" class="s9" d="m490.6 465.7l3.5 229.9c0 0-18.5 88.2-17.1 158.6"/>
				<path id="&lt;Path&gt;" class="s9" d="m462.3 521.9c0 0-52 139.4-55.7 152.1-3.7 12.7-3.7 59-14.8 115-11.1 55.9-12.9 74.5-12.9 74.5"/>
				<path id="&lt;Path&gt;" class="s9" d="m361.7 676.4c11.4 2.5 17.2 0 17.2 0"/>
				<path id="&lt;Path&gt;" class="s9" d="m403.8 498.4c16.8-12.1 21.5-30.6 21.5-30.6"/>
				<path id="&lt;Path&gt;" class="s9" d="m515.7 460c14.1 26.3 32.2 30.1 32.2 30.1"/>
				<path id="&lt;Path&gt;" class="s9" d="m513.3 691.9c15.2 7.6 15.2 7.6 15.2 7.6"/>
				<g id="&lt;Group&gt;">
					<g id="&lt;Group&gt;">
						<g id="&lt;Group&gt;">
							<g id="&lt;Group&gt;">
								<g id="&lt;Group&gt;">
									<g id="&lt;Group&gt;">
										<g id="&lt;Group&gt;">
											<g id="&lt;Group&gt;">
												<path id="&lt;Path&gt;" class="s3" d="m542.8 460.7q0 0-0.1 0.1c-2.6 2.4-5.7 4.8-9 7q-0.2 0.1-0.3 0.2-1.6 1.1-3.3 2.1-1.4 0.8-2.8 1.6-0.7 0.4-1.5 0.8-1.4 0.8-2.8 1.5c-7.7 3.8-16.5 7-25.9 9.4q-1.2 0.3-2.5 0.6-1 0.2-1.9 0.4-1.3 0.3-2.6 0.6-1.6 0.3-3.1 0.6-1.3 0.2-2.6 0.4-0.8 0.1-1.6 0.2-1.3 0.2-2.6 0.4c-8.7 1.2-17.7 1.6-26.7 1.2q-1.8-0.1-3.7-0.2-2.8-0.2-5.7-0.5-1.8-0.2-3.6-0.4-0.3-0.1-0.6-0.1-0.1 0-0.2 0-1.5-0.2-3-0.5c-5.3-0.8-10.6-2-15.8-3.6q-0.8-0.2-1.6-0.4-1.6-0.5-3.2-1-4.4-1.5-8.7-3.4-1.1-0.4-2.2-0.9-0.7-0.3-1.4-0.6-0.7-0.4-1.4-0.7-0.1-0.1-0.2-0.1c-5.4-14.9-11.4-67.7-13-83.5q-0.5-4.7-0.8-9.5c-0.6-8.5-0.7-17.2-0.6-25.9 0-6.7 0.2-13.5 0.6-20.5q0-1.3 0.1-2.6 0.2-4.8 0.5-9.6 0.1-1.1 0.1-2.3 0.1-0.2 0.1-0.5 0-0.2 0-0.4 0.2-3.8 0.5-7.7 0.4-6.5 0.8-13.3 0.3-3.7 0.5-7.4c1-15.9 4.4-28.3 10-36.8q2.1-3.1 4.7-5.6 1.8-1.7 3.9-3 4.2-2.7 9.4-3.6c3.1-0.5 6-1.1 8.6-1.9q0.7-0.2 1.4-0.4 2.2-0.7 4.2-1.4 2.2-0.9 4.1-1.8 0.3-0.1 0.6-0.3 0.5-0.2 1-0.5 0 0 0 0 1.4-0.7 2.5-1.3c2.2-1.3 3.9-2.4 4.8-3.1 0.7-0.5 1.1-0.8 1.1-0.8h37q0.5 0.7 0.9 1.3 0.1 0 0.1 0 0.7 1 1.5 1.8 1.4 1.6 3 2.8c1.3 1.1 2.8 2 4.2 2.8q0.9 0.5 1.9 1 0.7 0.3 1.4 0.6 0.8 0.4 1.6 0.7 1.8 0.7 3.6 1.3 0 0 0.1 0c7.6 2.4 15.3 3.6 20.5 8q1.4 1.2 2.6 2.7c1.5 2 2.6 4.5 3.3 7.7q0.2 1.4 0.3 3c0.3 8.2-3.2 21.8-4.6 44.3-0.5 7.2-0.7 15.5-0.6 24.7q0.1 3.5 0.3 7.3 0 1.1 0.1 2.2 0.1 2.3 0.2 4.7 0 0 0 0 0.2 2.4 0.3 4.8 0.4 4.6 0.9 9.4 0.4 4.3 0.9 8.8 0.6 4.6 1.3 9.4c1.8 12.8 5.9 38.1 10.2 59.4q1 5.1 2 9.7 0.1 0.5 0.3 1c0.7 3.4 1.5 6.7 2.2 9.6z"/>
											</g>
										</g>
									</g>
								</g>
							</g>
						</g>
					</g>
					<g id="&lt;Group&gt;">
						<g id="&lt;Group&gt;">
							<g id="&lt;Group&gt;">
								<g id="&lt;Group&gt;">
									<g id="&lt;Group&gt;">
										<g id="&lt;Group&gt;">
											<path id="&lt;Path&gt;" class="s6" d="m482.2 222.8l1.4 9.2q-1.5 1.6-3 2.8c-14.5 11.8-33.4 2.4-33.4 2.4l-4.6-31.8 34.9 15.4z"/>
										</g>
									</g>
								</g>
							</g>
							<g id="&lt;Group&gt;">
								<g id="&lt;Group&gt;">
									<g id="&lt;Group&gt;">
										<g id="&lt;Group&gt;">
											<path id="&lt;Path&gt;" class="s10" d="m482.2 222.8l1.4 9.2q-1.5 1.6-3 2.8c-14.3-3.5-22.2-15.9-22.2-15.9l19.1 1.9z"/>
										</g>
									</g>
								</g>
							</g>
						</g>
						<g id="&lt;Group&gt;">
							<g id="&lt;Group&gt;">
								<g id="&lt;Group&gt;">
									<g id="&lt;Group&gt;">
										<path id="&lt;Path&gt;" class="s10" d="m487.9 180.5c0 0 4.3-6.9 8.2-1.1 3.8 5.7 3.3 18.5-4.9 17.6z"/>
									</g>
								</g>
							</g>
						</g>
						<g id="&lt;Group&gt;">
							<g id="&lt;Group&gt;">
								<g id="&lt;Group&gt;">
									<g id="&lt;Group&gt;">
										<path id="&lt;Path&gt;" class="s2" d="m488.5 151.2c0 0 6.4 1.3 4.7 8.5-1.6 7.3-1.1 8.6 0.4 12.7 1.6 4.1-1.3 8-2.6 7.7-1.3-0.2-17.4-29.8-2.5-28.9z"/>
									</g>
								</g>
							</g>
						</g>
						<g id="&lt;Group&gt;">
							<g id="&lt;Group&gt;">
								<g id="&lt;Group&gt;">
									<g id="&lt;Group&gt;">
										<path id="&lt;Path&gt;" class="s6" d="m496.5 201.3c0 0 2.8 19-17 21.8-19.6 2.8-35.1-10.7-35.9-11.4q-0.1 0-0.1 0l-0.7-3.9-4.1-20.6-2.2-10.9c0 0-5.3-19.6 13.1-25.9 13.4-4.7 26.7-4.2 34.3 2.1q0.4 0.3 0.7 0.6c2.4 2.2 4.2 5.1 5 8.7l3.5 19.8 0.8 4.9z"/>
									</g>
								</g>
							</g>
						</g>
						<g id="&lt;Group&gt;">
							<g id="&lt;Group&gt;">
								<g id="&lt;Group&gt;">
									<g id="&lt;Group&gt;">
										<path id="&lt;Path&gt;" class="s2" d="m454.6 171.9c1.3 2 4.1 2.7 6.2 1.4 1.2-0.7 2.7-1.5 4.2-2.1 2.3-0.8 3.3-3.3 2.4-5.5 0 0-9.3 0.4-12.8 6.2z"/>
									</g>
								</g>
							</g>
						</g>
						<g id="&lt;Group&gt;">
							<g id="&lt;Group&gt;">
								<g id="&lt;Group&gt;">
									<g id="&lt;Group&gt;">
										<path id="&lt;Path&gt;" class="s2" d="m490.3 166.8c-0.7 2.3-3.1 3.7-5.5 3.1-1.4-0.4-3-0.7-4.7-0.9-2.4-0.1-4.1-2.2-3.8-4.6 0 0 9.1-2.2 14 2.4z"/>
									</g>
								</g>
							</g>
						</g>
						<g id="&lt;Group&gt;">
							<g id="&lt;Group&gt;">
								<g id="&lt;Group&gt;">
									<g id="&lt;Group&gt;">
										<path id="&lt;Path&gt;" class="s2" d="m484.6 153.1c-3.3-0.7-5.3 0.7-9.9 3.5-6.5 4-14.7 2.4-22.1-0.1-7.4-2.6-10.8 2.9-8 5.8 2.8 2.9 2.9 5.5 0.9 10-2 4.5 5.8 5.3 2.1 9.1-1.6 1.6-1.2 3.6-0.2 5.4 1.1 1.9-0.4 4.3-2.7 4.2-2.3-0.2-6-3.8-6-3.8l-2.2-10.9c0 0-5.3-19.6 13.1-25.9 13.4-4.7 26.7-4.2 34.3 2.1q0.4 0.3 0.7 0.6z"/>
									</g>
								</g>
							</g>
						</g>
						<g id="&lt;Group&gt;">
							<g id="&lt;Group&gt;">
								<g id="&lt;Group&gt;">
									<g id="&lt;Group&gt;">
										<g id="&lt;Group&gt;">
											<path id="&lt;Path&gt;" class="s2" d="m467.8 180c0.3 1.9-0.4 3.5-1.4 3.7-1.1 0.1-2.2-1.3-2.5-3.2-0.2-1.9 0.4-3.5 1.5-3.7 1-0.2 2.1 1.3 2.4 3.2z"/>
										</g>
									</g>
								</g>
							</g>
							<g id="&lt;Group&gt;">
								<g id="&lt;Group&gt;">
									<g id="&lt;Group&gt;">
										<g id="&lt;Group&gt;">
											<path id="&lt;Path&gt;" class="s2" d="m486.6 177.3c0.2 1.9-0.4 3.5-1.5 3.7-1 0.1-2.1-1.3-2.4-3.2-0.3-1.9 0.4-3.5 1.4-3.7 1.1-0.1 2.2 1.3 2.5 3.2z"/>
										</g>
									</g>
								</g>
							</g>
						</g>
						<g id="&lt;Group&gt;">
							<g id="&lt;Group&gt;">
								<g id="&lt;Group&gt;">
									<g id="&lt;Group&gt;">
										<path id="&lt;Path&gt;" class="s10" d="m448.6 203.2c0 0.2-1.7 6.3-5 8.5q-0.1 0-0.1 0l-0.7-3.9c0 0 3-1 5.8-4.6z"/>
									</g>
								</g>
							</g>
						</g>
						<g id="&lt;Group&gt;">
							<g id="&lt;Group&gt;">
								<g id="&lt;Group&gt;">
									<g id="&lt;Group&gt;">
										<path id="&lt;Path&gt;" class="s6" d="m443.3 190.5c0 0-9.1-9.1-13.5-0.3-3.6 7.2 7.5 23.2 15.7 16z"/>
									</g>
								</g>
							</g>
						</g>
						<g id="&lt;Group&gt;">
							<path id="&lt;Path&gt;" class="s11" d="m474.7 171.2l6.8 11.7c0.4 0.8 0.3 1.7-0.3 2.3-0.9 0.9-2.4 2-4.8 2.4"/>
							<path id="&lt;Path&gt;" class="s0" d="m468.2 191.6c3.9 7.4 15.4 11.6 19.4 1.6z"/>
							<path id="&lt;Path&gt;" class="s11" d="m434.6 192c7.5 2 9.1 7.1 9.9 10.2"/>
							<path id="&lt;Path&gt;" class="s11" d="m436.4 199c2.5-3.1 5.1-2.7 5.1-2.7"/>
						</g>
					</g>
					<g id="&lt;Group&gt;">
						<g id="&lt;Group&gt;">
							<g id="&lt;Group&gt;">
								<path id="&lt;Path&gt;" class="s0" d="m430.8 240.3l43.6 63.9 19.6-63.8c0 0-2.2-9.4-10.4-9.4-5 5-10.4 7.9-16.1 9.4 0 0-16-3.4-21.5-11.8 0 0-11.6 2.2-15.2 11.7z"/>
							</g>
						</g>
						<path id="&lt;Path&gt;" class="s2" d="m496.7 207.5c3.4 21.5-10.1 29.6-29 21.7-13.3-5.6-19.1-26-19.1-26 0 0 2.2-2.4 3.8-1 1.6 1.4 12.7 17.6 27.8 16.3 15.2-1.2 16.5-11 16.5-11z"/>
						<g id="&lt;Group&gt;">
							<g id="&lt;Group&gt;">
								<path id="&lt;Path&gt;" class="s2" d="m460 253.9l9.5 11.3 8.5-11.6-10.3-9.9z"/>
							</g>
						</g>
						<path id="&lt;Path&gt;" class="s12" d="m452.4 260.3l15.3-16.6 16.9 15.2"/>
						<g id="&lt;Group&gt;">
							<g id="&lt;Group&gt;">
								<path id="&lt;Path&gt;" class="s2" d="m465.3 260.3l-2.2 27.4 11.3 16.5 6.7-21.8-8.4-21.6z"/>
							</g>
						</g>
					</g>
				</g>
				<g id="&lt;Group&gt;">
					<g id="&lt;Group&gt;">
						<g id="&lt;Group&gt;">
							<g id="&lt;Group&gt;">
								<g id="&lt;Group&gt;">
									<g id="&lt;Group&gt;">
										<g id="&lt;Group&gt;">
											<path id="&lt;Path&gt;" class="s6" d="m296.5 243.7c0 0-10.7 14.1-23.5 10.9-10.4-2.6-14.4-16-15.6-21.1-0.2-1.2-0.4-1.9-0.4-1.9 0 0-0.7-0.3-1.7-0.9-2.4-1.3-6.4-4-6.5-7.8-0.1-5.5 10-3.8 10-3.8 0 0-2.3-6.3 0.3-8.6 2.6-2.3 8.9 0.3 8.9 0.3 0 0-4.3-7.6-0.2-10 6.1-3.8 9.6 5.7 9.9 6.3-0.1-0.7-7.2-30.3-1.9-29.4 4.7 0.7 12.2 25.2 14.2 31.9 0.3 1.1 0.4 1.7 0.4 1.7 0 0 0.4-0.1 1-0.1 2.9-0.3 11.5-0.7 13.9 5 2.8 6.9-8.8 27.5-8.8 27.5z"/>
										</g>
									</g>
								</g>
							</g>
						</g>
						<g id="&lt;Group&gt;">
							<path id="&lt;Path&gt;" class="s11" d="m289.1 212c0 0-9 4.9-5.2 9.8 3.9 4.9 11.8 3.7 11.8 3.7"/>
							<path id="&lt;Path&gt;" class="s11" d="m280.4 210.6c0 0 3.3 8.9 0.3 10.3-3.1 1.4-10.5-9.5-10.5-9.5"/>
							<path id="&lt;Path&gt;" class="s11" d="m275.3 218.1c3.5 5.8 0.3 12-13 0.1"/>
							<path id="&lt;Path&gt;" class="s11" d="m266.1 221.8c0 0 2.6 7.2-0.6 9.1-3.2 1.9-8.5-2.6-8.5-2.6"/>
							<path id="&lt;Path&gt;" class="s11" d="m279.8 223.4c4.2 10.7 1.3 18.2-4.3 20.5"/>
						</g>
					</g>
					<g id="&lt;Group&gt;">
						<g id="&lt;Group&gt;">
							<path id="&lt;Path&gt;" class="s3" d="m437.8 279.7l-1.3 2.2q-0.6 0.9-1.2 1.7-0.6 0.9-1.1 1.7-0.6 0.8-1.2 1.6c-1.5 2.2-3.1 4.3-4.7 6.3-3.2 4.2-6.6 8-10.1 11.8-7 7.6-14.7 14.6-22.9 21l-3.1 2.4q-1.6 1.2-3.2 2.3c-1.1 0.8-2.1 1.5-3.2 2.3l-3.3 2.2c-4.5 2.8-9 5.5-13.7 8-4.7 2.5-9.6 4.7-14.5 6.8-5 1.9-10 3.8-15.2 5.3q-1.9 0.6-3.9 1.1l-3.9 1-2 0.5-0.5 0.1-0.6 0.1-0.6 0.1q-1.4 0.3-2.7 0.5c-3.7 0.3-7.5 0.2-11.1-0.6-0.8-0.2-1.7-0.4-2.5-0.7q-0.7-0.1-1.3-0.3-0.6-0.2-1.2-0.5-1.1-0.4-2.3-0.9-1-0.5-2.1-1c-0.3-0.2-0.7-0.4-1-0.6l-0.9-0.5c-0.6-0.4-1.2-0.8-1.8-1.2q-0.8-0.5-1.6-1.1-0.4-0.3-0.8-0.6l-0.7-0.6c-3.8-3.1-6.4-6.2-8.6-9.1-2.1-2.9-3.9-5.7-5.4-8.4-1.5-2.7-2.8-5.3-3.9-7.9-2.3-5.1-4.2-10.1-5.8-15q-1.2-3.7-2.3-7.3-1-3.7-1.9-7.3c-1.3-4.8-2.3-9.6-3.3-14.4q-1.4-7.2-2.5-14.4-0.6-3.6-1-7.2l-0.5-3.7-0.2-1.8-0.2-2 40.7-6.5 1.6 6.2q0.8 3.1 1.7 6.3 1.7 6.3 3.6 12.5 1.8 6.3 3.8 12.3c1.3 4 2.7 8 4.2 11.7 1.5 3.8 3 7.4 4.6 10.5 0.8 1.6 1.7 3.1 2.5 4.4 0.7 1.3 1.5 2.4 2.1 3.2 0.6 0.7 1.1 1.1 0.9 0.9q0-0.1 0-0.1h-0.1q-0.1-0.1-0.2-0.2c-0.1-0.1-0.3-0.2-0.4-0.2q-0.1-0.1-0.2-0.1c0 0-0.1-0.1-0.2-0.2q-0.3-0.1-0.5-0.2-0.4-0.2-0.7-0.3l-0.4-0.1q-0.2-0.1-0.4-0.2c-0.3-0.1-0.6-0.1-0.9-0.2-1.3-0.3-2.9-0.4-4.2-0.2q-0.5 0-1 0.1h-0.2l-0.1 0.1h-0.1q0 0 0 0l0.3-0.1 1.4-0.4 2.8-0.7q1.4-0.4 2.7-0.8c3.7-1.1 7.3-2.4 10.9-3.8 3.5-1.5 7.1-3 10.5-4.8 1.8-0.9 3.5-1.9 5.2-2.8 0.9-0.5 1.7-1 2.6-1.5 0.8-0.5 1.7-0.9 2.5-1.5 3.4-2 6.6-4.3 9.9-6.6 1.6-1.2 3.2-2.3 4.8-3.6 1.6-1.2 3.1-2.5 4.7-3.8 3.1-2.5 6.1-5.3 9-8 3-2.8 5.8-5.7 8.5-8.6q2.1-2.3 4-4.5 0.4-0.5 0.9-1.1 0.5-0.5 0.9-1.1l0.9-1 0.4-0.5 0.1-0.2 0.1-0.1c0 0 0 0 0 0v0.1z"/>
						</g>
					</g>
				</g>
			</g>
			<g id="&lt;Group&gt;">
				<path id="&lt;Path&gt;" class="s13" d="m419.6 244.4l53.7 71.4c1.3 1.7 3.9 1.3 4.6-0.7l23.3-67.7"/>
				<path id="&lt;Path&gt;" class="s13" d="m494.2 328.5c-20.9 19.3-55 1.1-60.6-11.2"/>
				<path id="&lt;Path&gt;" class="s13" d="m417.3 308.7c0 0-22.2 18.5-28.5 22.5"/>
				<path id="&lt;Path&gt;" class="s13" d="m325.3 310.7c-9 14.8-13 21-13 21"/>
				<path id="&lt;Path&gt;" class="s13" d="m267.1 273.6c19-6.8 38.6-7.7 38.6-7.7"/>
				<path id="&lt;Path&gt;" class="s13" d="m274.6 250.6c2.1 9.9 4 18.7 4 18.7"/>
				<path id="&lt;Path&gt;" class="s14" d="m288.9 258.3c0 1.6-1.3 2.9-2.8 2.9-1.6 0-2.9-1.3-2.9-2.9 0-1.5 1.3-2.8 2.9-2.8 1.5 0 2.8 1.3 2.8 2.8z"/>
				<path id="&lt;Path&gt;" class="s13" d="m433.9 397.9c44 42.1 81.8 25.9 81.8 25.9"/>
				<path id="&lt;Path&gt;" class="s13" d="m570.9 376.5c7.8-14.2 15-19.9 15-19.9"/>
				<path id="&lt;Path&gt;" class="s13" d="m626.9 331.2c5.1 26.7 34.2 24.1 34.2 24.1"/>
				<path id="&lt;Path&gt;" class="s13" d="m654.7 342.2c-5.5 7.5-11.4 10.1-11.4 10.1"/>
				<path id="&lt;Path&gt;" class="s14" d="m642.2 337.3c0 1.6-1.3 2.9-2.8 2.9-1.6 0-2.9-1.3-2.9-2.9 0-1.5 1.3-2.8 2.9-2.8 1.5 0 2.8 1.3 2.8 2.8z"/>
				<path id="&lt;Path&gt;" class="s13" d="m524.5 282.2c0 31.1 0 61.7 0 61.7"/>
			</g>
			<g id="&lt;Group&gt;">
				<path id="&lt;Path&gt;" class="s8" d="m454.6 148.9c8.4 15 42.1 16.8 42.1 16.8 0 0 4.6-7.9 0-10.1 0 0 5.5-6 0-10.5 0 0-0.9-7.4-10.1-10.5-9.1-3.2-21.1-3.9-24.2-1.8-3.1 2.1-7.8 16.1-7.8 16.1z"/>
				<path id="&lt;Path&gt;" class="s8" d="m468.3 132.5c22 34.3-42.5 63.6-42.5 63.6 0 0-6.3-7-4.1-12.4 0 0-7.6-7.4-3.7-12.5 3.8-5.1 1.6-1.2 1.6-1.2 0 0-7.7-12 2.1-18.8 0 0-0.7-10.3 14.9-18.7 15.6-8.4 31.7 0 31.7 0z"/>
				<path id="&lt;Path&gt;" class="s15" d="m421.7 183.7c21.1-10.9 30.7-21.3 30.7-21.3"/>
				<path id="&lt;Path&gt;" class="s15" d="m419.6 170c16.5-9.2 25.9-18.8 25.9-18.8"/>
				<path id="&lt;Path&gt;" class="s15" d="m421.7 151.2c17.5-4.7 30.7-16.7 30.7-16.7"/>
				<path id="&lt;Path&gt;" class="s15" d="m469.5 134.5c11.6 17.3-2.3 29.4-2.3 29.4"/>
				<path id="&lt;Path&gt;" class="s16" d="m481.6 151.2c7.6 3.8 15.1 4.4 15.1 4.4"/>
				<path id="&lt;Path&gt;" class="s16" d="m484.6 142.8c6.2 1.8 12.1 2.3 12.1 2.3"/>
			</g>
		</g>
		<g id="&lt;Group&gt;">
			<g id="&lt;Group&gt;">
				<g id="&lt;Group&gt;">
					<path id="&lt;Path&gt;" class="s0" d="m800.7 437.3c-2.7 43.3-16.6 85.6-38.6 122.8-23.8 33.7-98.8 40.8-137.7 47.8l-6.9-40.3c34.7-9.2 73.1-15.3 103.8-34.2q0 0 0 0c-0.6 0.4-1.2 1.4-1.5 1.8 0.1-0.2 0.5-1 0.6-1.2 13.4-26.1 22.3-54.6 26.1-83.7 1.1-8.2 8.2-14.2 16.4-14z"/>
				</g>
			</g>
			<g id="&lt;Group&gt;">
				<g id="&lt;Group&gt;">
					<g id="&lt;Group&gt;">
						<g id="&lt;Group&gt;">
							<g id="&lt;Group&gt;">
								<g id="&lt;Group&gt;">
									<path id="&lt;Path&gt;" class="s17" d="m612.3 854.6l-12.9 21.1-24.7-10.9 11.2-22.7z"/>
								</g>
							</g>
							<g id="&lt;Group&gt;">
								<g id="&lt;Group&gt;">
									<g id="&lt;Group&gt;">
										<g id="&lt;Group&gt;">
											<path id="&lt;Path&gt;" class="s3" d="m496.5 876.8l93.4 41.3c1.2-0.9 2.4-2.5 3.5-4.6 4.1-7.6 7.2-21.4 9.4-29.8q0.4-1.5 0.8-2.8c0.4-1.4 0.8-2.5 1.2-3.4 2.8-6.4-3.4-7.9-3.4-7.9-13.5 5.1-18.1-13.5-26.4-11.7 0 0-3.5 0.7-13.9 4.1-10.3 3.4-24.9 2.2-37.6 2-16.4-0.4-22.9 3.7-25.4 7.3-2 2.9-1.6 5.5-1.6 5.5z"/>
										</g>
									</g>
								</g>
								<g id="&lt;Group&gt;">
									<g id="&lt;Group&gt;">
										<g id="&lt;Group&gt;">
											<path id="&lt;Path&gt;" class="s18" d="m496.5 876.8l93.4 41.3c1.2-0.9 2.4-2.5 3.5-4.6l-95.3-42.2c-2 2.9-1.6 5.5-1.6 5.5z"/>
										</g>
									</g>
								</g>
								<g id="&lt;Group&gt;">
									<g id="&lt;Group&gt;">
										<g id="&lt;Group&gt;">
											<g id="&lt;Group&gt;">
												<path id="&lt;Path&gt;" class="s18" d="m580.4 913.9l2.7 1.3c-1.3-4.4-1.8-10.4 1.6-17.2 4.6-9 12.9-12.8 18.1-14.3q0.4-1.5 0.8-2.8c-5.5 1.3-15.6 5.2-21 16-3.3 6.5-3.3 12.4-2.2 17z"/>
											</g>
										</g>
									</g>
								</g>
								<g id="&lt;Group&gt;">
									<g id="&lt;Group&gt;">
										<g id="&lt;Group&gt;">
											<path id="&lt;Path&gt;" class="s18" d="m560.3 868.2c0.7 0.3 1.5 0.1 2-0.5 0.6-0.7 0.4-1.8-0.3-2.4l-5.2-4c-0.7-0.6-1.8-0.4-2.4 0.3-0.5 0.7-0.4 1.8 0.3 2.4l5.2 4q0.2 0.1 0.4 0.2z"/>
										</g>
									</g>
								</g>
								<g id="&lt;Group&gt;">
									<g id="&lt;Group&gt;">
										<g id="&lt;Group&gt;">
											<path id="&lt;Path&gt;" class="s18" d="m568.2 865.9c0.7 0.3 1.5 0.1 2-0.5 0.6-0.7 0.5-1.8-0.3-2.3l-5.2-4.1c-0.7-0.5-1.7-0.4-2.3 0.3-0.6 0.8-0.5 1.8 0.3 2.4l5.2 4q0.1 0.1 0.3 0.2z"/>
										</g>
									</g>
								</g>
								<g id="&lt;Group&gt;">
									<g id="&lt;Group&gt;">
										<g id="&lt;Group&gt;">
											<path id="&lt;Path&gt;" class="s18" d="m552.9 869c0.7 0.3 1.6 0.1 2.1-0.5 0.5-0.7 0.4-1.8-0.3-2.4l-5.2-4c-0.8-0.6-1.8-0.4-2.4 0.3-0.6 0.8-0.4 1.8 0.3 2.4l5.2 4q0.2 0.1 0.3 0.2z"/>
										</g>
									</g>
								</g>
								<g id="&lt;Group&gt;">
									<g id="&lt;Group&gt;">
										<g id="&lt;Group&gt;">
											<path id="&lt;Path&gt;" class="s18" d="m545.7 869.7c0.7 0.3 1.5 0.1 2-0.5 0.6-0.7 0.4-1.8-0.3-2.4l-5.2-4c-0.7-0.6-1.8-0.4-2.4 0.3-0.5 0.7-0.4 1.8 0.3 2.4l5.2 4q0.2 0.1 0.4 0.2z"/>
										</g>
									</g>
								</g>
								<g id="&lt;Group&gt;">
									<g id="&lt;Group&gt;">
										<g id="&lt;Group&gt;">
											<path id="&lt;Path&gt;" class="s18" d="m538 869.9c0.7 0.3 1.5 0.1 2-0.5 0.6-0.7 0.4-1.8-0.3-2.4l-5.2-4c-0.7-0.6-1.8-0.4-2.4 0.3-0.5 0.7-0.4 1.8 0.3 2.4l5.2 4q0.2 0.1 0.4 0.2z"/>
										</g>
									</g>
								</g>
								<g id="&lt;Group&gt;">
									<g id="&lt;Group&gt;">
										<g id="&lt;Group&gt;">
											<path id="&lt;Path&gt;" class="s18" d="m529.9 869.4c0.7 0.3 1.6 0.1 2.1-0.5 0.5-0.7 0.4-1.8-0.3-2.4l-5.2-4c-0.8-0.6-1.8-0.4-2.4 0.3-0.6 0.7-0.4 1.8 0.3 2.4l5.2 4q0.2 0.1 0.3 0.2z"/>
										</g>
									</g>
								</g>
							</g>
						</g>
						<g id="&lt;Group&gt;">
							<path id="&lt;Path&gt;" class="s19" d="m670.3 645c8.7-8.6 77-27.6 122.4-14.9 5.2 10 11.8 35.3-4.5 58.8-59.6 9.7-92.9 29.8-92.9 29.8 0 0-21.2 54.3-33.7 72.2-12.6 18-41.4 74.9-41.4 74.9l-43.4-18.5c0 0 69.9-179.1 93.5-202.3z"/>
						</g>
						<g id="&lt;Group&gt;" style="opacity: .5;mix-blend-mode: multiply">
							<path id="&lt;Path&gt;" class="s19" d="m670.3 645c8.7-8.6 77-27.6 122.4-14.9 5.2 10 11.8 35.3-4.5 58.8-59.6 9.7-92.9 29.8-92.9 29.8 0 0-21.2 54.3-33.7 72.2-12.6 18-41.4 74.9-41.4 74.9l-43.4-18.5c0 0 69.9-179.1 93.5-202.3z"/>
						</g>
						<path id="&lt;Path&gt;" class="s20" d="m694.5 687.9c-15.9 67-70.1 135.9-75.6 162.8"/>
						<path id="&lt;Path&gt;" class="s20" d="m585.1 838.7l39.3 16.3"/>
					</g>
					<g id="&lt;Group&gt;">
						<g id="&lt;Group&gt;">
							<g id="&lt;Group&gt;">
								<path id="&lt;Path&gt;" class="s17" d="m721.9 858.3l-3.2 24.6h-27l1-25.3z"/>
							</g>
						</g>
						<g id="&lt;Group&gt;">
							<g id="&lt;Group&gt;">
								<g id="&lt;Group&gt;">
									<g id="&lt;Group&gt;">
										<path id="&lt;Path&gt;" class="s3" d="m625.1 925.5h102.1c0.7-1.4 1.1-3.3 1.3-5.7 0.6-8.6-2.1-22.4-3.5-31.1q-0.2-1.5-0.4-2.8c-0.2-1.4-0.3-2.6-0.3-3.5 0-7.1-6.3-5.9-6.3-5.9-10.3 10.1-22-5.1-28.8-0.1 0 0-3 2.1-11.1 9.4-8.1 7.3-21.9 12.1-33.6 17-15.1 6.4-19.4 12.7-20.3 17-0.6 3.5 0.9 5.7 0.9 5.7z"/>
									</g>
								</g>
							</g>
							<g id="&lt;Group&gt;">
								<g id="&lt;Group&gt;">
									<g id="&lt;Group&gt;">
										<path id="&lt;Path&gt;" class="s18" d="m625.1 925.5h102.1c0.7-1.4 1.1-3.3 1.3-5.7h-104.3c-0.6 3.5 0.9 5.7 0.9 5.7z"/>
									</g>
								</g>
							</g>
							<g id="&lt;Group&gt;">
								<g id="&lt;Group&gt;">
									<g id="&lt;Group&gt;">
										<g id="&lt;Group&gt;">
											<path id="&lt;Path&gt;" class="s18" d="m716.7 925.5h3.1c-3.1-3.4-5.9-8.7-5.5-16.3 0.5-10.1 6.5-16.9 10.7-20.5q-0.2-1.5-0.4-2.8c-4.5 3.5-12.2 11.1-12.7 23.1-0.4 7.3 2 12.7 4.8 16.5z"/>
										</g>
									</g>
								</g>
							</g>
							<g id="&lt;Group&gt;">
								<g id="&lt;Group&gt;">
									<g id="&lt;Group&gt;">
										<path id="&lt;Path&gt;" class="s18" d="m679.9 891.8c0.7 0 1.4-0.5 1.6-1.2 0.2-0.9-0.3-1.9-1.2-2.1l-6.4-1.6c-0.9-0.2-1.8 0.4-2 1.3-0.3 0.9 0.3 1.8 1.2 2l6.4 1.6q0.2 0 0.4 0z"/>
									</g>
								</g>
							</g>
							<g id="&lt;Group&gt;">
								<g id="&lt;Group&gt;">
									<g id="&lt;Group&gt;">
										<path id="&lt;Path&gt;" class="s18" d="m686.2 886.5c0.8 0 1.4-0.5 1.6-1.2 0.3-0.9-0.3-1.9-1.2-2.1l-6.4-1.6c-0.9-0.2-1.8 0.4-2 1.3-0.2 0.9 0.3 1.8 1.2 2l6.4 1.6q0.2 0 0.4 0z"/>
									</g>
								</g>
							</g>
							<g id="&lt;Group&gt;">
								<g id="&lt;Group&gt;">
									<g id="&lt;Group&gt;">
										<path id="&lt;Path&gt;" class="s18" d="m673.5 895.5c0.7 0 1.4-0.5 1.6-1.2 0.2-0.9-0.3-1.8-1.2-2.1l-6.4-1.6c-0.9-0.2-1.8 0.4-2 1.3-0.2 0.9 0.3 1.8 1.2 2l6.4 1.6q0.2 0 0.4 0z"/>
									</g>
								</g>
							</g>
							<g id="&lt;Group&gt;">
								<g id="&lt;Group&gt;">
									<g id="&lt;Group&gt;">
										<path id="&lt;Path&gt;" class="s18" d="m667.1 899.1c0.8 0 1.5-0.5 1.6-1.3 0.3-0.9-0.3-1.8-1.2-2l-6.4-1.6c-0.9-0.2-1.8 0.3-2 1.2-0.2 0.9 0.3 1.9 1.2 2.1l6.4 1.6q0.2 0 0.4 0z"/>
									</g>
								</g>
							</g>
							<g id="&lt;Group&gt;">
								<g id="&lt;Group&gt;">
									<g id="&lt;Group&gt;">
										<path id="&lt;Path&gt;" class="s18" d="m660.2 902.4c0.7 0 1.4-0.5 1.6-1.3 0.2-0.9-0.3-1.8-1.2-2l-6.4-1.6c-0.9-0.2-1.8 0.3-2.1 1.2-0.2 0.9 0.4 1.8 1.3 2.1l6.4 1.6q0.2 0 0.4 0z"/>
									</g>
								</g>
							</g>
							<g id="&lt;Group&gt;">
								<g id="&lt;Group&gt;">
									<g id="&lt;Group&gt;">
										<path id="&lt;Path&gt;" class="s18" d="m652.6 905.2c0.8 0 1.5-0.5 1.6-1.3 0.3-0.9-0.3-1.8-1.2-2l-6.4-1.6c-0.9-0.2-1.8 0.3-2 1.2-0.2 0.9 0.3 1.9 1.2 2.1l6.4 1.6q0.2 0 0.4 0z"/>
									</g>
								</g>
							</g>
						</g>
					</g>
					<g id="&lt;Group&gt;">
						<g id="&lt;Group&gt;">
							<g id="&lt;Group&gt;">
								<g id="&lt;Group&gt;">
									<g id="&lt;Group&gt;">
										<g id="&lt;Group&gt;">
											<g id="&lt;Group&gt;">
												<path id="&lt;Path&gt;" class="s0" d="m771.3 654.6c32.8 20.8 98.1 22.4 144.3-11.9 2.7-16.3 1.9-72 0.5-88.6q-0.4-4.9-1-9.9c-1.9-15.7-5.1-31.4-8.9-47.7q-0.3-1.3-0.6-2.7c-3.2-13.4-6.9-27.2-10.6-41.9-7.4-29.2-20.6-45.5-38.2-45-8.2 0.2-14.9-0.8-20-2.1q-0.9-0.3-1.7-0.5c-6.1-1.8-9.7-3.8-9.7-3.8l-38.1 7.2c-2.4 5.4-6 9.2-10 12.1q-0.7 0.5-1.4 1c-12.4 8.4-28.4 10.2-28.6 27.1-0.1 10.6 11.7 30.3 18.9 73.1q0.8 4.8 1.5 9.9 0.6 4.7 1.2 9.9 0.6 4.8 1 9.8 0.4 4.5 0.7 9.2 0.3 4.8 0.5 9.9c0.8 18.3 1.8 60.9 0.2 84.9z"/>
											</g>
										</g>
									</g>
								</g>
							</g>
						</g>
						<path id="&lt;Path&gt;" class="s12" d="m750.1 468.4c23.1 65.9 22.8 123.2 22.8 123.2"/>
						<g id="&lt;Group&gt;">
							<g id="&lt;Group&gt;">
								<path id="&lt;Path&gt;" class="s5" d="m764.4 355.3c0 0-2.7-6.9-3.5-14.6-0.8-7.4 2.5-9.7 2.5-9.7 0 0-9.8-16.4 3.6-25.1 10.6-6.9 40.4-2.5 56.7 8.8 18.7 12.9 5.9 23.9 6.6 36.6 0.7 13.1-7.3 28.8-7.3 28.8 0 0-3.5 12.5-18.1 4.5-11.4-6.1-26.5-31-40.5-29.3z"/>
							</g>
							<g id="&lt;Group&gt;">
								<g id="&lt;Group&gt;">
									<g id="&lt;Group&gt;">
										<g id="&lt;Group&gt;">
											<g id="&lt;Group&gt;">
												<path id="&lt;Path&gt;" class="s17" d="m785.1 399.1l2.2 11.9q2 1.1 3.9 1.8c18.7 6.9 34.5-9 34.5-9l-6.3-33.6-29.8 27.4z"/>
											</g>
										</g>
									</g>
								</g>
								<g id="&lt;Group&gt;">
									<g id="&lt;Group&gt;">
										<g id="&lt;Group&gt;">
											<g id="&lt;Group&gt;">
												<path id="&lt;Path&gt;" class="s21" d="m785 398.8l2.3 12.2q2 1.1 3.9 1.8c13.3-8.4 20.9-25.4 20.9-25.4l-22.5 10.2z"/>
											</g>
										</g>
									</g>
								</g>
								<g id="&lt;Group&gt;">
									<path id="&lt;Path&gt;" class="s0" d="m823.8 394c0 0 11.7-0.3 17.2 12.1-8.8 13.6-16.7 25.5-32 31.4l-4.3-23.2c0 0 13.3-6.1 19.1-20.3z"/>
								</g>
								<g id="&lt;Group&gt;">
									<path id="&lt;Path&gt;" class="s0" d="m785.8 404.6c0 0-9.8 4.1-11.3 17.7 12.6 10.5 18.9 14.2 34.5 15.2l-4.3-23.2c0 0-8.4 1.4-18.9-9.7z"/>
								</g>
								<g id="&lt;Group&gt;">
									<g id="&lt;Group&gt;">
										<g id="&lt;Group&gt;">
											<path id="&lt;Path&gt;" class="s8" d="m813.7 582.6c7.2 10.9 13.1 17.3 20.2 28.3 4.6-15.2 14.5-20.7 19.1-35.9-12.9-43.7-26-87.9-38.9-131.7l-7.9 1.2c2.5 45.9 5 92.2 7.5 138.1z"/>
										</g>
										<g id="&lt;Group&gt;">
											<path id="&lt;Path&gt;" class="s4" d="m814.1 443.3l-2.8 6.6-5.1-5.4 0.3 5.4 5.5 3.7 3.3-6.3z"/>
										</g>
									</g>
									<g id="&lt;Group&gt;">
										<path id="&lt;Path&gt;" class="s8" d="m819.1 432.1l-7.7 17.9-13.3-14 7.8-15.2z"/>
									</g>
								</g>
							</g>
							<g id="&lt;Group&gt;">
								<g id="&lt;Group&gt;">
									<g id="&lt;Group&gt;">
										<g id="&lt;Group&gt;">
											<path id="&lt;Path&gt;" class="s21" d="m768.3 356.8c0 0-5.8-6.4-8.7 0.3-2.9 6.8-0.1 20.1 8.4 17.6z"/>
										</g>
									</g>
								</g>
							</g>
							<g id="&lt;Group&gt;">
								<g id="&lt;Group&gt;">
									<g id="&lt;Group&gt;">
										<g id="&lt;Group&gt;">
											<path id="&lt;Path&gt;" class="s17" d="m763.2 380.2c0 0 0.6 20.4 21.8 19.6 21.1-0.7 34.9-17.7 35.6-18.5q0 0 0 0l0.1-4.3 0.4-22.3 0.3-11.9c0 0 1.9-21.5-18.5-24.7-15-2.3-28.8 0.6-35.6 8.6q-0.3 0.4-0.6 0.8c-2.1 2.8-3.4 6.1-3.7 10.1l0.1 21.3v5.3z"/>
										</g>
									</g>
								</g>
							</g>
							<g id="&lt;Group&gt;">
								<g id="&lt;Group&gt;">
									<g id="&lt;Group&gt;">
										<g id="&lt;Group&gt;">
											<path id="&lt;Path&gt;" class="s2" d="m801.6 341.6c-1 2.4-3.7 3.6-6.2 2.6-1.4-0.5-3.1-1.1-4.8-1.4-2.5-0.4-4.1-2.9-3.5-5.3 0 0 9.8-1.3 14.5 4.1z"/>
										</g>
									</g>
								</g>
							</g>
							<g id="&lt;Group&gt;">
								<g id="&lt;Group&gt;">
									<g id="&lt;Group&gt;">
										<g id="&lt;Group&gt;">
											<path id="&lt;Path&gt;" class="s2" d="m763.3 342.9c1.1 2.3 4 3.3 6.3 2.2 1.4-0.7 3-1.3 4.8-1.7 2.4-0.7 3.9-3.2 3.1-5.6 0 0-9.9-0.6-14.2 5.1z"/>
										</g>
									</g>
								</g>
							</g>
							<g id="&lt;Group&gt;">
								<g id="&lt;Group&gt;">
									<g id="&lt;Group&gt;">
										<g id="&lt;Group&gt;">
											<path id="&lt;Path&gt;" class="s5" d="m811.9 355.9c-0.4 2.3 1.3 4.4 3.6 3.9 2.4-0.7 5.6-5.1 5.6-5.1l0.3-11.9c0 0 1.9-21.5-18.5-24.7-15-2.3-28.8 0.6-35.6 8.6q-0.3 0.4-0.6 0.8c3.3-1.3 5.7-0.3 11 1.8 7.6 3 15.3-1.5 23.1-4.2 6.6-2.3 10.8 3.4 8.4 6.9 0 0-2.8 3.6 0.4 10.7 3.1 7 3.2 8.1 2.3 13.2z"/>
										</g>
									</g>
								</g>
							</g>
							<g id="&lt;Group&gt;">
								<g id="&lt;Group&gt;">
									<g id="&lt;Group&gt;">
										<g id="&lt;Group&gt;">
											<path id="&lt;Path&gt;" class="s2" d="m789.3 352.5c0.1 2 1.1 3.6 2.2 3.6 1.1 0 2-1.7 1.9-3.7 0-2.1-1-3.7-2.1-3.7-1.2 0.1-2.1 1.8-2 3.8z"/>
										</g>
									</g>
								</g>
							</g>
							<g id="&lt;Group&gt;">
								<g id="&lt;Group&gt;">
									<g id="&lt;Group&gt;">
										<g id="&lt;Group&gt;">
											<path id="&lt;Path&gt;" class="s2" d="m768.8 353.2c0.1 2 1.1 3.6 2.2 3.6 1.2 0 2-1.7 2-3.8-0.1-2-1.1-3.6-2.2-3.6-1.2 0.1-2 1.8-2 3.8z"/>
										</g>
									</g>
								</g>
							</g>
							<g id="&lt;Group&gt;">
								<g id="&lt;Group&gt;">
									<g id="&lt;Group&gt;">
										<g id="&lt;Group&gt;">
											<path id="&lt;Path&gt;" class="s21" d="m813.7 373.2c0.1 0.3 3 6.4 6.9 8.1q0 0 0 0l0.1-4.3c0 0-3.4-0.5-7-3.8z"/>
										</g>
									</g>
								</g>
							</g>
							<g id="&lt;Group&gt;">
								<g id="&lt;Group&gt;">
									<g id="&lt;Group&gt;">
										<g id="&lt;Group&gt;">
											<path id="&lt;Path&gt;" class="s17" d="m816.9 359c0 0 7.8-11.3 14.1-2.9 5.1 7-3.5 25.7-13.5 19.7z"/>
										</g>
									</g>
								</g>
							</g>
							<g id="&lt;Group&gt;">
								<path id="&lt;Path&gt;" class="s22" d="m779.3 344.5l-4.7 14.1c-0.3 0.9 0.1 1.9 0.9 2.4 1.1 0.7 3 1.5 5.6 1.5"/>
								<path id="&lt;Path&gt;" class="s22" d="m770.4 370.9c8.4 2.6 13.4 2.3 20.4-5.9"/>
								<path id="&lt;Path&gt;" class="s22" d="m826.9 358c-7.6 3.7-8.2 9.6-8.4 13.1"/>
								<path id="&lt;Path&gt;" class="s22" d="m826.4 365.9c-3.3-2.8-5.9-1.8-5.9-1.8"/>
							</g>
						</g>
						<g id="&lt;Group&gt;">
							<g id="&lt;Group&gt;">
								<g id="&lt;Group&gt;">
									<g id="&lt;Group&gt;">
										<g id="&lt;Group&gt;">
											<g id="&lt;Group&gt;">
												<path id="&lt;Path&gt;" class="s0" d="m751.9 352.9l11.1 0.2 0.1 1.5q0 0-0.1 0l-11.1-0.2c-0.4 0-0.8-0.3-0.8-0.8 0-0.4 0.4-0.7 0.8-0.7z"/>
											</g>
										</g>
									</g>
								</g>
							</g>
							<g id="&lt;Group&gt;">
								<g id="&lt;Group&gt;">
									<g id="&lt;Group&gt;">
										<g id="&lt;Group&gt;">
											<g id="&lt;Group&gt;">
												<g id="&lt;Group&gt;">
													<path id="&lt;Compound Path&gt;" fill-rule="evenodd" class="s0" d="m780.5 352c-0.1-7.2 5.6-13.2 12.8-13.3 7.2-0.1 13.1 5.6 13.3 12.8 0.1 7.2-5.7 13.1-12.9 13.3-7.1 0.1-13.1-5.7-13.2-12.8zm1.5-0.1c0.1 6.4 5.4 11.4 11.7 11.3 6.4-0.1 11.4-5.3 11.3-11.7-0.1-6.3-5.3-11.4-11.7-11.3-6.3 0.1-11.4 5.4-11.3 11.7z"/>
												</g>
											</g>
										</g>
									</g>
								</g>
								<g id="&lt;Group&gt;">
									<g id="&lt;Group&gt;">
										<g id="&lt;Group&gt;">
											<g id="&lt;Group&gt;">
												<g id="&lt;Group&gt;">
													<path id="&lt;Compound Path&gt;" fill-rule="evenodd" class="s0" d="m749.7 352.5c-0.1-7.2 5.6-13.2 12.8-13.3 7.2-0.1 13.1 5.6 13.3 12.8 0.1 7.2-5.7 13.2-12.8 13.3-7.2 0.1-13.2-5.6-13.3-12.8zm1.5 0c0.1 6.3 5.4 11.4 11.7 11.3 6.4-0.2 11.4-5.4 11.3-11.7-0.1-6.4-5.3-11.4-11.7-11.3-6.3 0.1-11.4 5.3-11.3 11.7z"/>
												</g>
											</g>
										</g>
									</g>
								</g>
								<g id="&lt;Group&gt;">
									<g id="&lt;Group&gt;">
										<g id="&lt;Group&gt;">
											<g id="&lt;Group&gt;">
												<g id="&lt;Group&gt;">
													<path id="&lt;Path&gt;" class="s0" d="m821.9 354q0.2 0 0.3-0.1c0.4-0.1 0.6-0.6 0.4-1-3.5-8.9-17.1-4.1-17.3-4-0.4 0.1-0.6 0.6-0.4 1 0.1 0.4 0.6 0.6 1 0.4 0.1 0 12.3-4.4 15.3 3.2 0.1 0.3 0.4 0.5 0.7 0.5z"/>
												</g>
											</g>
										</g>
									</g>
								</g>
							</g>
						</g>
						<g id="&lt;Group&gt;">
							<g id="&lt;Group&gt;">
								<g id="&lt;Group&gt;">
									<g id="&lt;Group&gt;">
										<g id="&lt;Group&gt;">
											<path id="&lt;Path&gt;" class="s0" d="m775 352.8q0.3 0 0.5-0.2c2.2-2.1 5.4-0.2 5.5-0.2 0.3 0.3 0.8 0.2 1-0.2 0.2-0.4 0.1-0.8-0.2-1.1-1.5-0.9-4.9-1.9-7.3 0.4-0.3 0.3-0.4 0.8-0.1 1.1q0.3 0.2 0.6 0.2z"/>
										</g>
									</g>
								</g>
							</g>
						</g>
					</g>
					<g id="&lt;Group&gt;">
						<path id="&lt;Path&gt;" class="s19" d="m916.7 630.7c0 0 21.1 83.2-88.1 83.2-58.4 0-86.1-5.7-86.1-5.7 0 0-1.4 57-4.1 78.7-2.8 21.8-12.4 75.9-12.4 75.9l-45.9 3.6c0 0-7.4-194.1 20.8-211.4 28.1-17.4 68.6-17.9 138.2-24.6 0 0 62.4-10.6 77.6 0.3z"/>
					</g>
					<path id="&lt;Path&gt;" class="s20" d="m905.1 628.8c0 0 7.9 68-58.6 72.9-66.4 5-101-7-109.1-2.8-8.1 4.1-2.6 53.9-6.2 86.7-3.6 32.7-9.8 59.4-9.8 59.4"/>
					<path id="&lt;Path&gt;" class="s20" d="m680.5 849l44.5-2.7"/>
					<g id="&lt;Group&gt;">
						<g id="&lt;Group&gt;">
							<path id="&lt;Path&gt;" class="s17" d="m706 532.5c0 0-26.1-10.7-38-6.9l-3.7 19.9c0 0 18.2 1.3 22.1 3.9 3.8 2.7 3 10.8 19 13.5z"/>
						</g>
						<g id="&lt;Group&gt;">
							<path id="&lt;Path&gt;" class="s0" d="m882.1 426.5c0.4 47.8 0.3 89.1-32.3 124.8-33 29.4-103.1 19.5-145.1 18.6l1.6-40.8c32.8-0.2 83.9-3.4 106.8-10.5 22.2-27.1 31.5-63.2 31.7-97.8z"/>
						</g>
						<path id="&lt;Path&gt;" class="s12" d="m849.8 437.3c-3.4 35.3-36.7 81.3-36.7 81.3"/>
						<path id="&lt;Path&gt;" class="s12" d="m825.7 531c0 0-6.2-6.7-14.8-9.1l-84 7"/>
						<path id="&lt;Path&gt;" class="s12" d="m871.1 517.4c0 0-15.1 36-42.8 45.9-28.4 10-78.5 9.6-78.5 9.6"/>
						<path id="&lt;Path&gt;" class="s12" d="m722.4 528.9l-1.2 40.9"/>
						<path id="&lt;Path&gt;" class="s12" d="m714 548.7c-0.7 1.3-2.2 1.8-3.5 1.1-1.3-0.7-1.8-2.3-1.1-3.5 0.7-1.3 2.3-1.8 3.5-1.1 1.3 0.7 1.8 2.3 1.1 3.5z"/>
					</g>
					<g id="&lt;Group&gt;">
						<g id="&lt;Group&gt;">
							<path id="&lt;Path&gt;" class="s2" d="m769.9 575.3h-134.2c-1.2 0-2.3-1-2.3-2.3v-13.4c0-1.3 1.1-2.3 2.3-2.3h134.2c1.3 0 2.3 1 2.3 2.3v13.4c0 1.3-1 2.3-2.3 2.3z"/>
						</g>
						<g id="&lt;Group&gt;">
							<path id="&lt;Path&gt;" class="s23" d="m618.9 575.3c-5.2 0-9.8-3.5-11.1-8.5l-26-97.2c-1.5-6 2.9-11.8 9.1-11.8h62.1c4.2 0 7.9 2.8 9 6.8l31.1 110.7z"/>
						</g>
						<g id="&lt;Group&gt;">
							<path id="&lt;Path&gt;" class="s2" d="m662 464.6l30.9 109.8h7.1l-30.9-109.8c-1.1-4-4.8-6.8-9-6.8h-7.1c4.2 0 7.9 2.8 9 6.8z"/>
						</g>
						<g id="&lt;Group&gt;">
							<path id="&lt;Path&gt;" class="s5" d="m644.5 518.1c1.4 6.2-2.4 11.1-8.5 11.1-6.1 0-12.2-4.9-13.6-11.1-1.4-6.1 2.4-11 8.5-11 6.1 0 12.2 4.9 13.6 11z"/>
						</g>
					</g>
				</g>
				<g id="&lt;Group&gt;">
					<g id="&lt;Group&gt;">
						<path id="&lt;Path&gt;" class="s1" d="m912.1 830.1h-147.5c-3.5 0-6.3-2.8-6.3-6.2 0-3.5 2.8-6.3 6.3-6.3h147.5c3.5 0 6.3 2.8 6.3 6.3 0 3.4-2.8 6.2-6.3 6.2z"/>
					</g>
					<g id="&lt;Group&gt;">
						<path id="&lt;Path&gt;" class="s24" d="m751 925.6q-0.4 0-0.9-0.1c-3.4-0.5-5.8-3.6-5.3-7l26.9-200.7c0.4-3.1 3-5.4 6.2-5.4h120.3c3.2 0 5.8 2.3 6.2 5.4l26.5 200.7c0.4 3.4-2 6.5-5.4 7-3.4 0.5-6.5-2-7-5.4l-25.7-195.2h-109.5l-26.1 195.2c-0.4 3.2-3.1 5.5-6.2 5.5z"/>
					</g>
					<g id="&lt;Group&gt;">
						<path id="&lt;Path&gt;" class="s1" d="m812.7 718.6h78.2c24.8 0 51.3-13.5 55.1-38 5.1-32.7 6.3-64.4 4.9-93.5-1.6-32.9-17.3-63.5-43.1-83.9 0 0 11.5 126.3 4 162-7.5 35.7-99.1 53.4-99.1 53.4z"/>
					</g>
				</g>
				<path id="&lt;Path&gt;" class="s12" d="m805.6 421.3l21.6 19.7c0 0 10.9-15.3 13.8-34.3"/>
				<path id="&lt;Path&gt;" class="s12" d="m805.6 421.3l-11.5 25-19.6-24"/>
				<path id="&lt;Path&gt;" class="s12" d="m804.7 415.7l0.9 5.6"/>
				<path id="&lt;Path&gt;" class="s12" d="m767.8 473.8l26.5-6.1c0 0 12.2 31.4-6.6 35.5-18.9 4-19.9-29.4-19.9-29.4z"/>
			</g>
		</g>
		<g id="&lt;Group&gt;">
			<path id="&lt;Path&gt;" class="s5" d="m867 593.2h-745.7v-27.7h745.7z"/>
			<path id="&lt;Path&gt;" class="s5" d="m848.6 593.2h-708.9v21.7h708.9z"/>
			<path id="&lt;Path&gt;" class="s25" d="m848.6 593.2h-708.9v21.7h708.9z"/>
			<g id="&lt;Group&gt;">
				<g id="&lt;Group&gt;">
					<path id="&lt;Path&gt;" class="s5" d="m170.9 614.9l-26.6 310.7h13.3l46.1-310.7z"/>
					<path id="&lt;Path&gt;" class="s26" d="m203.7 615.8h-32.8v-1.8h32.8z"/>
				</g>
				<g id="&lt;Group&gt;">
					<path id="&lt;Path&gt;" class="s5" d="m817.4 614.9l26.6 310.7h-13.3l-46.1-310.7z"/>
					<path id="&lt;Path&gt;" class="s25" d="m817.4 615.8h-32.8v-1.8h32.8z"/>
				</g>
			</g>
		</g>
		<g id="&lt;Group&gt;">
			<g id="&lt;Group&gt;">
				<g id="&lt;Group&gt;">
					<g id="&lt;Group&gt;">
						<g id="&lt;Group&gt;">
							<path id="&lt;Path&gt;" class="s1" d="m298.7 828.3h-143.4c-3.3 0-6-2.7-6-6.1 0-3.3 2.7-6.1 6-6.1h143.4c3.3 0 6 2.8 6 6.1 0 3.4-2.7 6.1-6 6.1z"/>
						</g>
					</g>
					<g id="&lt;Group&gt;">
						<g id="&lt;Group&gt;">
							<path id="&lt;Path&gt;" class="s24" d="m311.8 921c-3 0-5.6-2.2-6-5.3l-25.4-189.6h-106.3l-25 189.6c-0.4 3.3-3.5 5.7-6.8 5.2-3.3-0.4-5.6-3.4-5.2-6.8l25.7-194.9c0.4-3 3-5.3 6-5.3h116.9c3.1 0 5.7 2.3 6.1 5.3l26.1 194.9c0.4 3.3-1.9 6.4-5.2 6.8q-0.5 0.1-0.9 0.1z"/>
						</g>
					</g>
					<g id="&lt;Group&gt;">
						<g id="&lt;Group&gt;">
							<path id="&lt;Path&gt;" class="s1" d="m251.9 720h-76c-24 0-49.8-13.2-53.5-36.9-4.9-31.8-6.1-62.6-4.8-90.9 1.6-31.9 16.8-61.7 42-81.5 0 0 15.1 66.1-3.9 157.4 7.2 34.7 96.2 51.9 96.2 51.9z"/>
						</g>
					</g>
				</g>
				<g id="&lt;Group&gt;">
					<g id="&lt;Group&gt;">
						<g id="&lt;Group&gt;">
							<g id="&lt;Group&gt;">
								<path id="&lt;Path&gt;" class="s8" d="m273.6 476.5l-0.1 1.2-0.1 1.5q0 1.6 0 3.3-0.1 3.3 0 6.7 0.1 6.7 0.6 13.6c0.6 9.1 1.8 18.2 3.4 27.2q1.3 6.8 2.8 13.5c1.1 4.4 2.2 8.9 3.5 13.2 0.3 1.1 0.6 2.2 1 3.3 0.3 1.1 0.6 2.2 1 3.3 0.7 2.1 1.4 4.3 2.2 6.4 0.4 1.1 0.8 2.2 1.2 3.2l1.2 3.2 0.3 0.8 0.2 0.4v0.1c0 0.1 0 0.1 0 0.1v-0.2c-0.2-0.2-0.2-0.3-0.3-0.5-0.1-0.1-0.1-0.2-0.2-0.2-0.2-0.3-0.1-0.1 0.1 0.1 0.5 0.6 1.6 1.7 2.9 2.7 1.3 1.1 2.9 2.2 4.6 3.3 3.4 2.2 7.3 4.4 11.3 6.5 4 2.1 8.2 4.1 12.5 6.1q6.4 2.9 13 5.7c8.9 3.7 17.9 7.2 27 10.6q6.8 2.5 13.7 5l6.8 2.3 3.5 1.2 3.3 1.2-9 31.5-3.8-1-3.7-1q-3.6-1-7.3-2-7.3-2-14.6-4.2c-9.7-3-19.4-6.1-29.1-9.6-9.6-3.5-19.3-7.3-29-11.8-4.9-2.3-9.8-4.7-14.8-7.7-2.6-1.5-5.1-3.1-7.7-5.1-2.7-1.9-5.4-4.1-8.3-7.1-1.5-1.6-3-3.3-4.5-5.7-0.4-0.5-0.8-1.2-1.1-1.8-0.4-0.7-0.8-1.4-1.1-2.2l-0.4-0.9-0.2-0.4-0.4-0.9-1.6-3.7c-0.6-1.3-1.1-2.5-1.6-3.8-1-2.4-1.9-4.9-2.9-7.5-0.5-1.2-0.9-2.5-1.3-3.7-0.5-1.3-0.9-2.6-1.4-3.8l-1.2-3.8q-0.6-2-1.2-3.9c-0.8-2.5-1.5-5.1-2.2-7.7-1.4-5.2-2.6-10.3-3.7-15.6-2.2-10.4-3.8-21-4.8-31.7q-0.7-8-0.9-16.1-0.1-4-0.1-8.1 0-2.1 0.1-4.2l0.1-2.2 0.1-1.2 0.1-1.3z"/>
							</g>
						</g>
						<g id="&lt;Group&gt;">
							<g id="&lt;Group&gt;">
								<g id="&lt;Group&gt;">
									<g id="&lt;Group&gt;">
										<path id="&lt;Path&gt;" class="s27" d="m360.6 651.1q-0.2 0-0.4-0.1c-0.6-0.2-1-0.8-0.8-1.5l11-36.9c0.2-0.7 0.8-1 1.5-0.8 0.6 0.1 1 0.8 0.8 1.5l-11 36.9c-0.1 0.5-0.6 0.9-1.1 0.9z"/>
									</g>
								</g>
								<g id="&lt;Group&gt;">
									<g id="&lt;Group&gt;">
										<path id="&lt;Path&gt;" class="s27" d="m381.1 646.1q-0.2 0-0.4-0.1l-16.9-5.3c-0.6-0.2-0.9-0.9-0.7-1.5 0.2-0.7 0.8-1 1.5-0.8l16.9 5.3c0.6 0.2 1 0.9 0.8 1.5-0.2 0.6-0.7 0.9-1.2 0.9z"/>
									</g>
								</g>
							</g>
							<g id="&lt;Group&gt;">
								<g id="&lt;Group&gt;">
									<path id="&lt;Path&gt;" class="s27" d="m378.2 632.9c0.4 1.5-0.6 3-2.1 3.3-1.6 0.3-3-0.6-3.4-2.2-0.3-1.5 0.7-3 2.2-3.3 1.5-0.3 3 0.7 3.3 2.2z"/>
								</g>
							</g>
						</g>
					</g>
					<g id="&lt;Group&gt;">
						<g id="&lt;Group&gt;">
							<g id="&lt;Group&gt;">
								<g id="&lt;Group&gt;">
									<g id="&lt;Group&gt;">
										<path id="&lt;Path&gt;" class="s2" d="m386.7 899c-4.5-7.3-45.2-46.2-45.2-46.2 0 0-8.3 6.6-7.9 13.7 0.4 6.8 0.2 42.8 0.3 46.5h4.9l2.8-16.4c0 0 11.2 18 19.7 24.1 8.4 6.2 36.9 5 43.7 4.1 6.8-0.9-13.8-18.5-18.3-25.8z"/>
									</g>
								</g>
							</g>
							<g id="&lt;Group&gt;">
								<g id="&lt;Group&gt;">
									<g id="&lt;Group&gt;">
										<path id="&lt;Path&gt;" class="s17" d="m336.6 835.1l5.4 16c0 0-2.2 5.2 0.1 13 2.2 7.7 10.9 20 19.1 29.1 7.1 7.9 22.4 15.7 26.9 13.6 4.6-2-8.7-17.7-12.5-25.9-3.9-8.2-5.5-16.1-6.8-23-1.4-7.1-2.2-24.4-2.2-24.4z"/>
									</g>
								</g>
							</g>
						</g>
						<g id="&lt;Group&gt;">
							<g id="&lt;Group&gt;">
								<g id="&lt;Group&gt;">
									<g id="&lt;Group&gt;">
										<g id="&lt;Group&gt;">
											<path id="&lt;Path&gt;" class="s2" d="m506.4 886.5c-6.9-5.2-58.9-26.7-58.9-26.7 0 0-5.4 9.1-2.4 15.6 2.8 6.2 15.6 39.8 17.1 43.3l4.6-1.8-3.4-16.3c0 0 17 12.7 27.1 15.3 10.1 2.7 36.2-8.7 42.3-12.1 6-3.3-19.6-12.2-26.4-17.3z"/>
										</g>
									</g>
								</g>
								<g id="&lt;Group&gt;">
									<g id="&lt;Group&gt;">
										<g id="&lt;Group&gt;">
											<path id="&lt;Path&gt;" class="s17" d="m436.5 845l10.8 13c0 0-0.2 5.7 4.7 12.1 5 6.4 17.5 14.7 28.5 20.2 9.5 4.7 26.5 6.5 30 2.9 3.5-3.6-14.5-13.4-21.1-19.6-6.6-6.2-11-13-14.7-19-3.8-6.1-10.9-21.9-10.9-21.9z"/>
										</g>
									</g>
								</g>
							</g>
							<g id="&lt;Group&gt;">
								<g id="&lt;Group&gt;">
									<path id="&lt;Path&gt;" class="s2" d="m390.2 648.5c-8.4-8.3-142.4-42.2-186.5-29.9-5 9.7 56.2 49.7 71.9 72.5 58 9.5 90.3 29 90.3 29 0 0 20.6 47.4 32.8 64.9 12.2 17.4 35.4 65.8 35.4 65.8l32.8-15.6c0 0-53.8-164.2-76.7-186.7z"/>
								</g>
							</g>
							<g id="&lt;Group&gt;">
								<g id="&lt;Group&gt;">
									<path id="&lt;Path&gt;" class="s5" d="m390.2 648.5c-8.4-8.3-142.4-42.2-186.5-29.9-5 9.7 56.2 49.7 71.9 72.5 58 9.5 90.3 29 90.3 29 0 0 20.6 47.4 32.8 64.9 12.2 17.4 35.4 65.8 35.4 65.8l32.8-15.6c0 0-53.8-164.2-76.7-186.7z"/>
								</g>
							</g>
							<g id="&lt;Group&gt;" style="opacity: .7;mix-blend-mode: multiply">
								<g id="&lt;Group&gt;">
									<path id="&lt;Path&gt;" class="s5" d="m390.2 648.5c-8.4-8.3-142.4-42.2-186.5-29.9-5 9.7 56.2 49.7 71.9 72.5 58 9.5 90.3 29 90.3 29 0 0 20.6 47.4 32.8 64.9 12.2 17.4 35.4 65.8 35.4 65.8l32.8-15.6c0 0-53.8-164.2-76.7-186.7z"/>
								</g>
							</g>
							<path id="&lt;Path&gt;" class="s28" d="m285.9 678.4c0 0 73.8 9.4 81.3 17.3 7.5 7.8 23.3 74.6 68.2 129.8"/>
							<path id="&lt;Path&gt;" class="s28" d="m427.1 829.7l32.4-12"/>
						</g>
						<g id="&lt;Group&gt;">
							<g id="&lt;Group&gt;">
								<path id="&lt;Path&gt;" class="s5" d="m156.8 607.7c0 0-45.7 100.4 79.7 107.7 56.6 3.3 83.6-5.5 83.6-5.5 0 0 1.4 50.1 4 71.2 2.6 21.1 10.5 58.7 10.5 58.7h33.9c0 0 13.6-154.2-13.8-171.1-27.3-16.9-74.8-29.6-142.3-36 0 0-45.7-20.2-55.6-25z"/>
							</g>
						</g>
						<path id="&lt;Path&gt;" class="s28" d="m161.8 617.4c-7.7 68.3 37.1 85.3 69.3 88.7 32.2 3.4 84.6-12.5 93.9-5.3 9.4 7.2-3.2 67.7 15 119.4"/>
						<path id="&lt;Path&gt;" class="s28" d="m331.4 820.9h35.8"/>
						<g id="&lt;Group&gt;">
							<g id="&lt;Group&gt;">
								<g id="&lt;Group&gt;">
									<path id="&lt;Path&gt;" class="s1" d="m248.5 657.7h130.2c1.3 0 2.3-1 2.3-2.3v-12.9c0-1.3-1-2.3-2.3-2.3h-130.2c-1.3 0-2.3 1-2.3 2.3v12.9c0 1.3 1 2.3 2.3 2.3z"/>
								</g>
							</g>
							<g id="&lt;Group&gt;">
								<g id="&lt;Group&gt;">
									<path id="&lt;Path&gt;" class="s0" d="m395.1 657.7c5.1 0 9.5-3.4 10.8-8.3l25.2-94.4c1.6-5.8-2.8-11.4-8.8-11.4h-60.3c-4.1 0-7.7 2.7-8.8 6.6l-30.2 107.5z"/>
								</g>
							</g>
							<g id="&lt;Group&gt;">
								<g id="&lt;Group&gt;">
									<path id="&lt;Path&gt;" class="s1" d="m353.2 550.2l-29.9 106.7h-6.9l29.9-106.7c1.1-3.9 4.7-6.6 8.8-6.6h6.9c-4.1 0-7.7 2.7-8.8 6.6z"/>
								</g>
							</g>
							<g id="&lt;Group&gt;">
								<g id="&lt;Group&gt;">
									<path id="&lt;Path&gt;" class="s1" d="m370.3 602.2c-1.4 5.9 2.3 10.7 8.2 10.7 5.9 0 11.9-4.8 13.2-10.7 1.4-5.9-2.3-10.7-8.2-10.7-5.9 0-11.9 4.8-13.2 10.7z"/>
								</g>
							</g>
						</g>
						<g id="&lt;Group&gt;">
							<g id="&lt;Group&gt;">
								<g id="&lt;Group&gt;">
									<g id="&lt;Group&gt;">
										<path id="&lt;Path&gt;" class="s8" d="m281.4 554.4q-0.1 0.1-0.2 0.3-0.9 1.8-2 3.4c-4.4 6.5-10.8 11.5-13.3 13.4-0.7 0.5-1.1 0.8-1.1 0.8q0 0 0 0.1-0.1 0.5-0.1 1.2c-0.2 1.5-0.3 3.4-0.2 5.5 0.5 24.3 1 28.4 1.1 38.7-39.1 38.1-106.1-3.9-108.8-10.1 1.2-24.2 1.2-24.2 2.2-47.8 0.4-11.3-0.8-28.7-3.6-46.4q-0.2-1-0.4-2.1c-0.8-5.1-1.8-10.3-2.9-15.4-4.8-21.9 0.8-39.8 14.2-45.8 4.6-2 17.7-3.3 23.4-3.4q2.3 0 4.4 0c8 0 14.2 0.4 14.2 0.4l37 7.5c3.5 1.1 6.7 2.2 9.6 3.3q3.7 1.4 6.7 2.9c17.9 8.9 16.7 19 16.6 37.5 0 5.3 0.5 10.6 1 15.7q0.4 2.4 0.7 4.8c2.1 15.1 5 28.4 1.5 35.5z"/>
									</g>
								</g>
							</g>
							<g id="&lt;Group&gt;">
								<g id="&lt;Group&gt;">
									<path id="&lt;Path&gt;" class="s0" d="m205.5 447c0 0-19-2.2-19.2 9-0.3 11.2 21 26.3 39.1 21.5 0 0-20.9-14.5-19.9-30.5z"/>
								</g>
							</g>
							<g id="&lt;Group&gt;">
								<g id="&lt;Group&gt;">
									<path id="&lt;Path&gt;" class="s0" d="m244.5 454.5c0 0 21.5 4 20.3 15.9-1.1 12-21.5 15.6-31.4 7.5 0 0 9.5-6.3 11.1-23.4z"/>
								</g>
							</g>
							<g id="&lt;Group&gt;">
								<g id="&lt;Group&gt;">
									<path id="&lt;Path&gt;" class="s17" d="m244.6 453l-1.3 13.3c-0.9 10.9-14 15.9-22 8.6-9.5-8.6-17.3-19.4-15.8-27.9z"/>
								</g>
							</g>
						</g>
						<g id="&lt;Group&gt;">
							<g id="&lt;Group&gt;">
								<g id="&lt;Group&gt;">
									<g id="&lt;Group&gt;">
										<path id="&lt;Path&gt;" class="s2" d="m214.8 354.2c4.4 12-1.9 25.4-13.9 29.8-5.7 2.1-11.7 1.8-16.9-0.3-5.9-2.4-10.7-7.2-13-13.6-4.4-12.1 1.8-25.4 13.9-29.8 10.8-4 22.6 0.6 28.2 10.2q1 1.7 1.7 3.7z"/>
									</g>
								</g>
								<g id="&lt;Group&gt;">
									<g id="&lt;Group&gt;">
										<path id="&lt;Path&gt;" class="s8" d="m214.8 354.2c4.4 12-1.9 25.4-13.9 29.8-5.7 2.1-11.7 1.8-16.9-0.3 2.4-9.6 9.6-28.2 29.1-33.2q1 1.7 1.7 3.7z"/>
									</g>
								</g>
							</g>
							<g id="&lt;Group&gt;">
								<g id="&lt;Group&gt;">
									<path id="&lt;Path&gt;" class="s2" d="m259.1 367.6c0 0 12.8 14.5 6.5 24.9l-10.5-22.9z"/>
								</g>
							</g>
							<g id="&lt;Group&gt;">
								<g id="&lt;Group&gt;">
									<path id="&lt;Path&gt;" class="s2" d="m241.8 353.7c0 0-30.3-12.3-48.6 15.8-18.5 28.7 3.3 72.9 28.9 68.7 0 0 24.7-50 19.7-84.5z"/>
								</g>
							</g>
							<g id="&lt;Group&gt;">
								<g id="&lt;Group&gt;">
									<g id="&lt;Group&gt;">
										<g id="&lt;Group&gt;">
											<g id="&lt;Group&gt;">
												<g id="&lt;Group&gt;">
													<path id="&lt;Path&gt;" class="s21" d="m260.2 398.3c0 0 4.1-7.9 8.7-2 4.6 5.9 5.2 19.8-3.8 19.5z"/>
												</g>
											</g>
										</g>
									</g>
								</g>
								<g id="&lt;Group&gt;">
									<g id="&lt;Group&gt;">
										<g id="&lt;Group&gt;">
											<g id="&lt;Group&gt;">
												<g id="&lt;Group&gt;">
													<g id="&lt;Group&gt;">
														<path id="&lt;Path&gt;" class="s17" d="m246.8 434.4l-2.7 23.2c0 0-13.5 14.1-38.6-10.6 6.6-5 9-16.6 8.2-24 0 0 2 1.2 5 3.9 0.6 0.5 1.4 0.9 2.1 1.4 6.6 4.4 16.7 5.1 26 6.1z"/>
													</g>
												</g>
											</g>
										</g>
									</g>
									<g id="&lt;Group&gt;">
										<g id="&lt;Group&gt;">
											<g id="&lt;Group&gt;">
												<g id="&lt;Group&gt;">
													<g id="&lt;Group&gt;">
														<path id="&lt;Path&gt;" class="s21" d="m246.8 434.4l-1.3 13.7c-7.5-3.3-20.7-10.2-26.8-21.2q1 0.7 2.1 1.4c6.6 4.4 16.7 5.1 26 6.1z"/>
													</g>
												</g>
											</g>
										</g>
									</g>
								</g>
								<g id="&lt;Group&gt;">
									<g id="&lt;Group&gt;">
										<g id="&lt;Group&gt;">
											<g id="&lt;Group&gt;">
												<g id="&lt;Group&gt;">
													<path id="&lt;Path&gt;" class="s17" d="m268.8 424.7c-9 20.7-49.6 8.7-50.9 8.3q0 0 0 0-0.9-2-1.8-4c-4.7-11.3-7.3-22.1-8.4-32.8-3-10.8 1.3-22.4 10.7-28.4 9.8-6.3 20.4-3.7 26.5-3.2 9.3 0.7 17.2 10.7 20.8 26.7 4.4 19.6 5.6 27.7 3.1 33.4z"/>
												</g>
											</g>
										</g>
									</g>
								</g>
								<g id="&lt;Group&gt;">
									<g id="&lt;Group&gt;">
										<g id="&lt;Group&gt;">
											<g id="&lt;Group&gt;">
												<g id="&lt;Group&gt;">
													<path id="&lt;Path&gt;" class="s2" d="m238.1 382.2c0 0 3.2-0.4 2.7 2.7-0.4 3.2-7.5 1.4-10.9 7.8 0 0-3.4-6.6 8.2-10.5z"/>
												</g>
											</g>
										</g>
									</g>
								</g>
								<g id="&lt;Group&gt;">
									<g id="&lt;Group&gt;">
										<g id="&lt;Group&gt;">
											<g id="&lt;Group&gt;">
												<g id="&lt;Group&gt;">
													<path id="&lt;Path&gt;" class="s2" d="m252.4 379c0 0-3.1 1-1.3 3.7 1.7 2.6 7.4-2 13.1 2.4 0 0 0.4-7.4-11.8-6.1z"/>
												</g>
											</g>
										</g>
									</g>
								</g>
								<g id="&lt;Group&gt;">
									<g id="&lt;Group&gt;">
										<g id="&lt;Group&gt;">
											<g id="&lt;Group&gt;">
												<g id="&lt;Group&gt;">
													<path id="&lt;Path&gt;" class="s21" d="m222.7 423.3c0 0.3-1.3 7.1-4.8 9.7q0 0 0 0 0 0 0 0-0.9-2-1.8-4c0.2 0 3.9-1.6 6.6-5.7z"/>
												</g>
											</g>
										</g>
									</g>
								</g>
								<g id="&lt;Group&gt;">
									<g id="&lt;Group&gt;">
										<g id="&lt;Group&gt;">
											<g id="&lt;Group&gt;">
												<g id="&lt;Group&gt;">
													<path id="&lt;Path&gt;" class="s17" d="m215.9 410.1c0 0-10.6-9.2-14.6 0.7-3.4 8.2 10 24.5 18.3 16.1z"/>
												</g>
											</g>
										</g>
									</g>
								</g>
								<g id="&lt;Group&gt;">
									<path id="&lt;Path&gt;" class="s22" d="m250.4 391.3l5.4 9.1c0.1 0.1 0 0.3-0.1 0.3-0.7 0.3-3.3 1.1-5 0.1"/>
									<path id="&lt;Path&gt;" class="s22" d="m262.2 408.7c-9.2 9.3-18 3.1-20.6 1.3"/>
									<path id="&lt;Path&gt;" class="s22" d="m205 412.3c8.3 0.4 11 7.6 12 10.1"/>
									<path id="&lt;Path&gt;" class="s22" d="m208.2 419.4c2.5-3.4 4.8-2.3 4.8-2.3"/>
								</g>
								<g id="&lt;Group&gt;">
									<g id="&lt;Group&gt;">
										<g id="&lt;Group&gt;">
											<g id="&lt;Group&gt;">
												<g id="&lt;Group&gt;">
													<path id="&lt;Path&gt;" class="s0" d="m217 427.6c0.3 1.4-0.6 2.8-2 3.1-1.4 0.3-2.8-0.6-3.1-2-0.3-1.4 0.6-2.7 2-3 1.4-0.4 2.8 0.5 3.1 1.9z"/>
												</g>
											</g>
										</g>
									</g>
								</g>
								<g id="&lt;Group&gt;">
									<g id="&lt;Group&gt;">
										<g id="&lt;Group&gt;">
											<g id="&lt;Group&gt;">
												<g id="&lt;Group&gt;">
													<g id="&lt;Group&gt;">
														<path id="&lt;Path&gt;" class="s2" d="m241.5 396.6c0.5 2.1-0.1 3.9-1.2 4.2-1.2 0.2-2.5-1.2-2.9-3.2-0.5-2.1 0.1-3.9 1.2-4.2 1.2-0.2 2.5 1.2 2.9 3.2z"/>
													</g>
												</g>
											</g>
										</g>
									</g>
									<g id="&lt;Group&gt;">
										<g id="&lt;Group&gt;">
											<g id="&lt;Group&gt;">
												<g id="&lt;Group&gt;">
													<g id="&lt;Group&gt;">
														<path id="&lt;Path&gt;" class="s2" d="m261.6 392.2c0.5 2-0.1 3.9-1.2 4.1-1.2 0.3-2.5-1.2-2.9-3.2-0.5-2 0.1-3.9 1.2-4.1 1.2-0.3 2.4 1.2 2.9 3.2z"/>
													</g>
												</g>
											</g>
										</g>
									</g>
								</g>
							</g>
							<g id="&lt;Group&gt;">
								<g id="&lt;Group&gt;">
									<g id="&lt;Group&gt;">
										<g id="&lt;Group&gt;">
											<g id="&lt;Group&gt;">
												<path id="&lt;Path&gt;" class="s2" d="m203.6 385.7c0 0 13.4 7.7 17.5 4.2 4.1-3.6-5.5-11.1-5.5-11.1 0 0 18.5 5.3 24.2 1 5.7-4.3-7.4-9.5-7.4-9.5 0 0 15.1 8.4 22.1 6.2 7-2.3-2.2-9.7-2.2-9.7 0 0 9.4 11.2 13.4 9.2 4.1-2.1-5.7-19-21.4-22-15.7-3-51.9 6.2-40.7 31.7z"/>
											</g>
										</g>
									</g>
								</g>
							</g>
							<g id="&lt;Group&gt;">
								<g id="&lt;Group&gt;">
									<g id="&lt;Group&gt;">
										<g id="&lt;Group&gt;">
											<g id="&lt;Group&gt;">
												<path id="&lt;Path&gt;" class="s2" d="m214.5 386.1c0 0 10.6 21.8 4.5 25.9-7.2 4.8-15.2-12.6-15.8-28.8z"/>
											</g>
										</g>
									</g>
								</g>
							</g>
						</g>
					</g>
					<g id="&lt;Group&gt;">
						<g id="&lt;Group&gt;">
							<g id="&lt;Group&gt;">
								<path id="&lt;Path&gt;" class="s17" d="m285.8 624.2c0 0 28.3-0.8 37.9 6.6l-5.3 18.9c0 0-15.6-4.6-20.1-3.5-4.4 1.1-6.3 8.8-21.9 5.9z"/>
							</g>
						</g>
						<g id="&lt;Group&gt;">
							<g id="&lt;Group&gt;">
								<path id="&lt;Path&gt;" class="s8" d="m194.3 477.3l-0.4 1-0.6 1.4q-0.5 1.4-1.1 3-1.1 3-2.1 6.2c-1.4 4.2-2.6 8.6-3.6 13-2 8.7-3.3 17.6-3.8 26.4q-0.2 3.3-0.2 6.7 0 3.3 0.1 6.5 0.1 3.3 0.4 6.6 0.3 3.2 0.8 6.5c0.3 2.1 0.7 4.2 1.1 6.4q0.6 3.1 1.4 6.3 0.8 3.1 1.8 6.2 0.5 1.5 1 3l0.2 0.4v0.2l-0.1-0.2c-0.1-0.2-0.1-0.4-0.2-0.5-0.1-0.3-0.2-0.4-0.3-0.4 0 0 0.1 0.2 0.4 0.6 0.3 0.4 0.8 0.8 1.3 1.4 1.2 1 2.6 2.2 4.2 3.4 3.3 2.4 7.1 4.8 11 7.1 8 4.6 16.7 8.9 25.6 13.1 8.8 4.1 17.9 8 27.1 11.8q6.9 2.8 13.8 5.6l7 2.6 3.4 1.4 3.4 1.3-10.1 31.1-3.8-1.1-3.8-1.1q-3.7-1.2-7.4-2.4-7.4-2.3-14.8-4.8c-9.8-3.4-19.6-7-29.3-10.9-9.8-3.9-19.5-8.2-29.3-13.3-5-2.6-9.9-5.4-15-8.8-2.5-1.7-5.1-3.6-7.8-5.9-1.3-1.2-2.7-2.5-4.1-4-1.4-1.4-2.9-3.2-4.4-5.3-0.7-1.1-1.5-2.3-2.2-3.7-0.3-0.7-0.7-1.4-1-2.2l-0.3-0.6-0.1-0.3-0.2-0.5q-0.8-2-1.5-4.1-1.6-4.1-2.8-8.3-1.3-4.2-2.3-8.5c-0.7-2.8-1.3-5.6-1.8-8.5-2-11.4-2.8-23-2.5-34.5 0.4-11.4 1.8-22.7 4.1-33.8q1.8-8.3 4.3-16.4 1.2-4.1 2.7-8.2 0.7-2.1 1.6-4.1 0.4-1.1 0.8-2.2l0.5-1.1 0.3-0.6 0.3-0.8z"/>
							</g>
						</g>
					</g>
					<g id="&lt;Group&gt;">
						<path id="&lt;Path&gt;" class="s16" d="m259.6 504.5c-13.9 21.8-35.4 4.7-53.5-14.8"/>
						<path id="&lt;Path&gt;" class="s16" d="m188 485.2c-8.6 46.6 4.1 90.3 4.1 90.3l69.9 40.1"/>
						<path id="&lt;Path&gt;" class="s16" d="m192.1 575.5c-14.3 0.7-16.9 9.8-16.9 9.8"/>
						<path id="&lt;Path&gt;" class="s16" d="m266.5 618.2l-10.2 30.4"/>
						<path id="&lt;Path&gt;" class="s16" d="m259.3 641.2l15.5 6.8"/>
						<path id="&lt;Path&gt;" class="s16" d="m273.1 514.7c-0.7 23 11.7 34.6 3.3 47.6-8.3 13.1-17.3 10.9-34.2 5.7"/>
						<path id="&lt;Path&gt;" class="s16" d="m264.8 572.3c1.7 14.5 1.1 29.9 1.1 29.9"/>
						<path id="&lt;Path&gt;" class="s16" d="m289.3 577.7c-9.6 6.8-13.6 13.8-13.6 13.8"/>
						<path id="&lt;Path&gt;" class="s4" d="m233.4 484.5c0 1.8-1.5 3.3-3.3 3.3-1.8 0-3.3-1.5-3.3-3.3 0-1.9 1.5-3.3 3.3-3.3 1.8 0 3.3 1.4 3.3 3.3z"/>
						<path id="&lt;Path&gt;" class="s4" d="m233.4 497.8c0 1.8-1.5 3.3-3.3 3.3-1.8 0-3.3-1.5-3.3-3.3 0-1.8 1.5-3.3 3.3-3.3 1.8 0 3.3 1.5 3.3 3.3z"/>
						<path id="&lt;Path&gt;" class="s4" d="m275.7 635.5c0 1.8-1.5 3.3-3.3 3.3-1.8 0-3.3-1.5-3.3-3.3 0-1.9 1.5-3.3 3.3-3.3 1.8 0 3.3 1.4 3.3 3.3z"/>
					</g>
				</g>
			</g>
			<g id="&lt;Group&gt;">
				<g id="&lt;Group&gt;">
					<g id="&lt;Group&gt;">
						<g id="&lt;Group&gt;">
							<path id="&lt;Path&gt;" class="s7" d="m271.2 804.3l-0.2 108.4c0 4.2-3.4 7.7-7.7 7.7l-176.4-0.2c-4.2 0-7.7-3.5-7.7-7.7l0.1-108.4c0-4.2 3.5-7.7 7.8-7.7l176.3 0.2c4.3 0 7.8 3.5 7.8 7.7z"/>
						</g>
					</g>
					<g id="&lt;Group&gt;">
						<g id="&lt;Group&gt;">
							<path id="&lt;Path&gt;" class="s7" d="m271.1 863.1l0.1-58.8c0-4.2-3.5-7.7-7.8-7.7l-176.3-0.2c-4.3 0-7.8 3.5-7.8 7.7v58.8z"/>
						</g>
					</g>
					<g id="&lt;Group&gt;" style="opacity: .5;mix-blend-mode: overlay">
						<g id="&lt;Group&gt;">
							<path id="&lt;Path&gt;" class="s0" d="m271.1 863.1l0.1-58.8c0-4.2-3.5-7.7-7.8-7.7l-176.3-0.2c-4.3 0-7.8 3.5-7.8 7.7v58.8z"/>
						</g>
					</g>
				</g>
				<g id="&lt;Group&gt;">
					<g id="&lt;Group&gt;">
						<g id="&lt;Group&gt;">
							<g id="&lt;Group&gt;">
								<path id="&lt;Path&gt;" class="s8" d="m202.5 779.3v17.2h-8.8l0.1-16.7h-8.5-0.4-5.2-0.6-22.3l-0.1 16.7h-8.7v-17.2c0.1-4.6 3.8-8.3 8.3-8.2h20.9 1.6 2.9 0.6 12c4.5 0 8.2 3.7 8.2 8.2z"/>
							</g>
						</g>
					</g>
				</g>
				<g id="&lt;Group&gt;">
					<g id="&lt;Group&gt;">
						<g id="&lt;Group&gt;">
							<g id="&lt;Group&gt;">
								<path id="&lt;Path&gt;" class="s5" d="m127.5 854.4v17.1c0 0.9-0.8 1.7-1.7 1.7h-8.8c-0.9 0-1.7-0.8-1.7-1.7v-17.2c0-0.9 0.8-1.6 1.7-1.6h8.8c0.9 0 1.7 0.7 1.7 1.7z"/>
							</g>
						</g>
						<g id="&lt;Group&gt;" style="mix-blend-mode: multiply">
							<g id="&lt;Group&gt;">
								<path id="&lt;Path&gt;" class="s5" d="m127.5 854.4v17.1c0 0.9-0.8 1.7-1.7 1.7h-8.8c-0.9 0-1.7-0.8-1.7-1.7v-17.2c0-0.9 0.8-1.6 1.7-1.6h8.8c0.9 0 1.7 0.7 1.7 1.7z"/>
							</g>
						</g>
						<g id="&lt;Group&gt;">
							<g id="&lt;Group&gt;">
								<path id="&lt;Path&gt;" class="s5" d="m127.5 854.4v8.5h-12.2v-8.6c0-0.9 0.8-1.6 1.7-1.6h8.8c0.9 0 1.7 0.7 1.7 1.7z"/>
							</g>
						</g>
					</g>
					<g id="&lt;Group&gt;">
						<g id="&lt;Group&gt;">
							<g id="&lt;Group&gt;">
								<path id="&lt;Path&gt;" class="s5" d="m235 854.5v17.1c0 1-0.7 1.7-1.7 1.7h-8.8c-0.9 0-1.7-0.7-1.7-1.7l0.1-17.1c0-1 0.7-1.7 1.6-1.7h8.9c0.9 0 1.6 0.7 1.6 1.7z"/>
							</g>
						</g>
						<g id="&lt;Group&gt;" style="mix-blend-mode: multiply">
							<g id="&lt;Group&gt;">
								<path id="&lt;Path&gt;" class="s5" d="m235 854.5v17.1c0 1-0.7 1.7-1.7 1.7h-8.8c-0.9 0-1.7-0.7-1.7-1.7l0.1-17.1c0-1 0.7-1.7 1.6-1.7h8.9c0.9 0 1.6 0.7 1.6 1.7z"/>
							</g>
						</g>
						<g id="&lt;Group&gt;">
							<g id="&lt;Group&gt;">
								<path id="&lt;Path&gt;" class="s5" d="m235 854.5v8.5h-12.1v-8.5c0-1 0.7-1.7 1.6-1.7h8.9c0.9 0 1.6 0.7 1.6 1.7z"/>
							</g>
						</g>
					</g>
				</g>
			</g>
		</g>
		<g id="&lt;Group&gt;">
			<g id="&lt;Group&gt;">
				<path id="&lt;Path&gt;" class="s2" d="m893.4 768.3h-12.9-1.1-12.9c0 0-23.8 102.4-19.9 117 4 14.6 18.4 37.1 18.4 37.1h14.4 1.1 14.4c0 0 14.4-22.5 18.4-37.1 4-14.6-19.9-117-19.9-117z"/>
				<path id="&lt;Path&gt;" class="s29" d="m899.2 797h-38.3v-1.1h38.3z"/>
				<path id="&lt;Path&gt;" class="s29" d="m901.2 808.3h-42.3v-1.1h42.3z"/>
				<path id="&lt;Path&gt;" class="s29" d="m913.3 885.9h-66.5v-1.2h66.5z"/>
			</g>
			<g id="&lt;Group&gt;">
				<path id="&lt;Path&gt;" class="s26" d="m880 768.3h0.9c-0.2-1.3-1.1-4.4-4.1-5.4l-0.3 0.9c2.5 0.7 3.3 3.3 3.5 4.5z"/>
				<path id="&lt;Path&gt;" class="s30" d="m842.8 762.3c0 0 12.1-9 6.6-13.7-12.8-10.7-46.1 25.9-45.2 29.8 0.9 3.8 41.2 11.1 48.1-7.4 4.5-11.3-9.5-8.7-9.5-8.7z"/>
				<path id="&lt;Path&gt;" class="s3" d="m842.8 762.3c0 0-10.1 0.8-38.6 16.1 0.9 3.8 41.2 11.1 48.1-7.4 4.5-11.3-9.5-8.7-9.5-8.7z"/>
				<path id="&lt;Path&gt;" class="s26" d="m871.8 768.3h1.1c-8.4-12-27.2-11-55.9 3l0.4 0.8c27.8-13.5 46.1-14.8 54.4-3.8z"/>
				<path id="&lt;Path&gt;" class="s30" d="m918.4 774.4c0 0-12-9.1-15-2.5-6.6 15.4 29 43.1 32.4 41.1 3.4-1.9 8-48.9-11.7-50.3-12.1-1-5.7 11.7-5.7 11.7z"/>
				<path id="&lt;Path&gt;" class="s3" d="m918.4 774.4c0 0-12-9.1-15-2.5-6.6 15.4 29 43.1 32.4 41.1-1-9-11.2-34.9-17.4-38.6z"/>
				<path id="&lt;Path&gt;" class="s3" d="m871.8 734.8c0 0 0.6 12.1-9.1 10.9-9.6-1.1-1.9-35.8-1.9-35.8 0 0 31.1 18.2 22.7 26.1-5.9 6.4-11.7-1.2-11.7-1.2z"/>
				<path id="&lt;Path&gt;" class="s30" d="m871.8 734.8l-11-24.9c0 0 31.1 18.2 22.7 26.1-5.9 6.4-11.7-1.2-11.7-1.2z"/>
				<path id="&lt;Path&gt;" class="s30" d="m892.8 745.4c8.5-11.1 23.4-17.7 40.6-23.5 0 0-8 27.1-18.6 30.9-10.3 2.9-22-7.4-22-7.4z"/>
				<path id="&lt;Path&gt;" class="s30" d="m856.2 735.1c0 0-15.1-17-26.2-25.2 0 0 2.1 20 8.8 25.2 6.8 4.6 17.4 0 17.4 0z"/>
				<path id="&lt;Path&gt;" class="s26" d="m888 752.1l-0.8-0.5c9.3-15.2 27.6-23.4 46.1-30.1l0.3 0.8c-31 11.2-40.2 20.9-45.6 29.8z"/>
				<path id="&lt;Path&gt;" class="s26" d="m882.2 768.3c0.7-4.6 2-9 3.9-12.9l-0.7-0.4c-2 4.1-3.4 8.5-4 13.3z"/>
				<path id="&lt;Path&gt;" class="s26" d="m879.5 768.3c-1.9-22.7-10.4-43-17.2-56l-0.8 0.4c6.8 13 15.2 33 17.1 55.6z"/>
				<path id="&lt;Path&gt;" class="s26" d="m899.5 761.3c-6.1-0.7-11.3 1.8-14.7 7h1.1c3.2-4.6 7.9-6.8 13.5-6.1 12.1 1.3 24.4 14.9 31.3 34.7l0.8-0.3c-6.9-20.1-19.5-33.9-32-35.3z"/>
				<path id="&lt;Path&gt;" class="s26" d="m876.5 768.3c-6.3-15.2-15.3-29.1-26.8-41.3l-0.6 0.6c11.3 12.1 20.2 25.7 26.5 40.7z"/>
				<path id="&lt;Path&gt;" class="s26" d="m845.3 723.8c-4.8-4.7-10-9.3-15.6-13.5l0.5-0.7c5.7 4.3 10.9 8.8 15.7 13.6z"/>
				<path id="&lt;Path&gt;" class="s30" d="m861.8 782.6c0 0 2.5-10-4-8.5-15 3.9-7.5 41.3-4.2 42.7 3.3 1.4 32.6-17.5 22.5-32.7-6-9.5-14.3-1.5-14.3-1.5z"/>
				<path id="&lt;Path&gt;" class="s3" d="m861.8 782.6c0 0-6.7 21.1-8.2 34.2 3.3 1.4 32.6-17.5 22.5-32.7-6-9.5-14.3-1.5-14.3-1.5z"/>
				<path id="&lt;Path&gt;" class="s26" d="m854.6 812.7l-0.8-0.1c0.3-2 8.4-46.9 20-49.9q1.7-0.2 3 0.2l-0.3 0.9q-1.1-0.4-2.5-0.2c-11 2.8-19.3 48.6-19.4 49.1z"/>
			</g>
		</g>
		<g id="&lt;Group&gt;">
			<path id="&lt;Path&gt;" class="s31" d="m719.1 128.1c0 38.8-31.4 70.2-70.1 70.2-38.7 0-70.1-31.4-70.1-70.2 0-38.7 31.4-70.1 70.1-70.1 38.7 0 70.1 31.4 70.1 70.1z"/>
			<path id="&lt;Path&gt;" class="s1" d="m706.8 128.1c0 31.9-25.9 57.8-57.8 57.8-31.9 0-57.8-25.9-57.8-57.8 0-31.9 25.9-57.8 57.8-57.8 31.9 0 57.8 25.9 57.8 57.8z"/>
			<g id="&lt;Group&gt;">
				<g id="&lt;Group&gt;">
					<path id="&lt;Path&gt;" class="s0" d="m649.7 82.4h-1.5v-7.7h1.5z"/>
					<path id="&lt;Path&gt;" class="s0" d="m649.7 181.6h-1.5v-7.8h1.5z"/>
				</g>
				<g id="&lt;Group&gt;">
					<path id="&lt;Path&gt;" class="s0" d="m702.4 128.9h-7.7v-1.5h7.7z"/>
					<path id="&lt;Path&gt;" class="s0" d="m603.3 128.9h-7.7v-1.5h7.7z"/>
				</g>
			</g>
			<g id="&lt;Group&gt;">
				<g id="&lt;Group&gt;">
					<path id="&lt;Path&gt;" class="s0" d="m609.2 105.6l-6.6-3.9 0.7-1.3 6.7 3.9z"/>
					<path id="&lt;Path&gt;" class="s0" d="m694.7 155.8l-6.7-3.9 0.8-1.3 6.6 3.9z"/>
				</g>
				<g id="&lt;Group&gt;">
					<path id="&lt;Path&gt;" class="s0" d="m672.8 89.1l-1.3-0.8 3.9-6.6 1.3 0.7z"/>
					<path id="&lt;Path&gt;" class="s0" d="m622.6 174.6l-1.3-0.8 3.9-6.7 1.3 0.8z"/>
				</g>
			</g>
			<g id="&lt;Group&gt;">
				<g id="&lt;Group&gt;">
					<path id="&lt;Path&gt;" class="s0" d="m688.3 104.8l-0.8-1.3 6.6-4.1 0.7 1.3z"/>
					<path id="&lt;Path&gt;" class="s0" d="m603.9 156.8l-0.8-1.2 6.6-4.1 0.8 1.3z"/>
				</g>
				<g id="&lt;Group&gt;">
					<path id="&lt;Path&gt;" class="s0" d="m624.4 89.6l-4.1-6.6 1.3-0.7 4 6.6z"/>
					<path id="&lt;Path&gt;" class="s0" d="m676.4 174l-4.1-6.6 1.3-0.8 4.1 6.6z"/>
				</g>
			</g>
			<path id="&lt;Path&gt;" class="s0" d="m656.6 136.9l-30.5-31.4 1-1 30.5 31.4z"/>
			<path id="&lt;Path&gt;" class="s32" d="m642.4 136.9l-1.1-1 38.9-46 1.2 1z"/>
			<path id="&lt;Path&gt;" class="s0" d="m654.1 128.1c0 2.9-2.3 5.2-5.1 5.2-2.8 0-5.2-2.3-5.2-5.2 0-2.8 2.4-5.1 5.2-5.1 2.8 0 5.1 2.3 5.1 5.1z"/>
		</g>
		<g id="&lt;Group&gt;">
			<g id="&lt;Group&gt;">
				<path id="&lt;Path&gt;" class="s0" d="m879.6 171.3c-1.7 0-3-1.3-3-3v-9c0-1.7 1.3-3 3-3 1.6 0 3 1.3 3 3v9c0 1.7-1.4 3-3 3z"/>
				<path id="&lt;Compound Path&gt;" fill-rule="evenodd" class="s0" d="m879.6 199.1c-8.8 0-15.8-7.1-15.8-15.8 0-4.1 1.5-8.1 4.4-11l0.2-0.2c0.8-0.8 2.2-2.2 2.2-4.9 0.1-1.3 0-3.6 0-3.6 0-2.5 2.1-4.6 4.6-4.6h8.7c2.5 0 4.6 2.1 4.6 4.6 0 0-0.1 2.3 0 3.6 0 2.7 1.4 4.1 2.2 4.9l0.2 0.2c2.9 2.9 4.5 6.9 4.5 11 0 8.7-7.1 15.7-15.8 15.8q0 0 0 0zm-7.9-35.5c0 0 0 2.3 0 3.6-0.1 3.2-1.7 4.7-2.5 5.6l-0.2 0.2c-2.7 2.8-4.2 6.4-4.2 10.3 0 8.1 6.6 14.7 14.7 14.7 8.2 0 14.8-6.6 14.8-14.7 0-3.9-1.5-7.5-4.2-10.3l-0.2-0.2c-0.8-0.9-2.4-2.4-2.5-5.6 0-1.3 0-3.6 0-3.6 0-1.9-1.6-3.5-3.5-3.5h-8.7c-1.9 0-3.5 1.6-3.5 3.5z"/>
				<path id="&lt;Path&gt;" class="s0" d="m879.6 180.3l-0.4-0.3q-3.8-2.9-8.1-2.6l-1.1 0.1 6.9-9.2 0.9 0.7-5.6 7.3q3.8 0.1 7.3 2.6c2-1.8 4.5-2.6 7.4-2.6l-5.5-7.3 0.8-0.7 6.9 9.2-1.1-0.1c-3.4-0.3-6 0.5-8.1 2.5z"/>
				<path id="&lt;Path&gt;" class="s0" d="m880.1 179.6h-1.1v-10.7h1.1z"/>
				<path id="&lt;Path&gt;" class="s0" d="m884.1 151.8h-9l-47.5 15.9h103.9z"/>
				<path id="&lt;Path&gt;" class="s0" d="m878.9 0v148.3h1.4v-148.3z"/>
				<path id="&lt;Path&gt;" class="s26" d="m887.6 151.8v-7c0-4.5-3.6-8.1-8-8.1-4.5 0-8.1 3.6-8.1 8.1v7z"/>
			</g>
		</g>
		<path id="&lt;Path&gt;" class="s33" d="m47.3 925.7h913.7"/>
	</g>
</svg>