<svg version="1.2" xmlns="http://www.w3.org/2000/svg" viewBox="0 0 1000 812" width="1000" height="812">
	<title>3828542-ai</title>
	<style>
		.s0 { fill: #ebebeb } 
		.s1 { fill: #e0e0e0 } 
		.s2 { fill: #f5f5f5 } 
		.s3 { fill: #fafafa } 
		.s4 { fill: #ffffff } 
		.s5 { fill: #f0f0f0 } 
		.s6 { fill: #263238 } 
		.s7 { fill: #ff8b7b } 
		.s8 { fill: #407bff } 
		.s9 { opacity: .2;fill: #000000 } 
		.s10 { opacity: .2;fill: #ffffff } 
		.s11 { fill: #ff5652 } 
		.s12 { opacity: .3;fill: #000000 } 
	</style>
	<g id="Background Complete">
		<g id="&lt;Group&gt;">
			<path id="&lt;Path&gt;" class="s0" d="m1000 713.3h-1000v-0.5h1000z"/>
			<path id="&lt;Path&gt;" class="s0" d="m223.3 730.1h-66.2v-0.5h66.2z"/>
			<path id="&lt;Path&gt;" class="s0" d="m327 744.5h-60.3v-0.5h60.3z"/>
			<path id="&lt;Path&gt;" class="s0" d="m190.2 748.6h-76.5v-0.5h76.5z"/>
			<path id="&lt;Path&gt;" class="s0" d="m899.8 747.6h-31.8v-0.5h31.8z"/>
			<path id="&lt;Path&gt;" class="s0" d="m861.6 747.6h-78.7v-0.5h78.7z"/>
			<path id="&lt;Path&gt;" class="s0" d="m560.7 729.8h-60.7v-0.5h60.7z"/>
			<path id="&lt;Path&gt;" class="s0" d="m713.5 729.8h-144.2v-0.5h144.2z"/>
			<path id="&lt;Compound Path&gt;" fill-rule="evenodd" class="s0" d="m474 623.6h-386.2c-6.3 0-11.4-5.1-11.4-11.4v-542.9c0-6.3 5.1-11.4 11.4-11.4h386.2c6.3 0 11.4 5.1 11.4 11.4v542.9c0 6.3-5.1 11.4-11.4 11.4zm-386.2-565.2c-6 0-10.9 4.9-10.9 10.9v542.9c0 6 4.9 10.9 10.9 10.9h386.2c6 0 10.9-4.9 10.9-10.9v-542.9c0-6-4.9-10.9-10.9-10.9z"/>
			<path id="&lt;Compound Path&gt;" fill-rule="evenodd" class="s0" d="m906.6 623.6h-386.2c-6.3 0-11.4-5.1-11.4-11.4v-542.9c0-6.3 5.1-11.4 11.4-11.4h386.2c6.3 0 11.4 5.1 11.4 11.4v542.9c0 6.3-5.1 11.4-11.4 11.4zm-386.2-565.2c-6 0-10.9 4.9-10.9 10.9v542.9c0 6 4.9 10.9 10.9 10.9h386.2c6 0 10.9-4.9 10.9-10.9v-542.9c0-6-4.9-10.9-10.9-10.9z"/>
		</g>
		<g id="&lt;Group&gt;">
			<g id="&lt;Group&gt;">
				<path id="&lt;Path&gt;" class="s0" d="m858.6 420.2l-30.7-30.6-282.4 282.3 30.7 30.7z"/>
				<path id="&lt;Path&gt;" class="s1" d="m723.9 554.9l-30.7-30.7-41.8 41.8 28.1 44.8z"/>
				<path id="&lt;Path&gt;" class="s1" d="m858.6 420.2l10.2 10.2-282.4 282.4-10.2-10.2z"/>
				<path id="&lt;Path&gt;" class="s0" d="m576.2 399.8l-30.7 30.6 282.4 282.4 30.7-30.7z"/>
				<path id="&lt;Path&gt;" class="s1" d="m576.2 399.8l10.2-10.2 282.4 282.3-10.2 10.2z"/>
			</g>
			<g id="&lt;Group&gt;">
				<path id="&lt;Path&gt;" class="s0" d="m352.4 485.1l-23.9-23.9-219.7 219.8 23.8 23.8z"/>
				<path id="&lt;Path&gt;" class="s1" d="m247.6 589.9l-23.9-23.8-32.5 32.5 21.9 34.8z"/>
				<path id="&lt;Path&gt;" class="s1" d="m352.4 485.1l7.9 7.9-219.7 219.8-8-8z"/>
				<path id="&lt;Path&gt;" class="s0" d="m132.6 469.2l-23.8 23.8 219.7 219.8 23.9-23.9z"/>
				<path id="&lt;Path&gt;" class="s1" d="m132.6 469.2l8-8 219.7 219.8-7.9 7.9z"/>
			</g>
			<g id="&lt;Group&gt;">
				<g id="&lt;Group&gt;">
					<path id="&lt;Path&gt;" class="s2" d="m637.7 498.2h-35.2v214.6h35.2z"/>
					<path id="&lt;Path&gt;" class="s0" d="m637.7 587.4h-35.2v25.7l35.2-7.6z"/>
					<path id="&lt;Path&gt;" class="s0" d="m637.7 498.2h11.8v214.6h-11.8z"/>
				</g>
				<g id="&lt;Group&gt;">
					<path id="&lt;Path&gt;" class="s2" d="m268.8 498.2h-35.2v214.6h35.2z"/>
					<path id="&lt;Path&gt;" class="s0" d="m268.8 587.4h-35.2v25.7l35.2-7.6z"/>
					<path id="&lt;Path&gt;" class="s0" d="m268.8 498.2h11.7v214.6h-11.7z"/>
				</g>
				<g id="&lt;Group&gt;">
					<path id="&lt;Path&gt;" class="s2" d="m656.2 529.7h-449.5v66h449.5z"/>
					<path id="&lt;Path&gt;" class="s0" d="m656.2 529.7h6.6v66h-6.6z"/>
				</g>
				<path id="&lt;Path&gt;" class="s3" d="m485.5 462.3h-87.9l-62.2 62.2v87.9l62.2 62.1h87.9l62.1-62.1v-87.9z"/>
				<path id="&lt;Path&gt;" class="s1" d="m481.4 472h-79.8l-56.5 56.5v79.8l56.5 56.5h79.8l56.5-56.5v-79.8z"/>
				<g id="&lt;Group&gt;">
					<path id="&lt;Compound Path&gt;" class="s4" d="m364.4 577.6l11.2-1q0.4 3.9 1.5 6 1.8 3.3 5.2 3.3 2.6 0 3.9-1.7 1.4-1.7 1.4-3.9 0-2.1-1.3-3.8-1.3-1.7-6.1-3.2-7.7-2.5-11-6.6-3.4-4.1-3.4-10.5 0-4.2 1.7-7.9 1.7-3.8 5.2-5.9 3.4-2.1 9.4-2.1 7.3 0 11.1 3.9 3.9 3.8 4.6 12.3l-11.1 0.9q-0.5-3.6-1.9-5.3-1.4-1.7-3.9-1.7-2.1 0-3.1 1.3-1.1 1.2-1.1 3 0 1.3 0.9 2.3 0.8 1.1 4 2 7.7 2.4 11.1 4.8 3.3 2.5 4.8 6.1 1.6 3.6 1.6 8 0 5.3-2.1 9.7-2 4.4-5.7 6.7-3.6 2.3-9.2 2.3-9.7 0-13.5-5.4-3.7-5.3-4.2-13.6z"/>
					<path id="&lt;Compound Path&gt;" class="s4" d="m402.3 541.2h35.9v13.5h-12v40.9h-11.8v-40.9h-12.1z"/>
					<path id="&lt;Compound Path&gt;" fill-rule="evenodd" class="s4" d="m440.3 568.5q0-13.4 5.2-20.8 5.2-7.4 14.5-7.4 9.6 0 14.7 7.3 5.2 7.3 5.2 20.4 0 9.6-2.3 15.7-2.2 6.1-6.5 9.5-4.2 3.4-10.6 3.4-6.5 0-10.7-3-4.2-2.9-6.9-9.2-2.6-6.4-2.6-15.9zm11.8 0q0 8.3 2.2 11.9 2.1 3.6 5.8 3.6 3.8 0 5.9-3.5 2.1-3.6 2.1-12.7 0-7.7-2.2-11.2-2.2-3.6-5.9-3.6-3.6 0-5.7 3.6-2.2 3.6-2.2 11.9z"/>
					<path id="&lt;Compound Path&gt;" fill-rule="evenodd" class="s4" d="m486.2 541.2h19.7q6.4 0 9.6 4.4 3.2 4.3 3.2 12.3 0 8.3-3.5 12.9-3.5 4.6-10.6 4.6h-6.5v20.2h-11.9zm11.9 23.3h2.9q3.4 0 4.8-1.7 1.4-1.7 1.4-4.4 0-2.5-1.2-4.3-1.2-1.8-4.5-1.8h-3.4z"/>
				</g>
			</g>
			<path id="&lt;Path&gt;" class="s5" d="m822.7 153.5q-3.1 0-6.2 0.7 0 0 0 0c-2.7-5.9-8.5-9.7-16.4-9.7-5.8 0-11.7 2.1-16.9 5.5-3.4-11.3-13.4-18.8-27.5-18.8-19.9 0-40.9 15.2-48.4 34.8q-2.7-0.7-5.7-0.7-0.9 0-1.8 0.1c-17.3 1.1-16 27.1 1.3 27.1h122.8c4.3 0 8.4-2 10.9-5.5 2.2-2.9 3.8-6.1 4.8-9.5 3.9-13.3-3.7-24-16.9-24z"/>
			<path id="&lt;Path&gt;" class="s5" d="m342.7 38.3c-2.7-17.8-16.8-30.2-37.5-30.2-17 0-34.5 8.3-47.5 21.1q0 0 0 0c-3.3-3.1-8-4.9-13.7-4.9-14.3 0-29.4 11.7-33.6 26-0.7 2.3-1 4.5-1.1 6.5q0 0.1 0 0.1-0.2 0.1-0.3 0.2c-11.9 8-5.9 26.7 8.4 26.7h126.5c4.9 0 9.5-2.3 12.2-6.5 2-3 3.5-6.3 4.5-9.7 4.6-15.3-3.4-27.9-17.9-29.3z"/>
			<path id="&lt;Path&gt;" class="s2" d="m493.8 236.6c-3.7-24.4-23.2-41.4-51.6-41.4-23.4 0-47.4 11.4-65.3 28.9q0 0.1 0 0.1c-4.6-4.3-11.1-6.8-18.8-6.8-19.8 0-40.5 16-46.3 35.8-0.9 3.1-1.4 6.1-1.5 8.9q0 0.1 0 0.1-0.2 0.1-0.4 0.2c-16.4 11.2-8.3 36.9 11.5 36.9h166.7c13.8 0 26.3-8.9 30.2-22.2q0.1-0.1 0.1-0.2c6.2-21-4.7-38.3-24.6-40.3z"/>
		</g>
	</g>
	<g id="Shadow">
		<path id="&lt;Path&gt; 371 " class="s2" d="m887.8 780.5c0 12.5-173.6 22.6-387.8 22.6-214.2 0-387.8-10.1-387.8-22.6 0-12.5 173.6-22.7 387.8-22.7 214.2 0 387.8 10.2 387.8 22.7z"/>
	</g>
	<g id="4 1">
		<path id="&lt;Compound Path&gt;" fill-rule="evenodd" class="s6" d="m257.5 205.8h-100.4v-45.3l100.4-119.3h48v121.9h24.9v42.7h-24.9v37.1h-48zm0-42.7v-62.5l-53.1 62.5z"/>
		<path id="&lt;Compound Path&gt;" class="s6" d="m729.8 41.2v201.7h-55.7v-132.2q-13.6 10.3-26.2 16.7-12.7 6.3-31.7 12.1v-45.1q28.1-9.1 43.7-21.8 15.5-12.8 24.3-31.4z"/>
	</g>
	<g id="Character">
		<g id="&lt;Group&gt;">
			<g id="&lt;Group&gt;">
				<path id="&lt;Path&gt;" class="s7" d="m623.6 294.4c-0.8 1.6-1.5 2.7-2.3 4-0.8 1.3-1.6 2.5-2.3 3.7-1.6 2.5-3.3 4.8-5 7.2-3.4 4.7-7.1 9.2-11 13.6-4 4.4-8.2 8.6-12.8 12.5-4.7 3.9-9.7 7.6-15.4 10.8-1.1 0.6-3.4 1.8-5.4 2.5q-3 1.2-5.9 1.7c-3.9 0.7-7.6 0.8-11.1 0.5-6.9-0.4-13-2.2-18.6-4.3-5.7-2.1-11-4.7-16-7.6-5.1-2.9-9.7-6-14.4-9.7-3-2.4-3.5-6.8-1.1-9.8 1.9-2.5 5.1-3.2 7.9-2.2l0.4 0.1c9.5 3.6 19.6 7.1 29 8.9 4.7 0.9 9.4 1.3 13.3 1.1 2-0.2 3.8-0.5 5.2-1q1-0.3 1.7-0.8c0.6-0.3 0.7-0.4 1.8-1.2 7.3-5 14.1-12 20.4-19.7 3.1-3.8 6.2-7.8 9.1-11.9 1.5-2.1 2.9-4.2 4.3-6.2l2-3.2 1.9-2.9 0.3-0.5c4.2-6.5 12.9-8.4 19.4-4.2 6.2 4 8.2 12.2 4.6 18.6z"/>
				<path id="&lt;Path&gt;" class="s7" d="m513.5 318.9l-15.4-10.1-6.5 20.4c0 0 9.9 5.7 19.8-1z"/>
				<path id="&lt;Path&gt;" class="s7" d="m484.1 311.8l-1.2 6.5c-0.5 2.4 0.5 4.8 2.4 6.2l6.3 4.7 6.5-20.4-6.1-1.8c-3.6-1.1-7.3 1.2-7.9 4.8z"/>
				<g id="&lt;Group&gt;">
					<path id="&lt;Path&gt;" class="s8" d="m624.1 261.9c-15.6 2.4-31.4 20.8-40.9 37.9 10.4 18.2 27.1 24.8 27.1 24.8 0 0 18.5-17.5 26-30.5 7.5-12.9 2.5-34.6-12.2-32.2z"/>
					<path id="&lt;Path&gt;" class="s9" d="m624.1 261.9c-15.6 2.4-31.4 20.8-40.9 37.9 10.4 18.2 27.1 24.8 27.1 24.8 0 0 18.5-17.5 26-30.5 7.5-12.9 2.5-34.6-12.2-32.2z"/>
				</g>
				<path id="&lt;Path&gt;" class="s6" d="m583.8 295.9c0 0-2.9 3.4-3.3 5.5 3.9 6 13.1 22.1 30.4 25.4 2.9-1.7 3.6-4.2 3.6-4.2 0 0-19.9-9.8-30.7-26.7z"/>
				<path id="&lt;Path&gt;" class="s8" d="m687.1 261.3c-18.4-3-39.6-3.9-57.2-1.6-14.2 1.8-24.8 14.9-24.7 29.2 0.1 12.5 1 28 4 44.5-5.2 27.5-7.1 64.8-1.6 73.1 0 0 98.4 1.4 98.4 1.4 4.2-11.8-1.1-62.7 4.5-115.8 1.6-14.9-8.7-28.4-23.4-30.8z"/>
				<path id="&lt;Path&gt;" class="s9" d="m649.9 406.6c-5.6-44.2 0-118.3 0-119l2 0.1c0 0.8-5.6 74.6 0 118.7z"/>
				<path id="&lt;Path&gt;" class="s6" d="m639.3 261.1c3.4-1.3 2.1-3.2 2.1-3.2 0 0-15.3 0-26 2.9-1.6 1.7 0.2 3.9 0.2 3.9 0 0 13.6 0.1 23.7-3.6z"/>
				<path id="&lt;Path&gt;" class="s9" d="m645.6 258c0 0-6.4 11.7 2.1 22.4-6.7 0-11 11.4-11 11.4 0 0-13.2-18.2 3.6-32.8 1-1.4 5.3-1 5.3-1z"/>
				<path id="&lt;Path&gt;" class="s4" d="m638.8 263.7c-1.6 7.1 12.8 20.6 12.8 20.6 0 0 25.5-12.3 27.1-19.3z"/>
				<path id="&lt;Path&gt;" class="s9" d="m696.4 305.6c-2.8 5.2 0.9 28 11.4 37.6 0.1-9.4 0.4-19.4 1-29.6z"/>
				<path id="&lt;Path&gt;" class="s7" d="m673.4 222.5l-26.3 17.3c3.1 7.6 4.5 15.6-4.5 19.3-5.2 2.1-5.3 9.5 0 11.5 2.1 0.9 4.8 1.5 8.2 1.8 9.1 0.8 18.6-0.9 24.8-3.9 3.5-1.8 4.5-6.2 2.3-9.4-6.9-9.8-6-26.8-4.5-36.6z"/>
				<path id="&lt;Path&gt;" class="s9" d="m662.7 229.5l-15.6 10.3c0.9 2.1 1.6 4.3 2 6.4 6.2-0.3 14.3-5.2 14.5-10.4 0.1-2.5-0.3-5-0.9-6.3z"/>
				<g id="&lt;Group&gt;">
					<path id="&lt;Path&gt;" class="s6" d="m644.2 189.5c6.7-0.1 8.5 9.5 6 12.8 5.1 1.1 7.6 7 6.1 10-1.5 3.1-7.4 6.3-12.7 5-8.9-2.2-10.5-9.7-8-13.1-4.9-4-2.5-16.1 8.6-14.7z"/>
					<path id="&lt;Path&gt;" class="s10" d="m644.2 189.5c6.7-0.1 8.5 9.5 6 12.8 5.1 1.1 7.6 7 6.1 10-1.5 3.1-7.4 6.3-12.7 5-8.9-2.2-10.5-9.7-8-13.1-4.9-4-2.5-16.1 8.6-14.7z"/>
				</g>
				<path id="&lt;Path&gt;" class="s7" d="m681.9 205.4c-2 15.8-2.4 25.1-10.9 32.7-12.9 11.3-32 2.6-34.7-13.5-2.5-14.5 1.2-37.9 17.1-43.1 15.8-5 30.5 8.1 28.5 23.9z"/>
				<g id="&lt;Group&gt;">
					<path id="&lt;Path&gt;" class="s6" d="m680.1 217.5c-6.7-0.1-8.2-9.8-5.6-13-5.1-1.3-7.3-7.3-5.7-10.2 1.5-3 7.6-6.1 12.8-4.6 8.9 2.6 10.2 10.1 7.6 13.4 4.7 4.2 1.9 16.2-9.1 14.4z"/>
					<path id="&lt;Path&gt;" class="s10" d="m680.1 217.5c-6.7-0.1-8.2-9.8-5.6-13-5.1-1.3-7.3-7.3-5.7-10.2 1.5-3 7.6-6.1 12.8-4.6 8.9 2.6 10.2 10.1 7.6 13.4 4.7 4.2 1.9 16.2-9.1 14.4z"/>
				</g>
				<path id="&lt;Path&gt;" class="s9" d="m664 207.9c0 0 2.8-0.8 4.8 0.6-2.7 0.2-4.8-0.6-4.8-0.6z"/>
				<path id="&lt;Path&gt;" class="s9" d="m663.9 209.1c0 0 2.7-0.2 4.1 1.6-2.4-0.4-4.1-1.6-4.1-1.6z"/>
				<path id="&lt;Path&gt;" class="s9" d="m638.9 206.8c0 0-1.3-0.8-2.2 0.6 1.3 0.2 2.2-0.6 2.2-0.6z"/>
				<path id="&lt;Path&gt;" class="s9" d="m639 207.9c0 0-1.3-0.1-1.9 1.7 1.1-0.4 1.9-1.7 1.9-1.7z"/>
				<path id="&lt;Path&gt;" class="s7" d="m686.8 221.5c-2.1 3.7-5.5 6.1-8.5 6.9-4.5 1.4-6.4-3.2-4.7-7.9 1.5-4.3 5.6-10.1 10-9.3 4.3 0.7 5.6 6.1 3.2 10.3z"/>
				<path id="&lt;Path&gt;" class="s6" d="m660.8 208c-0.1 1.3-0.8 2.3-1.7 2.3-0.8-0.1-1.4-1.2-1.3-2.5 0-1.3 0.8-2.3 1.6-2.2 0.9 0 1.5 1.1 1.4 2.4z"/>
				<path id="&lt;Path&gt;" class="s6" d="m654.4 231.5c-1.6 0.3-3.1-0.3-3.3-1.4-0.2-1.1 1-2.2 2.6-2.5 1.7-0.3 3.1 0.3 3.3 1.4 0.2 1.1-0.9 2.2-2.6 2.5z"/>
				<path id="&lt;Path&gt;" class="s6" d="m643.3 206.6c-0.1 1.3-0.8 2.3-1.7 2.2-0.8 0-1.5-1.1-1.4-2.4 0.1-1.3 0.9-2.3 1.7-2.2 0.9 0 1.5 1.1 1.4 2.4z"/>
				<g id="&lt;Group&gt;">
					<path id="&lt;Path&gt;" class="s6" d="m647.3 219.5c-9.4 0.6-11.2 5.2-9.5 7.2 1.6 2 5.6 0 5.6 0 0 0 7.6 1.7 9.8-0.8 3.6 1.6 9-1.3 7.5-3.4-1.5-2.2-5.4-3.6-13.4-3z"/>
					<path id="&lt;Path&gt;" class="s10" d="m647.3 219.5c-9.4 0.6-11.2 5.2-9.5 7.2 1.6 2 5.6 0 5.6 0 0 0 7.6 1.7 9.8-0.8 3.6 1.6 9-1.3 7.5-3.4-1.5-2.2-5.4-3.6-13.4-3z"/>
				</g>
				<path id="&lt;Path&gt;" class="s11" d="m647.6 207.9c0 0-3.5 7.3-6.9 10.6 2.1 2.3 6.1 1.6 6.1 1.6z"/>
				<path id="&lt;Path&gt;" class="s6" d="m663.6 201.3q0.2 0 0.4-0.1c0.3-0.3 0.4-0.7 0.2-1.1-2.3-3.5-5.8-3.6-6-3.6-0.4 0-0.7 0.4-0.7 0.8 0 0.4 0.3 0.7 0.7 0.7 0.2 0 2.9 0.1 4.7 2.9 0.2 0.3 0.5 0.4 0.7 0.4z"/>
				<path id="&lt;Path&gt;" class="s6" d="m637.6 199.8c0.2 0 0.4-0.1 0.6-0.4 1.9-2.7 4.6-2.7 4.7-2.7 0.4 0 0.8-0.4 0.8-0.8 0-0.4-0.4-0.7-0.8-0.7-0.1 0-3.6-0.1-6 3.4-0.2 0.3-0.1 0.8 0.2 1q0.2 0.2 0.5 0.2z"/>
				<g id="&lt;Group&gt;">
					<path id="&lt;Path&gt;" class="s6" d="m663.4 569.6c4.5-72.2 3.5-146.2-4.3-162.3l-51.5-0.8c0 0 6.4 120.6 8.4 168.7 2.1 50 6.6 179.9 6.6 179.9l29.8 0.4c0 0 17.5-130.1 11-185.9z"/>
					<path id="&lt;Path&gt;" class="s9" d="m665.6 459.3c-17.6 19.2-9.4 72.4-1.7 101.6 2-36.6 2.7-73 1.7-101.6z"/>
					<path id="&lt;Path&gt;" class="s6" d="m651.9 759.3l-26.2-0.3c-1.6 0-3.3 0.3-4.6 1.4-7.6 6-13.4 6.1-22 7.7-10.3 1.8-5.2 12.2 2.4 12.4 12.6 0.2 11.5-0.3 22.3-0.1 2.4 0 7.4 0.1 7.4 0.1l3.4-3.5 3 3.5c0 0 8.2 0 13.7 0 1.6 0 2.8-1.3 2.6-2.8z"/>
					<path id="&lt;Path&gt;" class="s8" d="m654.1 761.9c-0.5-0.1-34.4-1.1-34.4-1.1l-1.4-12.1 37.6 0.8z"/>
				</g>
				<g id="&lt;Group&gt;">
					<path id="&lt;Path&gt;" class="s6" d="m723.9 569.6c-5.6-72.2-7.9-145.6-17.9-161.7l-62.1-0.8c0 0 24.7 120 33.3 168.1 9.1 50 33.3 179.9 33.3 179.9l29.9 0.4c0 0-2.3-130.1-16.5-185.9z"/>
					<path id="&lt;Path&gt;" class="s6" d="m741.9 759.3l-26.3-0.3c-1.6 0-3.3 0.3-4.6 1.4-7.6 6-4.1 6.1-12.7 7.7-10.4 1.8-5.3 12.2 2.4 12.4 12.6 0.2 11.5-0.3 22.3-0.1 2.4 0 11.6 0.1 11.6 0.1l1.6-3.5 2 3.5h3.1c1.5 0 2.7-1.3 2.5-2.8z"/>
					<path id="&lt;Path&gt;" class="s8" d="m743.8 761.9c-0.4-0.1-34.5-1.1-34.5-1.1l-3.2-12.1 37.7 0.8z"/>
				</g>
				<path id="&lt;Path&gt;" class="s8" d="m646.6 256.6c0 0-7.4 13.1 1.1 23.8-6.7 0-11.1 7.3-11.1 7.3 0 0-8.9-18 4.3-30 0.9-1.4 5.7-1.1 5.7-1.1z"/>
				<g id="&lt;Group&gt;">
					<path id="&lt;Path&gt;" class="s6" d="m708.7 413.4c-35.2 1.4-75.5 1.9-100.7 0-0.3-0.1-0.5-0.2-0.7-0.4-1.6-2.2-2.3-6.1-2.2-9.3 0.1-0.5 0.5-0.9 1-0.9 33.3 0.9 66.3 0.9 101.1 0 0.4 0 0.7 0.3 0.9 0.6 1.1 2.8 1.7 5.9 1.5 9.1-0.1 0.5-0.5 0.8-0.9 0.9z"/>
					<path id="&lt;Path&gt;" class="s9" d="m708.7 413.4c-35.2 1.4-75.5 1.9-100.7 0-0.3-0.1-0.5-0.2-0.7-0.4-1.6-2.2-2.3-6.1-2.2-9.3 0.1-0.5 0.5-0.9 1-0.9 33.3 0.9 66.3 0.9 101.1 0 0.4 0 0.7 0.3 0.9 0.6 1.1 2.8 1.7 5.9 1.5 9.1-0.1 0.5-0.5 0.8-0.9 0.9z"/>
				</g>
				<path id="&lt;Path&gt;" class="s4" d="m640 402.3c0 0-0.8 8 1.1 13.2 7.6 1.1 23.2 0.3 23.2 0.3 0 0 0.4-7.5-0.5-13.3-12-0.6-23.8-0.2-23.8-0.2z"/>
				<g id="&lt;Group&gt;">
					<path id="&lt;Path&gt;" class="s7" d="m710.3 281.4l1.1 1.1 0.9 0.8 1.7 1.6c1.1 1.1 2.1 2.2 3.1 3.3q3 3.3 5.7 6.7c3.6 4.6 6.9 9.3 9.9 14.1 3 4.9 5.9 9.9 8.3 15 2.6 5.1 4.8 10.3 6.8 15.5 0.5 1.4 1 2.3 1.7 4.7 0.7 2.1 1.1 4.1 1.3 6 0.4 3.9 0.2 7.4-0.1 10.7-0.9 6.7-2.8 12.4-4.8 17.9-2.2 5.4-4.7 10.5-7.5 15.4-2.9 4.9-5.8 9.4-9.4 14-2.3 3.1-6.7 3.6-9.8 1.3-2.4-1.9-3.3-5.1-2.3-7.8l0.1-0.4c3.3-9.4 6.6-19.4 8.5-28.8 1-4.6 1.5-9.3 1.5-13.3 0-1.9-0.3-3.7-0.6-5.1-0.5-1.6-0.6-1.5-2-4.3-4.5-8.9-9.4-17.5-15-25.6-2.7-4-5.6-7.9-8.6-11.6-1.5-1.9-3.1-3.7-4.6-5.4l-2.3-2.6-1.2-1.2-0.5-0.5c-0.1-0.1-0.4-0.4-0.3-0.3-5.8-5.1-6.5-13.9-1.4-19.8 5.1-5.8 13.9-6.4 19.8-1.4z"/>
					<path id="&lt;Path&gt;" class="s8" d="m693 264.1c15.6 2.7 31.1 21.3 40.4 38.5-10.7 18.1-27.4 24.5-27.4 24.5 0 0-18.3-17.8-25.6-30.9-7.3-13-2-34.6 12.6-32.1z"/>
					<path id="&lt;Path&gt;" class="s6" d="m732.8 298.7c0 0 2.9 3.5 3.3 5.6-4 6-13.5 21.9-30.8 25-2.9-1.8-3.6-4.3-3.6-4.3 0 0 20.1-9.6 31.1-26.3z"/>
					<path id="&lt;Path&gt;" class="s6" d="m681.7 262.7c-3.2-1.4-1.9-3.2-1.9-3.2 0 0 14.8 0.5 25 3.8 1.5 1.7-0.3 3.9-0.3 3.9 0 0-13.2-0.4-22.8-4.5z"/>
					<path id="&lt;Path&gt;" class="s9" d="m677.9 259.1c0 0-3.4 11.7-18.8 21.3 6.8 0 11.3 12.3 11.3 12.3 0 0 13.9-16.5 10.7-32.7-0.9-1.4-3.2-0.9-3.2-0.9z"/>
					<path id="&lt;Path&gt;" class="s8" d="m677.4 257c0 0-4 12.7-18.3 23.4 6.8 0 11.4 7.3 11.4 7.3 0 0 13.8-11.5 10.6-27.7-0.9-1.4-3.7-3-3.7-3z"/>
					<path id="&lt;Path&gt;" class="s4" d="m691.8 305.1c-0.9 17.3-11.8 21.4-13.4 21.4-1.5 0-12-4.1-11.1-21.4l12.5-4.9z"/>
					<path id="&lt;Path&gt;" class="s7" d="m718.7 400.2l-12.3 10.6 16.4 10.6c0 0 9.9-10.9 5-17.2z"/>
					<path id="&lt;Path&gt;" class="s7" d="m705 427.6l6.4 2.8c2.5 1.1 5.5 0.2 7-2.1l4.4-6.9-16.4-10.6-4.2 9.3c-1.4 2.9-0.1 6.3 2.8 7.5z"/>
				</g>
				<g id="&lt;Group&gt;">
					<path id="&lt;Path&gt;" class="s6" d="m635.4 186.3c-11 1.5-7.3 4.9 17.2 8.1 24.5 3.1 30.6 0.6 30.6 0.6 0 0-28.1-8.8-47.8-8.7z"/>
					<path id="&lt;Path&gt;" class="s8" d="m690.8 199.8c0 0-21.5-8.8-55.4-13.5-0.4-5 3.7-10.3 3.7-10.3 0 0-7.6-3.8-5.2-11 2.3-7.2 13.1-6.3 25.7-12.1 4.7 5.1 17.4 13.4 26 14.4 2.2 4.4 7.8 15.5 16.8 19.8-0.1 4.8-9.1 6-9.1 6 0 0 0.4 3.3-2.5 6.7z"/>
					<path id="&lt;Path&gt;" class="s12" d="m693.3 193.1c-7.9-7.1-35.8-20.1-54.2-17.1 0 0-4.1 5.3-3.7 10.3 33.9 4.7 55.4 13.5 55.4 13.5 2.9-3.4 2.5-6.7 2.5-6.7z"/>
					<path id="&lt;Path&gt;" class="s4" d="m662.9 167.7c-2.4 12.3-10.8 14.5-12 14.4-1.1-0.1-8.4-3.8-6-16.1l9.7-2.7z"/>
				</g>
			</g>
			<g id="&lt;Group&gt;">
				<path id="&lt;Path&gt;" class="s6" d="m503.5 369.6c-2.5 0-4.6-1.9-5-4.4l-14.2-116.4c-0.4-2.8 1.6-5.3 4.3-5.6 2.8-0.4 5.3 1.6 5.6 4.4l14.3 116.3c0.3 2.8-1.6 5.3-4.4 5.6q-0.3 0.1-0.6 0.1z"/>
				<path id="&lt;Path&gt;" class="s7" d="m500.3 317.2c-1.2-4.5 1.1-5.1-1.1-11.5-1.2-3.4 2.7-6 3.2-3.3 1.8 9.9 14.9 15.5 10.3 21.7-4.6 6.4-11.2-2.4-12.4-6.9z"/>
				<path id="&lt;Path&gt;" class="s8" d="m565.6 212.3c-38.5 49.4-109.8 58.1-159.2 19.5-49.3-38.5-58.1-109.8-19.5-159.2 38.6-49.3 109.8-58.1 159.2-19.5 49.4 38.6 58.1 109.9 19.5 159.2z"/>
				<path id="&lt;Path&gt;" class="s4" d="m567.2 131.3c6.1 50.2-29.6 95.9-79.8 102.1-50.2 6.1-95.9-29.6-102.1-79.8-6.1-50.2 29.6-95.9 79.8-102.1 50.2-6.1 95.9 29.6 102.1 79.8z"/>
				<path id="&lt;Path&gt;" class="s6" d="m535.7 127c-7.5-10.2-21.9 0-26.3 10.7-1.2 2.8-2.3 6.4-2.3 8.3l-4.8-32.7-3.8-30.9c-0.7-6.1-6.7-10.2-12.7-8.7-5 1.3-8.3 6.1-7.7 11.2l-0.9-7.7c-0.8-6.1-6.8-10.2-12.8-8.7-5 1.3-8.3 6.1-7.7 11.2l1.4 10.8c-0.8-6.2-6.8-10.3-12.8-8.8-5 1.3-8.3 6.1-7.7 11.3l1.7 13.4c-0.8-6.2-6.8-10.3-12.8-8.8-5 1.3-8.3 6.1-7.7 11.3l3.3 26.7 2.4 19.2 3.1 25.2c2.2 17.9 9.2 28.1 19.6 32.7 16 7 45.3 7.1 58.5-3.6 11.5-9.3 18.9-31.8 20.7-45.8 1.7-13.8 12.4-32.2 9.3-36.3z"/>
				<path id="&lt;Path&gt;" class="s8" d="m418.2 236.1l-18.7-14.6 134.9-172.6 18.6 14.6z"/>
			</g>
		</g>
	</g>
	<g id="Error Unauthorized">
		<g id="&lt;Group&gt;">
			<g id="&lt;Group&gt;">
				<path id="&lt;Compound Path&gt;" class="s6" d="m160.9 308.2v-36.4h26.3v4.2h-21.5v11.2h20.1v4.3h-20.1v12.4h22.4v4.3z"/>
				<path id="&lt;Compound Path&gt;" class="s6" d="m194.1 308.2v-26.4h4v4q1.6-2.8 2.9-3.7 1.3-0.9 2.8-0.9 2.3 0 4.6 1.4l-1.5 4.2q-1.7-1-3.3-1-1.5 0-2.6 0.9-1.2 0.9-1.7 2.4-0.7 2.4-0.7 5.3v13.8z"/>
				<path id="&lt;Compound Path&gt;" class="s6" d="m211 308.2v-26.4h4.1v4q1.5-2.8 2.8-3.7 1.3-0.9 2.9-0.9 2.2 0 4.6 1.4l-1.6 4.2q-1.6-1-3.3-1-1.4 0-2.6 0.9-1.2 0.9-1.7 2.4-0.7 2.4-0.7 5.3v13.8z"/>
				<path id="&lt;Compound Path&gt;" fill-rule="evenodd" class="s6" d="m226.4 295q0-7.4 4-10.9 3.4-2.9 8.3-2.9 5.5 0 8.9 3.6 3.5 3.5 3.5 9.8 0 5.1-1.6 8-1.5 2.9-4.4 4.5-2.9 1.7-6.4 1.7-5.5 0-8.9-3.6-3.4-3.5-3.4-10.2zm4.6 0q0 5 2.2 7.6 2.2 2.5 5.5 2.5 3.4 0 5.6-2.5 2.2-2.6 2.2-7.8 0-4.9-2.2-7.4-2.3-2.5-5.6-2.5-3.3 0-5.5 2.5-2.2 2.5-2.2 7.6z"/>
				<path id="&lt;Compound Path&gt;" class="s6" d="m256.3 308.2v-26.4h4v4q1.5-2.8 2.8-3.7 1.3-0.9 2.9-0.9 2.3 0 4.6 1.4l-1.5 4.2q-1.7-1-3.3-1-1.5 0-2.7 0.9-1.1 0.9-1.6 2.4-0.8 2.4-0.8 5.3v13.8z"/>
				<path id="&lt;Compound Path&gt;" class="s6" d="m177.5 353.4v-3.9q-3.1 4.5-8.4 4.5-2.3 0-4.3-0.9-2.1-0.9-3-2.3-1-1.3-1.4-3.3-0.3-1.3-0.3-4.2v-16.3h4.5v14.6q0 3.5 0.3 4.7 0.4 1.8 1.7 2.8 1.4 1 3.4 1 2 0 3.8-1 1.8-1 2.5-2.8 0.7-1.8 0.7-5.2v-14.1h4.5v26.4z"/>
				<path id="&lt;Compound Path&gt;" class="s6" d="m188.5 353.4v-26.4h4v3.7q2.9-4.3 8.4-4.3 2.4 0 4.4 0.9 2 0.8 3 2.2 1 1.4 1.4 3.3 0.2 1.3 0.2 4.4v16.2h-4.4v-16.1q0-2.7-0.6-4.1-0.5-1.3-1.8-2.1-1.3-0.8-3.1-0.8-2.9 0-5 1.8-2 1.8-2 6.9v14.4z"/>
				<path id="&lt;Compound Path&gt;" fill-rule="evenodd" class="s6" d="m234 350.1q-2.5 2.1-4.8 3-2.3 0.9-4.9 0.9-4.3 0-6.7-2.2-2.3-2.1-2.3-5.4 0-1.9 0.9-3.5 0.8-1.6 2.3-2.6 1.4-1 3.2-1.5 1.3-0.3 4-0.6 5.4-0.7 7.9-1.6 0.1-0.9 0.1-1.1 0-2.8-1.3-3.9-1.7-1.5-5.1-1.5-3.2 0-4.7 1.1-1.5 1.1-2.2 3.9l-4.3-0.6q0.5-2.8 1.9-4.5 1.4-1.7 4-2.7 2.5-0.9 5.9-0.9 3.4 0 5.5 0.8 2.2 0.8 3.1 2 1 1.2 1.4 3 0.3 1.2 0.3 4.2v5.9q0 6.3 0.2 7.9 0.3 1.7 1.2 3.2h-4.7q-0.7-1.4-0.9-3.3zm-0.4-10q-2.4 1-7.3 1.7-2.7 0.4-3.9 0.9-1.1 0.5-1.7 1.5-0.6 0.9-0.6 2.1 0 1.8 1.3 3 1.4 1.2 4 1.2 2.5 0 4.6-1.2 2-1.1 2.9-3.1 0.7-1.5 0.7-4.4z"/>
				<path id="&lt;Compound Path&gt;" class="s6" d="m262.4 353.4v-3.9q-3.1 4.5-8.4 4.5-2.3 0-4.4-0.9-2-0.9-3-2.3-0.9-1.3-1.3-3.3-0.3-1.3-0.3-4.2v-16.3h4.5v14.6q0 3.5 0.2 4.7 0.5 1.8 1.8 2.8 1.4 1 3.4 1 2 0 3.8-1 1.7-1 2.5-2.8 0.7-1.8 0.7-5.2v-14.1h4.5v26.4z"/>
				<path id="&lt;Compound Path&gt;" class="s6" d="m283.1 349.4l0.7 3.9q-1.9 0.4-3.4 0.4-2.4 0-3.8-0.7-1.3-0.8-1.9-2.1-0.5-1.2-0.5-5.2v-15.2h-3.3v-3.5h3.3v-6.5l4.4-2.7v9.2h4.5v3.5h-4.5v15.4q0 1.9 0.3 2.5 0.2 0.5 0.8 0.8 0.5 0.4 1.5 0.4 0.7 0 1.9-0.2z"/>
				<path id="&lt;Compound Path&gt;" class="s6" d="m287.5 353.4v-36.4h4.5v13q3.1-3.6 7.9-3.6 2.9 0 5.1 1.2 2.1 1.1 3.1 3.1 0.9 2.1 0.9 6v16.7h-4.5v-16.7q0-3.4-1.4-4.9-1.5-1.5-4.1-1.5-2 0-3.8 1-1.7 1-2.5 2.8-0.7 1.7-0.7 4.8v14.5z"/>
				<path id="&lt;Compound Path&gt;" fill-rule="evenodd" class="s6" d="m314.1 340.2q0-7.3 4.1-10.9 3.4-2.9 8.3-2.9 5.5 0 8.9 3.6 3.5 3.5 3.5 9.8 0 5.1-1.6 8-1.5 2.9-4.4 4.6-2.9 1.6-6.4 1.6-5.5 0-8.9-3.6-3.5-3.5-3.5-10.2zm4.6 0q0 5.1 2.2 7.6 2.3 2.5 5.6 2.5 3.3 0 5.6-2.5 2.2-2.6 2.2-7.8 0-4.9-2.3-7.4-2.2-2.5-5.5-2.5-3.3 0-5.6 2.5-2.2 2.5-2.2 7.6z"/>
				<path id="&lt;Compound Path&gt;" class="s6" d="m344.1 353.4v-26.4h4v4q1.5-2.8 2.8-3.7 1.3-0.9 2.9-0.9 2.2 0 4.6 1.4l-1.6 4.2q-1.6-1-3.2-1-1.5 0-2.7 0.9-1.1 0.9-1.6 2.4-0.8 2.4-0.8 5.3v13.8z"/>
				<path id="&lt;Compound Path&gt;" class="s6" d="m361.1 322.1v-5.1h4.4v5.1zm0 31.3v-26.4h4.5v26.4z"/>
				<path id="&lt;Compound Path&gt;" class="s6" d="m370 353.4v-3.6l16.8-19.3q-2.9 0.1-5.1 0.1h-10.7v-3.6h21.5v3l-14.2 16.7-2.8 3.1q3-0.3 5.6-0.3h12.2v3.9z"/>
				<path id="&lt;Compound Path&gt;" fill-rule="evenodd" class="s6" d="m415.8 344.9l4.7 0.6q-1.1 4-4.1 6.2-2.9 2.3-7.5 2.3-5.8 0-9.2-3.6-3.4-3.6-3.4-10 0-6.6 3.4-10.3 3.4-3.7 8.9-3.7 5.3 0 8.7 3.6 3.3 3.6 3.3 10.1 0 0.4 0 1.2h-19.7q0.3 4.4 2.5 6.7 2.2 2.3 5.5 2.3 2.4 0 4.2-1.3 1.7-1.3 2.7-4.1zm-14.6-7.2h14.7q-0.3-3.4-1.7-5-2.1-2.6-5.5-2.6-3.1 0-5.2 2-2.1 2.1-2.3 5.6z"/>
				<path id="&lt;Compound Path&gt;" fill-rule="evenodd" class="s6" d="m443.2 353.4v-3.4q-2.5 4-7.4 4-3.1 0-5.8-1.8-2.6-1.7-4.1-4.8-1.4-3.1-1.4-7.2 0-3.9 1.3-7.2 1.3-3.2 3.9-4.9 2.7-1.7 5.9-1.7 2.4 0 4.3 1 1.8 1 3 2.6v-13h4.4v36.4zm-14.1-13.2q0 5.1 2.1 7.6 2.2 2.5 5.1 2.5 2.9 0 5-2.4 2-2.4 2-7.3 0-5.4-2.1-8-2.1-2.5-5.1-2.5-3 0-5 2.4-2 2.5-2 7.7z"/>
			</g>
		</g>
	</g>
</svg>