<svg version="1.1" id="Layer_1" xmlns="http://www.w3.org/2000/svg" xmlns:xlink="http://www.w3.org/1999/xlink" x="0px" y="0px"
	 width="100%" viewBox="0 0 315 318" enable-background="new 0 0 315 318" xml:space="preserve">
<path fill="#000064" opacity="1.000000" stroke="none" 
	d="
M1.000000,232.000000 
	C1.000000,207.645767 1.000000,183.291550 1.464332,158.468658 
	C6.269109,157.954254 10.609554,157.908493 15.391909,157.907837 
	C19.949665,158.366943 24.130136,158.452133 28.171244,159.246384 
	C63.871494,166.263107 94.360458,182.439499 118.651978,210.022644 
	C137.499878,231.424500 149.695908,255.896866 155.122116,283.822632 
	C155.436401,285.440063 155.646652,287.081665 156.041855,288.678253 
	C156.424622,290.224548 156.983688,291.727173 157.744812,294.132050 
	C158.500504,292.530884 158.844788,292.111450 158.889297,291.662323 
	C160.459793,275.816986 165.546600,260.986938 172.167648,246.658630 
	C182.308578,224.713028 197.403046,206.586334 216.092346,191.465134 
	C240.580673,171.652039 268.616241,160.451996 300.507202,157.922104 
	C305.618347,157.982086 310.270294,157.981537 314.949463,158.449615 
	C314.984497,178.723114 314.965302,198.528107 315.043518,218.332703 
	C315.050995,220.223022 315.666656,222.110962 316.000000,224.000000 
	C316.000000,226.041672 316.000000,228.083328 315.759155,230.646606 
	C315.312012,231.432770 315.105774,231.697327 314.441925,231.974213 
	C310.162506,232.093170 306.264313,231.748917 302.531555,232.381302 
	C281.905060,235.875702 264.486633,245.136658 251.009354,261.448975 
	C239.468613,275.417358 232.545395,291.197632 232.115051,309.429810 
	C232.014420,313.693542 231.093582,315.118683 226.570892,315.102020 
	C180.919571,314.933838 135.267380,315.003052 89.615448,314.986725 
	C87.858353,314.986115 86.101326,314.794220 84.501877,314.700653 
	C83.938316,311.653870 83.304886,309.234344 83.065002,306.776398 
	C80.755409,283.111603 70.376877,263.784088 51.612843,249.222260 
	C37.076950,237.941727 20.701357,231.471436 1.722246,232.109192 
	C1.484561,232.054810 1.000000,232.000000 1.000000,232.000000 
z"/>
<path fill="#FFB239" opacity="1.000000" stroke="none" 
	d="
M14.949999,157.862732 
	C10.609554,157.908493 6.269109,157.954254 1.464332,158.000000 
	C1.000000,133.645767 1.000000,109.291542 1.432763,84.468506 
	C11.097616,82.060249 20.689028,81.132324 29.498419,78.002968 
	C64.151230,65.693199 82.502037,34.523315 84.000000,1.000000 
	C133.020889,1.000000 182.041794,1.000000 231.531342,1.461918 
	C231.587906,23.093866 239.503891,41.214863 253.325897,56.645351 
	C269.553864,74.761757 290.764893,82.771500 314.344727,84.102150 
	C315.000000,86.041054 315.500000,87.520523 316.000000,89.000000 
	C316.000000,89.750000 316.000000,90.500000 315.637390,91.858589 
	C315.183197,94.278496 315.015656,96.089638 315.011658,97.901146 
	C314.967194,117.927727 314.948151,137.954361 314.922241,157.980988 
	C310.270294,157.981537 305.618347,157.982086 300.241882,157.604645 
	C217.864502,146.370956 172.954941,97.726875 157.179703,19.996819 
	C154.808899,36.566467 151.231308,52.216507 142.318680,70.153809 
	C132.689819,89.532585 119.822998,106.421051 103.150658,120.491013 
	C84.617958,136.130920 63.999928,147.456009 40.362202,152.987900 
	C31.970779,154.951752 23.425203,156.256882 14.949999,157.862732 
z"/>
<path fill="none" opacity="1.000000" stroke="none" 
	d="
M1.959931,232.163559 
	C20.701357,231.471436 37.076950,237.941727 51.612843,249.222260 
	C70.376877,263.784088 80.755409,283.111603 83.065002,306.776398 
	C83.304886,309.234344 83.938316,311.653870 84.501877,314.700653 
	C86.101326,314.794220 87.858353,314.986115 89.615448,314.986725 
	C135.267380,315.003052 180.919571,314.933838 226.570892,315.102020 
	C231.093582,315.118683 232.014420,313.693542 232.115051,309.429810 
	C232.545395,291.197632 239.468613,275.417358 251.009354,261.448975 
	C264.486633,245.136658 281.905060,235.875702 302.531555,232.381302 
	C306.264313,231.748917 310.162506,232.093170 314.717255,231.986404 
	C315.633423,231.990845 315.816711,231.995422 316.000000,232.000000 
	C316.000000,260.354218 316.000000,288.708466 315.809998,317.673584 
	C315.379242,318.493408 315.172546,318.731934 315.000000,319.000000 
	C210.979111,319.000000 106.958206,319.000000 2.326422,318.809998 
	C1.506585,318.379242 1.268075,318.172546 1.000000,318.000000 
	C1.000000,289.979095 1.000000,261.958221 1.178311,233.351044 
	C1.584820,232.591537 1.785923,232.391144 1.959931,232.163559 
z"/>
<path fill="none" opacity="1.000000" stroke="none" 
	d="
M316.000000,88.531342 
	C315.500000,87.520523 315.000000,86.041054 314.344727,84.102150 
	C290.764893,82.771500 269.553864,74.761757 253.325897,56.645351 
	C239.503891,41.214863 231.587906,23.093866 232.000000,1.461918 
	C259.928589,1.000000 287.857208,1.000000 316.000000,1.000000 
	C316.000000,30.020542 316.000000,59.041615 316.000000,88.531342 
z"/>
<path fill="none" opacity="1.000000" stroke="none" 
	d="
M83.531342,1.000000 
	C82.502037,34.523315 64.151230,65.693199 29.498419,78.002968 
	C20.689028,81.132324 11.097616,82.060249 1.432763,83.999847 
	C1.000000,56.406429 1.000000,28.812859 1.000000,1.000000 
	C28.353838,1.000000 55.708260,1.000000 83.531342,1.000000 
z"/>
<path fill="none" opacity="1.000000" stroke="none" 
	d="
M314.949463,158.449615 
	C314.948151,137.954361 314.967194,117.927727 315.011658,97.901146 
	C315.015656,96.089638 315.183197,94.278496 315.637390,92.233589 
	C316.000000,135.687561 316.000000,179.375122 316.000000,223.531342 
	C315.666656,222.110962 315.050995,220.223022 315.043518,218.332703 
	C314.965302,198.528107 314.984497,178.723114 314.949463,158.449615 
z"/>
<path fill="none" opacity="1.000000" stroke="none" 
	d="
M316.000000,231.750000 
	C315.816711,231.995422 315.633423,231.990845 315.174835,231.974060 
	C315.105774,231.697327 315.312012,231.432770 315.759155,231.084106 
	C316.000000,231.000000 316.000000,231.500000 316.000000,231.750000 
z"/>
<path fill="none" opacity="1.000000" stroke="none" 
	d="
M1.722246,232.109192 
	C1.785923,232.391144 1.584820,232.591537 1.178311,232.882385 
	C1.000000,233.000000 1.000000,232.500000 1.000000,232.250000 
	C1.000000,232.000000 1.484561,232.054810 1.722246,232.109192 
z"/>
<path fill="none" opacity="1.000000" stroke="none" 
	d="
M1.000000,318.500000 
	C1.268075,318.172546 1.506585,318.379242 1.857765,318.809998 
	C1.666667,319.000000 1.333333,319.000000 1.000000,318.500000 
z"/>
<path fill="none" opacity="1.000000" stroke="none" 
	d="
M315.500000,319.000000 
	C315.172546,318.731934 315.379242,318.493408 315.809998,318.142212 
	C316.000000,318.333344 316.000000,318.666656 315.500000,319.000000 
z"/>
<path fill="none" opacity="1.000000" stroke="none" 
	d="
M15.391909,157.907837 
	C23.425203,156.256882 31.970779,154.951752 40.362202,152.987900 
	C63.999928,147.456009 84.617958,136.130920 103.150658,120.491013 
	C119.822998,106.421051 132.689819,89.532585 142.318680,70.153809 
	C151.231308,52.216507 154.808899,36.566467 157.179703,19.996819 
	C172.954941,97.726875 217.864502,146.370956 299.782654,157.544128 
	C268.616241,160.451996 240.580673,171.652039 216.092346,191.465134 
	C197.403046,206.586334 182.308578,224.713028 172.167648,246.658630 
	C165.546600,260.986938 160.459793,275.816986 158.889297,291.662323 
	C158.844788,292.111450 158.500504,292.530884 157.744812,294.132050 
	C156.983688,291.727173 156.424622,290.224548 156.041855,288.678253 
	C155.646652,287.081665 155.436401,285.440063 155.122116,283.822632 
	C149.695908,255.896866 137.499878,231.424500 118.651978,210.022644 
	C94.360458,182.439499 63.871494,166.263107 28.171244,159.246384 
	C24.130136,158.452133 19.949665,158.366943 15.391909,157.907837 
z"/>
</svg>
