<svg version="1.1" id="Layer_1" xmlns="http://www.w3.org/2000/svg" xmlns:xlink="http://www.w3.org/1999/xlink" x="0px" y="0px"
	 width="100%" viewBox="0 0 310 317" enable-background="new 0 0 310 317" xml:space="preserve">
<path fill="none" opacity="1.000000" stroke="none" 
	d="
M1.000000,86.000000 
	C1.000000,57.702122 1.000000,29.404245 1.000000,1.053185 
	C104.333313,1.053185 207.666656,1.053185 311.000000,1.053185 
	C311.000000,2.336739 311.000000,3.668407 310.754639,5.477395 
	C310.509308,5.954714 310.024445,5.867047 309.678162,5.635140 
	C285.534607,5.322181 261.737335,5.241127 237.752563,5.220686 
	C237.326080,5.433237 237.190994,5.649951 237.060776,6.341024 
	C236.647095,8.367472 236.167297,9.971705 236.042587,11.603084 
	C234.156906,36.270016 222.617935,55.607014 203.206314,70.398491 
	C189.309555,80.987694 173.432846,86.115616 155.752563,86.220688 
	C155.326080,86.433243 155.190994,86.649956 155.116425,87.402679 
	C155.104187,109.915672 155.135361,131.957443 155.122101,154.414795 
	C155.102905,156.220947 155.128159,157.611526 155.105316,159.468475 
	C155.039810,182.250519 155.092133,204.566666 154.937790,226.881393 
	C154.911362,230.700302 155.963760,232.327606 159.998749,232.083862 
	C162.759384,231.917114 165.609360,232.389862 168.353592,232.918442 
	C202.984680,239.588913 224.762421,260.212280 234.061432,294.041870 
	C235.667450,299.884491 236.159531,306.033325 237.202408,312.248505 
	C237.395737,312.731995 237.632477,312.857880 238.418274,312.885925 
	C262.258881,312.903076 285.630127,312.868225 309.273254,312.795715 
	C310.030060,312.505341 310.515015,312.252655 311.000000,312.000000 
	C311.000000,313.997833 311.000000,315.995636 311.000000,317.995117 
	C207.781372,317.996735 104.562729,317.996735 1.000000,317.996735 
	C1.000000,289.646698 1.000000,261.292023 1.461605,232.468658 
	C6.197064,232.311081 10.519271,232.316696 14.736698,232.984253 
	C37.096714,236.523621 54.572372,248.036835 67.731110,266.226410 
	C77.596703,279.863831 81.844872,295.480408 83.202408,312.248505 
	C83.395744,312.731995 83.632492,312.857880 84.418266,312.885925 
	C108.271980,312.903259 131.656326,312.868561 155.248474,312.797577 
	C155.731964,312.604248 155.857834,312.367493 155.885788,311.594116 
	C155.235275,302.736603 155.269867,294.195801 153.702469,285.959839 
	C147.033539,250.917831 130.926620,221.136810 103.951309,197.276718 
	C87.916649,183.093811 69.862457,172.787125 49.685043,166.126221 
	C41.271267,163.348694 32.565189,161.456604 24.200592,159.015137 
	C24.626696,158.609955 24.844227,158.351547 25.447041,158.010773 
	C27.116364,157.613602 28.387810,157.229202 29.686293,156.994171 
	C61.196552,151.290756 88.201042,136.734039 110.872169,114.436226 
	C125.423653,100.124344 136.456253,83.184425 144.365814,64.250092 
	C152.170349,45.567120 155.227798,26.008423 155.779327,5.752545 
	C155.566757,5.326070 155.350037,5.191002 154.597321,5.116423 
	C130.730743,5.102033 107.335396,5.131054 83.752548,5.220688 
	C83.326080,5.433249 83.191010,5.649964 83.106842,6.357308 
	C82.707397,9.072688 82.257141,11.351999 82.030800,13.653334 
	C80.098312,33.302010 71.762985,50.094849 57.682590,63.521095 
	C42.274464,78.213394 23.613304,86.216949 1.712166,86.115692 
	C1.476429,86.067574 1.000000,86.000000 1.000000,86.000000 
z"/>
<path fill="#000064" opacity="1.000000" stroke="none" 
	d="
M83.166145,312.040710 
	C81.844872,295.480408 77.596703,279.863831 67.731110,266.226410 
	C54.572372,248.036835 37.096714,236.523621 14.736698,232.984253 
	C10.519271,232.316696 6.197064,232.311081 1.461605,232.000000 
	C1.000000,207.979111 1.000000,183.958206 1.417422,159.468597 
	C3.222881,158.944366 4.610919,158.888855 6.458588,158.896179 
	C10.945539,158.917114 14.972861,158.875229 19.412273,158.896240 
	C21.213583,159.026733 22.602800,159.094330 23.992020,159.161926 
	C32.565189,161.456604 41.271267,163.348694 49.685043,166.126221 
	C69.862457,172.787125 87.916649,183.093811 103.951309,197.276718 
	C130.926620,221.136810 147.033539,250.917831 153.702469,285.959839 
	C155.269867,294.195801 155.235275,302.736603 155.748474,311.719269 
	C155.379364,312.472015 155.206512,312.649506 155.040680,312.833832 
	C131.656326,312.868561 108.271980,312.903259 84.293129,312.748596 
	C83.528000,312.379364 83.350510,312.206512 83.166145,312.040710 
z"/>
<path fill="#18C073" opacity="1.000000" stroke="none" 
	d="
M19.000183,158.833344 
	C14.972861,158.875229 10.945539,158.917114 6.217901,158.663712 
	C4.011724,157.912277 2.505863,157.456131 1.000001,157.000000 
	C1.000000,133.979111 1.000000,110.958214 1.162498,87.334213 
	C1.538588,86.548538 1.746224,86.359436 1.947904,86.163803 
	C23.613304,86.216949 42.274464,78.213394 57.682590,63.521095 
	C71.762985,50.094849 80.098312,33.302010 82.030800,13.653334 
	C82.257141,11.351999 82.707397,9.072688 83.241409,6.233841 
	C83.605804,5.516017 83.776176,5.341204 83.940056,5.160075 
	C107.335396,5.131054 130.730743,5.102033 154.720795,5.250983 
	C155.483994,5.605795 155.658813,5.776161 155.839935,5.940051 
	C155.227798,26.008423 152.170349,45.567120 144.365814,64.250092 
	C136.456253,83.184425 125.423653,100.124344 110.872169,114.436226 
	C88.201042,136.734039 61.196552,151.290756 29.686293,156.994171 
	C28.387810,157.229202 27.116364,157.613602 25.129421,157.872192 
	C22.617743,158.155090 20.808964,158.494217 19.000183,158.833344 
z"/>
<path fill="none" opacity="1.000000" stroke="none" 
	d="
M311.000000,13.000000 
	C311.000000,110.020897 311.000000,207.041794 310.731018,304.441223 
	C309.988831,304.508331 309.515625,304.196930 309.029114,303.433838 
	C309.297943,290.397400 306.400909,278.306244 302.633453,266.487274 
	C293.090698,236.550507 276.329620,211.463501 251.493622,191.922806 
	C232.447479,176.937515 211.302826,166.564178 187.442291,161.848541 
	C184.823914,161.331070 182.372101,159.970856 179.986542,158.746109 
	C180.458191,158.007782 180.786316,157.524857 181.529449,157.026703 
	C191.844040,154.328247 201.959229,152.253189 211.598557,148.835815 
	C231.957352,141.618134 249.670578,129.690460 264.681274,114.407196 
	C273.435822,105.493729 280.987640,95.128326 287.699554,84.540688 
	C298.660156,67.250946 305.304749,48.103481 307.987976,27.723768 
	C308.623413,22.897543 308.695282,17.997118 309.353790,13.091120 
	C310.120819,13.034278 310.560394,13.017138 311.000000,13.000000 
z"/>
<path fill="#18C073" opacity="1.000000" stroke="none" 
	d="
M1.000001,157.333328 
	C2.505863,157.456131 4.011724,157.912277 5.758271,158.600891 
	C4.610919,158.888855 3.222881,158.944366 1.417422,158.999939 
	C1.000000,158.555557 1.000000,158.111099 1.000001,157.333328 
z"/>
<path fill="#000064" opacity="1.000000" stroke="none" 
	d="
M311.000000,311.666687 
	C310.515015,312.252655 310.030060,312.505341 309.348450,312.494507 
	C309.468262,311.469208 309.784729,310.707397 310.325806,309.960449 
	C310.550446,309.975281 311.000000,310.000000 311.000000,310.000000 
	C311.000000,310.444458 311.000000,310.888916 311.000000,311.666687 
z"/>
<path fill="#000064" opacity="1.000000" stroke="none" 
	d="
M309.042389,303.885498 
	C309.515625,304.196930 309.988831,304.508331 310.731018,304.909882 
	C311.000000,305.444489 311.000000,305.889008 310.775208,306.679138 
	C310.550385,307.024750 310.101074,307.054504 309.956635,306.751709 
	C309.555603,305.594452 309.298981,304.739990 309.042389,303.885498 
z"/>
<path fill="#4C6971" opacity="1.000000" stroke="none" 
	d="
M311.000000,7.000000 
	C311.000000,8.066787 311.000000,9.133574 310.773438,10.594830 
	C310.546844,10.989298 310.096130,10.940933 310.070679,10.558852 
	C310.044250,9.155971 310.043243,8.135171 310.280457,7.075442 
	C310.518646,7.036513 311.000000,7.000000 311.000000,7.000000 
z"/>
<path fill="#18C073" opacity="1.000000" stroke="none" 
	d="
M310.096130,10.940934 
	C310.096130,10.940933 310.546844,10.989298 310.773438,10.994649 
	C311.000000,11.444499 311.000000,11.888997 311.000000,12.666748 
	C310.560394,13.017138 310.120819,13.034278 309.470886,12.809240 
	C309.539093,12.025021 309.817627,11.482978 310.096130,10.940934 
z"/>
<path fill="#4C6971" opacity="1.000000" stroke="none" 
	d="
M310.101074,307.054504 
	C310.101074,307.054504 310.550385,307.024750 310.775208,307.012390 
	C311.000000,307.750000 311.000000,308.500000 311.000000,309.625000 
	C311.000000,310.000000 310.550446,309.975281 310.296448,309.599609 
	C310.061981,308.500824 310.081543,307.777649 310.101074,307.054504 
z"/>
<path fill="#18C073" opacity="1.000000" stroke="none" 
	d="
M311.000000,6.750000 
	C311.000000,7.000000 310.518646,7.036513 310.275940,6.763603 
	C310.030304,6.282811 310.027374,6.074929 310.024445,5.867047 
	C310.024445,5.867047 310.509308,5.954714 310.754639,5.977357 
	C311.000000,6.000000 311.000000,6.500000 311.000000,6.750000 
z"/>
<path fill="#18C073" opacity="1.000000" stroke="none" 
	d="
M1.712166,86.115692 
	C1.746224,86.359436 1.538588,86.548538 1.162498,86.865555 
	C1.000000,87.000000 1.000000,86.500000 1.000000,86.250000 
	C1.000000,86.000000 1.476429,86.067574 1.712166,86.115692 
z"/>
<path fill="#000064" opacity="1.000000" stroke="none" 
	d="
M309.956665,306.751709 
	C310.081543,307.777649 310.061981,308.500824 310.071777,309.584778 
	C309.784729,310.707397 309.468262,311.469208 309.076599,312.532196 
	C285.630127,312.868225 262.258881,312.903076 238.293121,312.748596 
	C237.528000,312.379364 237.350494,312.206512 237.166138,312.040710 
	C236.159531,306.033325 235.667450,299.884491 234.061432,294.041870 
	C224.762421,260.212280 202.984680,239.588913 168.353592,232.918442 
	C165.609360,232.389862 162.759384,231.917114 159.998749,232.083862 
	C155.963760,232.327606 154.911362,230.700302 154.937790,226.881393 
	C155.092133,204.566666 155.039810,182.250519 155.536835,159.467712 
	C158.344421,158.944839 160.672424,158.889099 163.451019,158.896133 
	C166.934433,158.917068 169.967255,158.875214 173.426407,158.896118 
	C175.849503,158.973099 177.846268,158.987305 179.843033,159.001511 
	C182.372101,159.970856 184.823914,161.331070 187.442291,161.848541 
	C211.302826,166.564178 232.447479,176.937515 251.493622,191.922806 
	C276.329620,211.463501 293.090698,236.550507 302.633453,266.487274 
	C306.400909,278.306244 309.297943,290.397400 309.029114,303.433838 
	C309.298981,304.739990 309.555603,305.594452 309.956665,306.751709 
z"/>
<path fill="#18C073" opacity="1.000000" stroke="none" 
	d="
M173.000076,158.833344 
	C169.967255,158.875214 166.934433,158.917068 163.414978,158.522797 
	C162.295685,153.012497 158.318481,154.289413 155.166534,153.999207 
	C155.135361,131.957443 155.104187,109.915672 155.250992,87.279213 
	C155.605835,86.516014 155.776199,86.341202 155.940079,86.160080 
	C173.432846,86.115616 189.309555,80.987694 203.206314,70.398491 
	C222.617935,55.607014 234.156906,36.270016 236.042587,11.603084 
	C236.167297,9.971705 236.647095,8.367472 237.195343,6.217560 
	C237.605804,5.516018 237.776184,5.341207 237.940079,5.160075 
	C261.737335,5.241127 285.534607,5.322181 309.678162,5.635140 
	C310.027374,6.074929 310.030304,6.282811 310.037750,6.802531 
	C310.043243,8.135171 310.044250,9.155971 310.070679,10.558853 
	C309.817627,11.482978 309.539093,12.025021 309.143494,12.848944 
	C308.695282,17.997118 308.623413,22.897543 307.987976,27.723768 
	C305.304749,48.103481 298.660156,67.250946 287.699554,84.540688 
	C280.987640,95.128326 273.435822,105.493729 264.681274,114.407196 
	C249.670578,129.690460 231.957352,141.618134 211.598557,148.835815 
	C201.959229,152.253189 191.844040,154.328247 181.106689,157.021790 
	C177.845993,157.632538 175.423035,158.232941 173.000076,158.833344 
z"/>
<path fill="#18C073" opacity="1.000000" stroke="none" 
	d="
M155.122101,154.414795 
	C158.318481,154.289413 162.295685,153.012497 162.964386,158.460007 
	C160.672424,158.889099 158.344421,158.944839 155.584900,159.001343 
	C155.128159,157.611526 155.102905,156.220947 155.122101,154.414795 
z"/>
<path fill="#18C073" opacity="1.000000" stroke="none" 
	d="
M19.412273,158.896240 
	C20.808964,158.494217 22.617743,158.155090 24.744141,157.954559 
	C24.844227,158.351547 24.626696,158.609955 24.200590,159.015137 
	C22.602800,159.094330 21.213583,159.026733 19.412273,158.896240 
z"/>
<path fill="#18C073" opacity="1.000000" stroke="none" 
	d="
M83.752548,5.220688 
	C83.776176,5.341204 83.605804,5.516017 83.294388,5.807981 
	C83.191010,5.649964 83.326080,5.433249 83.752548,5.220688 
z"/>
<path fill="#000064" opacity="1.000000" stroke="none" 
	d="
M237.202393,312.248505 
	C237.350494,312.206512 237.528000,312.379364 237.823761,312.696594 
	C237.632477,312.857880 237.395737,312.731995 237.202393,312.248505 
z"/>
<path fill="#000064" opacity="1.000000" stroke="none" 
	d="
M155.248474,312.797577 
	C155.206512,312.649506 155.379364,312.472015 155.696564,312.176208 
	C155.857834,312.367493 155.731964,312.604248 155.248474,312.797577 
z"/>
<path fill="#000064" opacity="1.000000" stroke="none" 
	d="
M83.202408,312.248505 
	C83.350510,312.206512 83.528000,312.379364 83.823761,312.696594 
	C83.632492,312.857880 83.395744,312.731995 83.202408,312.248505 
z"/>
<path fill="#18C073" opacity="1.000000" stroke="none" 
	d="
M155.779327,5.752545 
	C155.658813,5.776161 155.483994,5.605795 155.192017,5.294394 
	C155.350037,5.191002 155.566757,5.326070 155.779327,5.752545 
z"/>
<path fill="#18C073" opacity="1.000000" stroke="none" 
	d="
M237.752563,5.220686 
	C237.776184,5.341207 237.605804,5.516018 237.294388,5.807973 
	C237.190994,5.649951 237.326080,5.433237 237.752563,5.220686 
z"/>
<path fill="#18C073" opacity="1.000000" stroke="none" 
	d="
M155.752563,86.220688 
	C155.776199,86.341202 155.605835,86.516014 155.294403,86.807983 
	C155.190994,86.649956 155.326080,86.433243 155.752563,86.220688 
z"/>
<path fill="#18C073" opacity="1.000000" stroke="none" 
	d="
M173.426407,158.896118 
	C175.423035,158.232941 177.845993,157.632538 180.691696,157.037033 
	C180.786316,157.524857 180.458191,158.007782 179.986542,158.746109 
	C177.846268,158.987305 175.849503,158.973099 173.426407,158.896118 
z"/>
</svg>