<svg xmlns="http://www.w3.org/2000/svg" xml:space="preserve" width="150mm" height="150mm" style="shape-rendering:geometricPrecision; text-rendering:geometricPrecision; image-rendering:optimizeQuality; fill-rule:evenodd; clip-rule:evenodd"
viewBox="0 0 150 150"
 xmlns:xlink="http://www.w3.org/1999/xlink">
 <defs>
  <style type="text/css">
   <![CDATA[
    .str0 {stroke:#260D6B;stroke-width:0.2}
    .str1 {stroke:#FFFAFF;stroke-width:0.2}
    .str2 {stroke:#FFFAFF;stroke-width:0.5}
    .fil0 {fill:#260D6B}
    .fil1 {fill:#FFFAFF}
    .fil2 {fill:#260D6B;fill-rule:nonzero}
   ]]>
  </style>
 </defs>
 <g id="Capa_x0020_1">
  <metadata id="CorelCorpID_0Corel-Layer"/>
  <g id="_251440232">
   <path id="_251435168" class="fil0 str0" d="M8.6917 68.9851l-6.5895 6.7761 3.1997 2.6696 -3.1997 2.1561c8.9422,5.5694 18.3406,10.2261 28.652,13.0567 5.7816,1.3703 11.6357,1.2998 17.5678,1.2148 8.5596,-0.1227 16.1845,-0.9006 23.3736,-2.6155 5.0268,-1.4585 9.7468,-2.9496 14.2048,-4.4689 9.8905,-3.1098 17.5547,-5.7605 27.8503,-6.2631 5.6734,-0.1064 11.4781,2.1257 14.9648,6.2631 6.6496,9.4085 13.0801,14.6515 19.1823,13.6556 -2.0383,-5.4676 -3.0366,-11.5417 -3.2671,-18.3784 -0.106,-3.1418 -5.216,-4.8176 -4.6203,-6.8535 0.7159,-2.4465 4.3132,-4.5567 4.8256,-9.3689 0.04,-2.0372 0.5119,-5.8715 0.5776,-12.0267 0.0255,-2.3907 0.973,-4.4183 1.7857,-6.352 -6.565,1.1978 -13.0139,5.4216 -17.7625,13.0395 -4.2829,6.8707 -9.32,9.9797 -16.9411,8.3166l-10.4726 -4.2097c-10.6501,-5.0533 -22.2393,-9.355 -35.6276,-12.218 -11.8411,-2.2878 -23.1374,-1.9898 -33.8834,0.9243 -9.2579,2.6462 -16.8905,8.0649 -23.8204,14.6823z"/>
   <path id="_251439824" class="fil1 str1" d="M29.4557 75.3695c-0.2203,-5.8457 -3.1401,-10.1328 -6.0577,-14.169 3.9737,9.3529 4.7751,18.671 2.8619,27.7347 2.0443,-2.4479 3.4324,-7.2878 3.1958,-13.5657z"/>
   <path id="_251439296" class="fil1 str1" d="M15.39 70.3142c2.5659,0 4.646,1.7637 4.646,3.9395 0,2.1759 -2.0801,3.9396 -4.646,3.9396 -2.5658,0 -4.6458,-1.7637 -4.6458,-3.9396 0,-2.1758 2.08,-3.9395 4.6458,-3.9395z"/>
   <path id="_251433872" class="fil2 str2" d="M41.4147 79.8197l-5.9126 0 0 -3.0635 1.0221 0 0 -6.6736 -1.0556 0 0 -3.0666 9.583 0 0 4.2166 -2.5887 0 0 -1.15 -2.1753 0 0 1.9701 1.6786 0 0 2.6048 -1.6786 0 0 2.0987 1.1271 0 0 3.0635zm9.0384 -9.9978l0 2.4413 0.4202 0c0.5493,0 0.9242,-0.022 1.12,-0.066 0.2077,-0.0408 0.3868,-0.1634 0.5301,-0.3676 0.1457,-0.1885 0.2173,-0.4493 0.2173,-0.7823 0,-0.3299 -0.0716,-0.5939 -0.2173,-0.7887 -0.1433,-0.2042 -0.3295,-0.3267 -0.5517,-0.3707 -0.2149,-0.044 -0.6065,-0.066 -1.1748,-0.066l-0.3438 0zm0.7355 9.9978l-5.2894 0 0 -3.0635 0.7905 0 0 -6.6736 -0.7905 0 0 -3.0666 5.2894 0c0.4751,0 0.9169,0.0094 1.3205,0.0314 0.406,0.022 0.7545,0.0535 1.0435,0.0943 0.2889,0.0377 0.554,0.0912 0.7975,0.1602 0.6806,0.1886 1.2346,0.6033 1.6572,1.2443 0.4299,0.6504 0.6448,1.417 0.6448,2.2999 0,0.663 -0.1313,1.2631 -0.3916,1.8035 -0.2603,0.5343 -0.6042,0.9269 -1.0292,1.1783l1.3444 2.9283 0.6996 0 0 3.0635 -3.5054 0 -2.1205 -5.2282 -1.1963 0 0 2.1616 0.7355 0 0 3.0666zm16.2498 0l-9.2844 0 0 -3.0635 0.7547 0 0 -6.6736 -0.769 0 0 -3.0666 9.2987 0 0 4.0973 -2.5527 0 0 -1.0307 -2.2112 0 0 1.9669 1.9222 0 0 2.6048 -1.9222 0 0 2.0988 2.2112 0 0 -1.0305 2.5527 0 0 4.0971zm6.1489 -9.9978l0 2.4036 0.7355 0c0.5111,0 0.8859,-0.0786 1.1176,-0.2387 0.2245,-0.1603 0.3366,-0.4683 0.3366,-0.9301 0,-0.2985 -0.0596,-0.553 -0.1814,-0.7636 -0.117,-0.201 -0.2723,-0.3299 -0.4681,-0.3864 -0.1886,-0.0565 -0.5038,-0.0848 -0.9527,-0.0848l-0.5875 0zm0.979 9.9978l-5.688 0 0 -3.0666 0.9456 0 0 -6.6705 -0.9456 0 0 -3.0666 5.9699 0c1.3706,0 2.3736,0.176 3.0063,0.5248 0.6352,0.355 1.1009,0.842 1.3994,1.4547 0.2986,0.6127 0.449,1.2851 0.449,2.0141 0,0.9049 -0.1767,1.6526 -0.5326,2.2464 -0.3533,0.6033 -0.8238,1.037 -1.4065,1.3072 -0.5731,0.2639 -1.459,0.3959 -2.6577,0.3959l-1.5188 0 0 1.794 0.979 0 0 3.0666zm9.4778 -9.5549l-0.9171 3.5442 1.7433 0 -0.8262 -3.5442zm-0.9171 9.5549l-3.854 0 0 -3.0635 0.7426 0 1.8243 -6.6736 -0.7832 0 0 -3.0666 6.9966 0 0 3.0666 -0.7831 0 1.8601 6.6736 0.714 0 0 3.0635 -5.079 0 0 -2.8057 0.8524 0 -0.3701 -1.6119 -2.4906 0 -0.4274 1.6119 0.7974 0 0 2.8057zm12.2096 -9.9978l0 2.4036 0.7354 0c0.5111,0 0.8859,-0.0786 1.1176,-0.2387 0.2244,-0.1603 0.3367,-0.4683 0.3367,-0.9301 0,-0.2985 -0.0596,-0.553 -0.1815,-0.7636 -0.117,-0.201 -0.2722,-0.3299 -0.468,-0.3864 -0.1887,-0.0565 -0.5039,-0.0848 -0.9528,-0.0848l-0.5874 0zm0.9791 9.9978l-5.6882 0 0 -3.0666 0.9457 0 0 -6.6705 -0.9457 0 0 -3.0666 5.9699 0c1.3707,0 2.3736,0.176 3.0064,0.5248 0.6352,0.355 1.1008,0.842 1.3994,1.4547 0.2985,0.6127 0.4489,1.2851 0.4489,2.0141 0,0.9049 -0.1767,1.6526 -0.5325,2.2464 -0.3535,0.6033 -0.8239,1.037 -1.4064,1.3072 -0.5733,0.2639 -1.4592,0.3959 -2.658,0.3959l-1.5186 0 0 1.794 0.9791 0 0 3.0666z"/>
  </g>
 </g>
</svg>
